<svg width="944" height="769" viewBox="0 0 944 769" fill="none" xmlns="http://www.w3.org/2000/svg">
<g opacity="0.2" filter="url(#filter0_d_136_584)">
<path d="M420.278 362.121C430.841 342.448 463.584 335.739 485.134 347.275C497.768 353.119 503.977 361.796 504.602 367.466L516.161 369.248C514.039 354.999 510.906 346.538 492.435 335.992C472.183 328.954 458.396 327.667 432.207 333.617C418.561 336.368 414.585 342.815 409.089 353.808C402.261 374.763 404.863 384.472 422.473 403.691C438.729 414.638 449.758 415.66 469.925 416.162C486.685 415.791 494.535 411.801 507.644 402.503C516.016 394.137 517.498 386.496 516.161 369.248L504.602 367.466C498.763 362.84 494.949 360.739 485.134 359.746C471.824 361.004 467.429 363.599 469.925 374.592C474.494 384.933 479.605 387.304 491.218 385.282C486.778 381.358 485.619 378.783 486.351 373.405C490.458 371.852 492.719 372.218 496.693 374.592C500.598 380.369 501.926 383.938 500.344 391.814C491.59 401.204 485.532 404.721 469.925 403.691C465.755 400.602 464.432 397.678 462.625 391.814C461.358 397.683 459.548 400.44 452.891 403.691C440.189 402.791 434.602 399.735 426.123 391.814C422.603 382.261 422.139 377.312 428.556 370.435C431.949 370.004 433.927 370.16 437.682 371.623C440.418 376.17 439.306 378.635 433.423 382.906C445.669 384.361 451.155 383.247 455.325 373.405C456.591 367.093 455.168 363.821 448.024 358.558C437.183 356.561 431.107 356.533 420.278 362.121Z" fill="black"/>
<path fill-rule="evenodd" clip-rule="evenodd" d="M623.842 384.688C663.937 394.432 673.587 408.264 671.903 445.26C664.826 433.21 660.239 426.681 650.61 415.568C651.33 428.119 650.064 434.547 645.743 445.26C641.131 433.142 637.511 427.415 626.884 421.506C637.748 449.821 637.918 464.021 629.317 486.83C621.303 464.539 615.85 452.417 602.549 432.196C601.189 442.924 601.181 450.194 602.549 465.451C597.891 456.158 594.816 451.572 587.948 445.26C593.35 481.103 590.507 499.579 557.53 524.836C557.375 509.832 556.919 501.536 552.055 488.017C542.03 512.762 535.227 525.709 513.728 541.464C514.423 521.754 512.232 511.162 502.169 493.362C499.341 512.921 496.835 520.855 490.001 527.211C489.099 514.646 487.535 508.52 482.093 499.894C481.604 523.918 478.867 535.894 462.625 550.371C445.959 531.258 440.329 519.704 442.549 496.331C436.413 505.809 434.69 512.227 433.423 524.836C424.339 512.56 421.749 504.945 422.473 489.799C409.044 503.13 407.461 513.394 411.522 534.931C388.452 517.335 378.671 505.181 371.37 476.14C365.775 490.705 364.828 499.155 367.111 514.741C337.566 490.128 334.659 470.188 334.868 432.196C326.326 437.08 323.743 441.305 320.876 450.011V418.537C302.946 432.385 297.978 445.081 292.891 471.39C285.098 441.719 283.411 425.982 294.107 402.503C284.4 409.447 280.419 414.217 275.248 423.882C270.793 411.608 270.339 404.956 274.031 393.595C258.857 399.101 254.606 407.471 247.263 422.694C249.019 384.985 256.768 369.892 295.324 365.091C285.19 372.361 281.573 376.305 281.94 382.906C300.189 370.934 310.944 367.204 330.609 363.309C319.138 371.686 313.395 376.732 308.1 388.251C338.024 379.135 349.207 369.25 368.937 351.432C352.561 374.623 339.415 391.511 337.91 400.128C360.664 383.152 372.138 372.52 385.362 347.275C389.846 312.818 392.125 301.415 395.705 297.392C385.514 297.879 380.048 297.56 371.37 294.423C381.628 294.571 386.36 291.776 392.054 289.672C370.625 286.04 362.588 283.81 353.119 272.45C351.328 271.733 350.115 271.998 347.035 275.419C349.352 266.236 353.475 263.184 362.245 258.792C375.111 259.094 379.2 259.657 387.188 260.573C379.994 256.449 375.349 254.917 364.678 255.229C371.336 249.785 377.107 249.22 390.229 251.666C409.812 258.378 414.472 265.474 420.039 279.576C414.579 273.556 411.82 271.007 409.089 272.45C416.706 281.56 419.129 285.861 420.039 292.047C409.135 295.207 403.099 297.212 395.705 311.05C392.233 330.913 392.335 342.912 393.271 363.309C381.23 390.716 375.073 406.044 382.929 432.196C425.725 472.546 482.356 486.089 541.712 440.509C546.004 423.116 541.205 399.29 530.154 363.309C530.215 347.539 530.211 338.697 530.154 322.927C525.624 310.397 521.793 304.259 506.427 299.173C506.272 289.59 507.823 285.017 516.161 279.576C512.117 278.442 509.477 280.541 504.602 285.515C525.269 258.037 537.474 253.288 560.572 267.699C547.537 266.017 542.973 266.457 539.279 269.481C550.921 271.118 560.109 271.168 565.439 275.419C572.851 279.338 575.22 282.407 578.214 288.484C576.301 288.242 575.31 288.211 571.522 285.515C567.379 290.355 563.507 292.914 555.705 297.392C549.071 298.776 544.532 299.026 533.195 297.392C537.114 303.171 542.346 304.297 555.097 303.924C551.608 306.53 549.023 307.752 541.104 308.675C536.074 308.199 533.278 307.123 528.328 303.924C533.481 312.6 534.896 318.225 536.237 328.866C538.083 351.51 537.878 364.337 555.705 385.282L584.298 414.974C582.737 400.285 573.881 387.49 555.705 363.309C575.859 381.377 587.836 391.186 614.716 406.066C608.348 396.017 590.633 380.034 591.599 379.343C592.564 378.652 628.203 394.111 641.484 403.097L623.842 384.688ZM531.37 283.733C526.816 286 524.833 287.562 523.462 291.453C528.445 293.23 531.242 293.285 536.237 292.047C532.104 290.116 530.873 288.394 531.37 283.733ZM540.496 278.389C538.588 279.544 538.476 280.66 539.279 283.14C550.482 281.027 552.609 283.219 549.621 292.641C557.723 289.72 560.188 286.781 562.397 280.17C555.177 277.381 550.329 277.073 540.496 278.389ZM375.02 281.358C368.223 277.966 359.322 268.065 362.245 266.512C374.847 265.869 378.787 266.757 385.971 269.481C386.434 270.92 386.338 271.585 385.362 272.45C381.229 273.153 378.973 272.787 375.02 271.263C373.884 274.026 375.29 276.657 375.02 281.358ZM393.271 274.826C395.096 278.389 385.971 283.733 389.013 283.733C389.013 283.733 398.413 284.118 403.005 282.546C403.613 279.576 391.446 271.263 393.271 274.826Z" fill="black"/>
<path d="M566.656 315.207C578.798 334.82 590.914 341.73 615.933 351.432C634.895 356.619 642.725 361.055 651.827 371.623C655.601 357.953 651.843 349.691 637.834 334.211C650.696 339.782 657.194 343.47 667.036 351.432C669.143 334.408 660.853 326.209 641.484 312.238C647.921 320.344 651.282 324.849 650.61 331.835C639.933 329.503 629.579 326.569 607.416 319.958C613.271 331.793 617.913 335.717 626.884 341.337C602.384 337.975 589.158 332.525 566.656 315.207Z" fill="black"/>
<path fill-rule="evenodd" clip-rule="evenodd" d="M224.145 198.219C205.008 171.194 204.563 154.761 210.761 124.582C217.19 130.709 221.361 132.682 229.621 134.083C228.729 155.438 229.851 167.405 241.788 188.718C244.484 189.385 245.646 189.196 247.263 188.124C245.431 169.827 241.891 158.633 255.172 145.96C248.457 142.676 246.408 144.109 243.005 147.148C243.957 142.202 245.807 140.285 252.13 138.834C274.328 139.194 281.556 139.946 294.716 141.21C296.403 154.613 296.269 163.242 289.849 180.404H274.64C279.217 185.959 282.987 188.649 294.716 191.687C259.274 198.512 241.528 205.994 216.237 230.287C229.005 230.223 236.088 230.411 248.48 231.475C190.768 269.514 179.388 301.154 187.643 371.623C199.062 358.134 206.627 351.847 222.929 343.712C199.594 399.952 209.499 427.272 258.822 470.202C255.546 454.836 258.825 448.133 266.731 436.946C272.723 470.082 280.183 487.093 312.967 509.99C309.799 491.58 310.084 481.538 319.659 464.857C328.38 494.319 336.928 509.463 361.028 533.15C372.022 546.495 375.457 554.697 376.845 570.562C389.238 565.565 389.68 556.75 389.013 539.682C402.007 554.32 409.804 561.575 425.515 571.156C432 562.656 432.202 554.323 432.207 539.088C441.068 554.184 446.316 562.568 461.408 575.907C478.311 565.352 482.658 557.043 488.785 541.464C493.449 553.449 495.034 560.411 494.868 573.531C515.264 565.267 522.645 558.477 534.412 545.621C533.606 561.462 535.157 569.835 544.754 583.033C545.56 560.459 554.516 546.127 583.69 518.897C595.719 508.325 598.436 498.688 601.332 479.703C610.102 496.213 611.643 506.509 606.808 527.211C636.863 510.412 646.697 495.104 653.652 458.919C659.735 472.064 661.885 479.377 660.344 492.174C687.543 476.843 695.333 463.657 705.971 438.134C710.359 411.903 707.89 397.909 696.237 373.998C711.724 382.726 720.789 388.748 729.089 403.097C740.121 378.604 736.185 362.366 727.872 330.647C715.419 296.359 702.72 281.841 673.728 261.167C685.437 259.934 691.972 260.302 703.538 264.136C686.41 240.382 671.602 229.347 629.317 216.628C640.175 213.926 644.793 212.037 646.96 207.127C622.566 204.325 611.036 197.34 590.382 177.434C587.816 167.544 587.404 161.873 590.382 151.305C600.704 127.218 612.149 122.004 635.401 116.862C670.052 114.982 683.369 118.516 701.104 129.333C693.258 131.241 690.485 132.548 688.329 135.271C711.891 155.564 716.209 169.201 711.447 196.438C710.377 210.873 708.504 218.626 699.279 230.881C720.51 248.451 728.132 259.597 739.431 280.17L718.747 276.607C743.58 307.877 751.275 326.967 755.837 359.746C756.053 361.298 756.262 362.881 756.466 364.497C754.996 397.434 753.211 415.501 741.257 444.072C737.097 436.46 733.89 433.198 726.047 429.82C722.979 456.789 721.738 472.225 701.713 488.017C683.309 505.717 672.138 514.69 646.96 524.836L645.135 518.897C626.389 536.523 614.105 545.352 592.934 554.874C590.578 555.933 588.112 557.002 585.515 558.091C586.276 552.889 585.596 550.745 583.69 547.402C567.841 563.592 559.919 573.152 558.747 596.692H539.887C535.613 593.557 532.495 590.984 529.842 587.784C527.513 584.973 525.542 581.679 523.462 577.095C512.951 581.282 507.095 583.758 497.91 592.535H480.268C480.666 586.342 480.606 584.306 480.268 581.845C476.978 586.721 475.273 588.326 472.359 590.159C463.81 590.369 459.016 590.318 450.458 588.972C446.99 586.289 445.389 584.729 443.157 581.845C441.8 582.807 441.266 583.622 442.549 587.784H423.689L420.278 585.083L401.18 569.968C395.976 576.052 392.936 579.328 387.188 584.815L362.245 584.221C359.722 559.828 353.175 549.538 338.518 533.15V545.027C309.604 531.686 297.421 520.487 278.29 498.113C274.727 500.826 275.102 502.703 278.29 506.427C228.834 483.37 208.382 462.331 197.135 421.506C195.137 414.254 193.43 406.376 191.902 397.752C186.505 400.14 183.443 402.436 179.01 408.644C178.653 409.145 178.286 409.67 177.91 410.223C177.319 409.012 176.746 407.819 176.189 406.643C171.502 396.736 168.001 387.992 165.477 379.343C163.059 371.056 161.538 362.857 160.73 353.808C159.916 344.696 159.824 334.721 160.267 322.927C167.58 289.562 175.989 272.231 199.202 243.945C195.869 240.85 192.797 239.725 179.735 241.57C185.581 232.541 188.446 227.536 199.202 217.816C208.877 209.317 214.288 205.384 223.693 198.548L224.145 198.219ZM595.857 157.837C595.003 168.996 597.543 172.517 606.199 175.059C605.219 169.149 606.301 165.905 610.458 160.213C611.421 164.036 612.728 166.019 617.15 169.121C626.986 150.635 635.35 151.465 650.002 151.899C670.381 153.031 674.3 157.845 678.595 167.933C671.001 162.886 666.854 161.825 659.736 164.37C670.682 165.453 674.343 169.552 679.203 179.216C676.138 174.663 673.878 173.739 668.861 175.059C680.575 190.916 679.303 201.166 676.161 219.598C689.928 206.595 693.178 197.778 690.762 179.216C690.414 139.67 676.113 141.249 655.477 135.865C660.805 134.648 662.835 132.974 666.428 128.739C646.197 124.933 634.83 122.364 615.933 142.397C614.084 136.784 614.02 133.417 615.933 126.957C603.381 135.681 597.166 141.155 595.857 157.837Z" fill="black"/>
<path d="M503.385 277.201C506.206 258.391 511.253 253.059 533.195 255.229C514.71 259.658 510.817 265.689 503.471 277.068L503.385 277.201Z" fill="black"/>
<path d="M393.746 247.019C422.756 248.936 422.901 256.212 420.278 269.481C414.54 258.149 410.092 252.177 393.746 247.019Z" fill="black"/>
<path d="M381.104 191.687C407.349 202.255 421.159 208.707 437.682 224.942L434.032 211.284C441.358 216.347 445.278 220.101 451.674 229.693C452.838 223.722 452.708 219.792 450.458 211.284C456.957 217.133 459.252 220.945 461.408 228.505C466.35 217.958 469.911 215.071 476.617 211.284C477.019 215.793 475.682 220.141 471.75 229.693C479.156 222.512 483.443 218.99 491.827 215.441L488.176 228.505C508.3 212.473 520.881 207.781 544.754 204.158L507.644 208.315C508.82 203.888 512.045 200.847 518.595 195.25L491.827 206.533C490.589 200.412 492.944 196.685 498.519 189.905C489.894 188.829 484.192 190.385 471.75 198.813C471.644 201.408 470.97 202.837 468.709 205.345C467.26 203.477 466.448 202.429 466.275 201.188C465.366 203.385 464.713 204.586 462.625 206.533C457.345 196.603 451.833 193.998 442.549 188.718C434.81 188.621 432.1 188.9 429.773 189.905C433.681 195.443 435.18 198.287 435.248 202.376C426.463 198.277 420.855 194.827 409.089 188.718C414.977 194.744 417.597 197.919 418.214 202.376C403.615 199.557 395.521 196.822 381.104 191.687Z" fill="black"/>
<path d="M372.587 90.7326C374.965 102.509 377.5 108.68 384.754 118.699C388.654 118.57 392.504 118.471 396.313 118.402C387.102 107.952 382.65 101.995 379.279 90.7326C377.507 74.1446 375.322 64.7921 368.328 47.9755L342.777 25.4092C354.47 36.2308 358.729 42.6721 364.07 52.1324C368.328 67.0946 369.977 75.5722 372.587 90.7326Z" fill="black"/>
<path d="M488.176 96.0772C488.337 106.633 487.496 112.186 485.598 120.588C485.45 121.242 485.295 121.914 485.134 122.607C488.764 123.016 492.412 123.454 496.085 123.92C496.111 123.243 496.134 122.581 496.156 121.933C496.433 113.567 496.366 107.319 496.085 96.0772C501.796 90.7645 503.251 86.5523 506.427 79.4494C509.136 58.5294 514.341 46.5905 521.636 25.4092L502.169 75.8863C498.112 84.5819 495.289 89.1412 488.176 96.0772Z" fill="black"/>
<path d="M572.739 113.893C569.539 120.087 567.916 120.833 564.222 134.877C568.214 135.622 572.268 136.39 576.389 137.182C576.386 137.168 576.383 137.154 576.38 137.14C576.365 137.072 576.35 137.004 576.335 136.936C574.719 129.524 575.709 124.167 578.823 113.893L636.618 52.1324C613.096 75.7709 601.359 88.5351 572.739 113.893Z" fill="black"/>
<path d="M291.674 102.61C304.253 107.326 311.408 112.313 315.4 123.57C319.315 123.176 323.166 122.804 326.959 122.455C319.766 113.436 315.249 108.713 303.841 102.61C262.879 95.5455 241.009 89.7377 210.761 64.6032C226.89 83.6973 237.991 93.837 291.674 102.61Z" fill="black"/>
<path d="M233.879 128.145C261.897 132.854 277.592 134.199 305.553 134.083C305.445 132.942 305.395 131.76 305.392 130.52C276.519 131.182 260.328 129.181 231.446 123.394C227.538 121.11 226.556 119.669 226.579 116.862C219.233 117.005 218.062 113.893 205.894 113.893C193.727 113.893 177.056 103.774 181.56 95.4833C197.492 79.3847 199.093 74.9349 201.027 67.5725C199.667 57.2908 202.345 54.8176 209.545 52.7262C249.93 28.7942 272.806 25.0921 313.575 17.0953C371.549 6.76465 407.984 6.33897 473.575 6.40604C540.868 13.3763 576.383 20.2531 636.618 36.6923C658.247 45.4814 666.958 52.2722 675.553 68.1663C680.966 87.1997 677.498 96.0583 661.561 109.142L666.428 110.923C693.823 83.9266 692.634 67.8544 646.351 36.6923C587.238 17.0572 547.779 11.0866 476.617 1.06139C413.412 0.574305 377.98 2.89899 314.792 11.1568C256.485 21.4534 226.523 34.4604 195.552 58.0709C194.353 62.2785 193.75 64.6625 195.552 69.9478C187.276 80.313 172.434 89.5449 172.434 99.0464C172.434 108.548 188.981 115.169 204.678 118.05L224.145 120.425C224.587 125.674 226.923 127.227 233.879 128.145Z" fill="black"/>
<path d="M280.723 289.672C263.022 299.281 254.745 305.685 255.172 326.491C264.206 318.072 270.478 315.231 283.765 313.426C270.59 326.238 268.946 333.379 269.773 346.087C292.299 333.573 306.589 328.641 335.476 324.115C346.546 317.437 349.852 312.401 355.552 303.33C335.993 314.993 323.239 319.429 294.716 320.552C302.828 313.473 308.02 309.427 317.834 302.143C298.176 301.692 288.083 303.072 272.206 309.269C270.303 303.214 273.62 298.48 280.723 289.672Z" fill="black"/>
<path d="M316.009 130.52C318.651 133.299 320.653 135.213 324.526 138.834C329.708 132.581 334.116 132.472 342.777 134.083C438.466 124.987 489.476 138.946 581.865 153.681V151.305C480.218 134.61 424.2 121.422 316.009 130.52Z" fill="black"/>
<path d="M301.408 183.967C325.219 181.255 346.353 179.413 365.497 178.297C347.619 178.331 328.471 178.636 307.492 179.216C307.664 169.916 308.33 164.887 315.4 157.837C311.829 146.832 310.113 140.72 310.533 130.52L313.575 126.957C375.361 121.775 416.499 119.548 445.24 119.248C429.332 118.384 413.237 118.095 396.313 118.402C392.504 118.471 388.654 118.57 384.754 118.699C366.774 119.297 347.748 120.541 326.959 122.455C323.166 122.804 319.315 123.176 315.4 123.57C312.199 123.892 308.955 124.23 305.666 124.582C305.49 126.73 305.389 128.689 305.392 130.52C305.395 131.76 305.445 132.942 305.553 134.083C306.129 140.183 302.253 148.719 307.492 155.462C298.025 165.707 302.864 169.851 301.408 183.967Z" fill="black"/>
<path d="M518.398 186.394C468.041 180.929 423.442 178.188 365.497 178.297C430.456 174.511 472.491 179.087 518.398 186.394Z" fill="black"/>
<path d="M590.382 198.219V195.25C564.149 191.771 540.709 188.815 518.398 186.394C540.499 189.912 563.497 194.063 590.382 198.219Z" fill="black"/>
<path d="M564.222 134.877C547.437 131.747 531.735 129.042 516.649 126.777C527.679 130.149 538.015 134.056 558.212 137.182C597.802 143.311 589.257 140.283 576.335 136.936C576.35 137.004 576.365 137.072 576.38 137.14C576.676 137.223 576.705 137.243 576.389 137.182C572.268 136.39 568.214 135.622 564.222 134.877Z" fill="black"/>
<path d="M485.134 122.607C485.295 121.914 485.45 121.242 485.598 120.588C475.46 119.589 462.615 119.066 445.24 119.248C458.545 119.97 471.718 121.094 485.134 122.607Z" fill="black"/>
<path d="M496.156 121.933C496.134 122.581 496.111 123.243 496.085 123.92C502.839 124.778 509.678 125.73 516.649 126.777C510.605 124.929 504.353 123.242 496.156 121.933Z" fill="black"/>
<path d="M433.423 430.414C436.465 428.632 430.352 426.592 427.34 426.851C417.852 430.607 418.106 435.235 422.473 445.26L426.123 440.509C461.743 447.494 479.964 446.358 507.644 430.414L513.119 438.134C515.011 430.609 513.994 426.347 502.169 418.537C499.447 419.809 497.978 420.603 496.693 423.882L502.169 426.851C489.047 438.543 441.486 443.157 432.207 435.759C431.453 435.158 430.381 432.196 433.423 430.414Z" fill="black"/>
<path d="M401.18 569.968C395.976 576.052 392.936 579.328 387.188 584.815L362.245 584.221C359.722 559.828 353.175 549.538 338.518 533.15V545.027C309.604 531.686 297.421 520.487 278.29 498.113C274.727 500.826 275.102 502.703 278.29 506.427C228.834 483.37 208.382 462.331 197.135 421.506L179.01 408.644C178.653 409.145 178.286 409.67 177.91 410.223C177.319 409.012 176.746 407.819 176.189 406.643L59.8865 324.115C48.5009 322.741 46.1796 325.936 46.5024 335.992L187.643 436.946C187.427 441.526 185.656 443.48 177.91 445.26L34.9435 346.087C25.177 344.969 22.4143 347.178 24.6013 358.558L165.477 455.949C162.254 463.295 159.253 466.339 146.883 465.451L16.6925 373.405C7.42834 373.796 2.4211 374.208 6.35027 388.251L146.883 479.703C158.744 486.636 165.807 489.841 179.735 493.362C194.763 493.504 202.765 492.332 216.237 488.017L382.649 608.539L385.971 610.944L420.278 585.083L401.18 569.968Z" fill="black"/>
<path d="M160.73 353.808L84.2211 301.549C69.5119 300.545 68.7009 304.283 68.4036 312.238L165.477 379.343C163.059 371.056 161.538 362.857 160.73 353.808Z" fill="black"/>
<path d="M523.462 577.095C512.951 581.282 507.095 583.758 497.91 592.535H480.268C480.666 586.342 480.606 584.306 480.268 581.845C476.978 586.721 475.273 588.326 472.359 590.159C463.81 590.369 459.016 590.318 450.458 588.972C446.99 586.289 445.389 584.729 443.157 581.845C441.8 582.807 441.266 583.622 442.549 587.784H423.689L420.278 585.083L385.971 610.944L382.649 608.539L238.746 698.24C231.749 727.441 236.896 738.092 271.598 740.997L438.899 641.74L493.534 609.325L529.842 587.784C527.513 584.973 525.542 581.679 523.462 577.095Z" fill="black"/>
<path d="M493.534 609.325L438.899 641.74L606.808 760C642.532 755.256 650.468 745.767 645.135 717.837L493.534 609.325Z" fill="black"/>
<path fill-rule="evenodd" clip-rule="evenodd" d="M756.466 364.497C754.996 397.434 753.211 415.501 741.257 444.072C737.097 436.46 733.89 433.198 726.047 429.82C722.979 456.789 721.738 472.225 701.713 488.017C683.309 505.717 672.138 514.69 646.96 524.836L645.135 518.897C626.389 536.523 614.105 545.352 592.934 554.874L663.994 636.479L932.892 479.703C941.401 467.755 940.663 459.923 932.892 445.26L832.511 347.275C817.052 340.102 808.834 339.774 794.793 344.306L755.837 359.746C756.053 361.298 756.262 362.881 756.466 364.497ZM807.568 388.845C795.628 386.339 792.106 383.043 791.143 373.998C794.782 367.332 797.664 364.35 807.568 363.309C818.613 366.469 821.552 370.217 822.778 379.343C820.374 385.582 818.084 388.407 807.568 388.845Z" fill="black"/>
<path d="M224.145 198.219C205.008 171.194 204.563 154.761 210.761 124.582C217.19 130.709 221.361 132.682 229.621 134.083C228.729 155.438 229.851 167.405 241.788 188.718C244.484 189.385 245.646 189.196 247.263 188.124C245.431 169.827 241.891 158.633 255.172 145.96C248.457 142.676 246.407 144.109 243.005 147.148C243.957 142.202 245.807 140.285 252.13 138.834C274.328 139.194 281.556 139.946 294.716 141.21C296.403 154.613 296.269 163.242 289.849 180.404H274.64C279.217 185.959 282.987 188.649 294.716 191.687C259.274 198.512 241.528 205.994 216.237 230.287C229.005 230.223 236.088 230.411 248.48 231.475C190.768 269.514 179.388 301.154 187.643 371.623C199.062 358.134 206.627 351.847 222.929 343.712C199.594 399.952 209.499 427.272 258.822 470.202C255.546 454.836 258.825 448.133 266.731 436.946C272.723 470.082 280.183 487.093 312.967 509.99C309.799 491.58 310.084 481.538 319.659 464.857C328.38 494.319 336.928 509.463 361.028 533.15C372.022 546.495 375.457 554.697 376.845 570.562C389.238 565.565 389.68 556.75 389.013 539.682C402.007 554.32 409.804 561.575 425.515 571.156C432 562.656 432.202 554.323 432.207 539.088C441.068 554.184 446.316 562.568 461.408 575.907C478.311 565.352 482.658 557.043 488.785 541.464C493.449 553.449 495.034 560.411 494.868 573.531C515.264 565.267 522.645 558.477 534.412 545.621C533.606 561.462 535.157 569.835 544.754 583.033C545.56 560.459 554.516 546.127 583.69 518.897C595.719 508.325 598.436 498.688 601.332 479.703C610.102 496.213 611.643 506.509 606.808 527.211C636.863 510.412 646.697 495.104 653.652 458.919C659.735 472.064 661.885 479.377 660.344 492.174C687.543 476.843 695.333 463.657 705.971 438.134C710.359 411.903 707.89 397.909 696.237 373.998C711.724 382.726 720.789 388.748 729.089 403.097C740.121 378.604 736.185 362.366 727.873 330.647C715.419 296.359 702.72 281.841 673.728 261.167C685.437 259.934 691.972 260.302 703.538 264.136C686.41 240.382 671.602 229.347 629.317 216.628C640.175 213.926 644.793 212.037 646.96 207.127C622.566 204.325 611.036 197.34 590.382 177.434C587.816 167.544 587.404 161.873 590.382 151.305C600.704 127.218 612.149 122.004 635.401 116.862C670.052 114.982 683.369 118.516 701.104 129.333C693.258 131.241 690.485 132.548 688.329 135.271C711.891 155.564 716.209 169.201 711.447 196.438C710.377 210.873 708.504 218.626 699.279 230.881C720.51 248.451 728.132 259.597 739.431 280.17L718.747 276.607C743.58 307.877 751.275 326.967 755.837 359.746M224.145 198.219L223.693 198.548M224.145 198.219C223.994 198.329 223.843 198.439 223.693 198.548M555.705 385.282C537.878 364.337 538.083 351.51 536.237 328.866C534.896 318.225 533.481 312.6 528.328 303.924C533.278 307.123 536.074 308.199 541.104 308.675C549.023 307.752 551.608 306.53 555.097 303.924C542.346 304.297 537.114 303.171 533.195 297.392C544.532 299.026 549.071 298.776 555.705 297.392C563.507 292.914 567.379 290.355 571.522 285.515C575.31 288.211 576.301 288.242 578.214 288.484C575.22 282.407 572.851 279.338 565.439 275.42C560.109 271.168 550.921 271.118 539.279 269.481C542.973 266.457 547.537 266.017 560.572 267.699C537.474 253.288 525.269 258.037 504.602 285.515C509.477 280.541 512.117 278.442 516.161 279.576C507.823 285.017 506.272 289.59 506.427 299.173C521.793 304.259 525.624 310.397 530.154 322.927C530.211 338.697 530.215 347.539 530.154 363.309C541.205 399.29 546.004 423.116 541.712 440.509C482.356 486.089 425.725 472.546 382.929 432.196C375.073 406.044 381.23 390.716 393.271 363.309C392.335 342.912 392.233 330.913 395.705 311.05C403.099 297.212 409.135 295.207 420.039 292.047C419.129 285.861 416.706 281.56 409.089 272.45C411.82 271.007 414.579 273.556 420.039 279.576C414.472 265.474 409.812 258.378 390.229 251.666C377.107 249.22 371.336 249.785 364.678 255.229C375.349 254.917 379.994 256.449 387.187 260.573C379.2 259.657 375.111 259.094 362.245 258.792C353.475 263.184 349.352 266.236 347.035 275.42C350.115 271.998 351.328 271.733 353.119 272.45C362.588 283.81 370.625 286.04 392.054 289.672C386.36 291.776 381.628 294.571 371.37 294.423C380.048 297.56 385.514 297.879 395.705 297.392C392.125 301.415 389.846 312.818 385.362 347.275C372.138 372.52 360.664 383.152 337.91 400.128C339.415 391.511 352.561 374.623 368.937 351.432C349.207 369.25 338.024 379.135 308.1 388.251C313.395 376.732 319.138 371.686 330.609 363.309C310.944 367.204 300.189 370.934 281.94 382.906C281.573 376.305 285.19 372.361 295.324 365.091C256.768 369.892 249.019 384.985 247.263 422.694C254.606 407.471 258.857 399.101 274.031 393.595C270.339 404.956 270.793 411.608 275.248 423.882C280.42 414.217 284.4 409.447 294.107 402.503C283.411 425.982 285.098 441.719 292.891 471.39C297.978 445.081 302.946 432.385 320.876 418.537V450.011C323.743 441.305 326.326 437.08 334.868 432.196C334.659 470.188 337.566 490.128 367.111 514.741C364.828 499.155 365.775 490.705 371.37 476.14C378.671 505.181 388.452 517.335 411.522 534.931C407.461 513.394 409.044 503.13 422.473 489.799C421.749 504.945 424.339 512.56 433.423 524.836C434.69 512.227 436.413 505.809 442.549 496.331C440.329 519.704 445.959 531.258 462.625 550.371C478.867 535.894 481.604 523.918 482.093 499.894C487.535 508.52 489.099 514.646 490.001 527.211C496.835 520.855 499.341 512.921 502.169 493.362C512.232 511.162 514.423 521.754 513.728 541.464C535.227 525.709 542.03 512.762 552.055 488.017C556.919 501.536 557.375 509.832 557.53 524.836C590.507 499.579 593.35 481.103 587.948 445.26C594.816 451.572 597.891 456.158 602.549 465.451C601.181 450.194 601.189 442.924 602.549 432.196C615.85 452.417 621.303 464.539 629.317 486.83C637.918 464.021 637.748 449.821 626.884 421.506C637.511 427.415 641.131 433.142 645.743 445.26C650.064 434.547 651.33 428.119 650.61 415.568C660.239 426.681 664.826 433.21 671.903 445.26C673.587 408.264 663.937 394.432 623.842 384.688L641.484 403.097C628.203 394.111 592.564 378.652 591.599 379.343C590.633 380.034 608.348 396.017 614.717 406.066C587.836 391.186 575.859 381.377 555.705 363.309C573.881 387.49 582.737 400.285 584.298 414.974M555.705 385.282C566.871 396.877 573.132 403.378 584.298 414.974M555.705 385.282L584.298 414.974M392.054 246.915C392.629 246.947 393.193 246.982 393.746 247.019M420.039 270.669C420.121 270.268 420.2 269.872 420.278 269.481M391.446 246.321C392.238 246.552 393.005 246.785 393.746 247.019M420.278 269.481C422.901 256.212 422.756 248.936 393.746 247.019M420.278 269.481C414.54 258.149 410.092 252.177 393.746 247.019M503.385 277.201C506.206 258.391 511.253 253.059 533.195 255.229C514.71 259.658 510.817 265.689 503.471 277.068M503.385 277.201L503.471 277.068M503.385 277.201C503.414 277.157 503.443 277.112 503.471 277.068M305.666 124.582C305.49 126.73 305.389 128.689 305.392 130.52M305.666 124.582C312.975 123.799 320.064 123.09 326.959 122.455M305.666 124.582C308.955 124.23 312.199 123.892 315.4 123.57M305.553 134.083C306.129 140.183 302.253 148.72 307.492 155.462C298.025 165.707 302.864 169.851 301.408 183.967C325.219 181.255 346.353 179.413 365.497 178.297M305.553 134.083C277.592 134.199 261.897 132.854 233.879 128.145C226.923 127.227 224.587 125.674 224.145 120.425L204.678 118.05C188.981 115.169 172.434 108.548 172.434 99.0464C172.434 89.5449 187.276 80.313 195.552 69.9478C193.75 64.6625 194.353 62.2785 195.552 58.0709C226.523 34.4604 256.485 21.4534 314.792 11.1568C377.98 2.89899 413.412 0.574305 476.617 1.06139C547.779 11.0866 587.238 17.0572 646.351 36.6923C692.634 67.8544 693.823 83.9266 666.428 110.923L661.561 109.142C677.498 96.0583 680.966 87.1997 675.553 68.1663C666.958 52.2722 658.247 45.4814 636.618 36.6923C576.383 20.2531 540.868 13.3763 473.575 6.40604C407.984 6.33897 371.549 6.76465 313.575 17.0953C272.806 25.0921 249.93 28.7942 209.545 52.7262C202.345 54.8176 199.667 57.2908 201.027 67.5725C199.093 74.9349 197.492 79.3846 181.56 95.4833C177.056 103.774 193.727 113.893 205.894 113.893C218.062 113.893 219.233 117.005 226.579 116.862C226.556 119.669 227.538 121.11 231.446 123.394C260.328 129.181 276.519 131.182 305.392 130.52M305.553 134.083C305.445 132.942 305.395 131.76 305.392 130.52M315.4 123.57C311.408 112.313 304.253 107.326 291.674 102.61C237.991 93.837 226.89 83.6973 210.761 64.6032C241.009 89.7377 262.879 95.5455 303.841 102.61C315.249 108.713 319.766 113.436 326.959 122.455M315.4 123.57C319.315 123.176 323.166 122.804 326.959 122.455M326.959 122.455C347.748 120.541 366.774 119.297 384.754 118.699M384.754 118.699C377.5 108.68 374.965 102.509 372.587 90.7325C369.977 75.5722 368.328 67.0946 364.07 52.1324C358.729 42.6721 354.47 36.2308 342.777 25.4092M384.754 118.699C388.654 118.57 392.504 118.471 396.313 118.402M342.777 25.4092C352.755 34.2219 358.35 39.1628 368.328 47.9755M342.777 25.4092L368.328 47.9755M368.328 47.9755C375.322 64.7921 377.507 74.1446 379.279 90.7325C382.65 101.995 387.102 107.952 396.313 118.402M396.313 118.402C413.237 118.095 429.332 118.384 445.24 119.248M485.134 122.607C488.764 123.016 492.412 123.454 496.085 123.92M485.134 122.607C471.718 121.094 458.545 119.97 445.24 119.248M485.134 122.607C485.295 121.914 485.45 121.242 485.598 120.588M496.085 123.92C502.839 124.778 509.678 125.73 516.649 126.777M496.085 123.92C496.111 123.243 496.134 122.581 496.156 121.933M564.222 134.877C567.916 120.833 569.539 120.087 572.739 113.893C601.359 88.5351 613.096 75.7709 636.618 52.1324L578.823 113.893C575.709 124.167 574.718 129.524 576.335 136.936M564.222 134.877C568.214 135.622 572.268 136.39 576.389 137.182M564.222 134.877C547.437 131.747 531.735 129.042 516.649 126.777M576.389 137.182C576.705 137.243 576.676 137.223 576.38 137.14M576.389 137.182C576.386 137.168 576.383 137.154 576.38 137.14M504.602 367.466C503.977 361.796 497.768 353.119 485.134 347.275C463.584 335.739 430.841 342.448 420.278 362.121C431.107 356.533 437.183 356.561 448.024 358.558C455.168 363.821 456.591 367.093 455.325 373.405C451.155 383.247 445.669 384.361 433.423 382.906C439.306 378.635 440.418 376.17 437.682 371.623C433.927 370.16 431.949 370.004 428.556 370.435C422.139 377.312 422.603 382.261 426.123 391.814C434.602 399.735 440.189 402.791 452.891 403.691C459.548 400.439 461.358 397.683 462.625 391.814C464.432 397.678 465.755 400.602 469.925 403.691C485.532 404.721 491.59 401.204 500.344 391.814C501.926 383.938 500.598 380.369 496.693 374.592C492.719 372.218 490.458 371.852 486.351 373.405C485.619 378.783 486.778 381.358 491.218 385.282C479.605 387.304 474.494 384.933 469.925 374.592C467.429 363.599 471.824 361.004 485.134 359.746C494.949 360.739 498.763 362.84 504.602 367.466ZM504.602 367.466L516.161 369.248M516.161 369.248C514.039 354.999 510.906 346.538 492.435 335.992C472.183 328.954 458.396 327.667 432.207 333.617C418.561 336.368 414.585 342.815 409.089 353.808C402.261 374.763 404.863 384.472 422.473 403.691C438.729 414.638 449.758 415.66 469.925 416.162C486.685 415.791 494.535 411.801 507.644 402.503C516.016 394.137 517.498 386.496 516.161 369.248ZM223.693 198.548C214.288 205.384 208.877 209.317 199.202 217.816C188.446 227.536 185.581 232.541 179.735 241.57C192.797 239.725 195.869 240.85 199.202 243.945C175.989 272.231 167.58 289.562 160.267 322.927C159.824 334.721 159.916 344.696 160.73 353.808M365.497 178.297C347.619 178.331 328.471 178.636 307.492 179.216C307.664 169.916 308.33 164.887 315.4 157.837C311.829 146.832 310.113 140.72 310.533 130.52L313.575 126.957C375.361 121.775 416.499 119.548 445.24 119.248M365.497 178.297C423.442 178.188 468.041 180.929 518.398 186.394M365.497 178.297C430.456 174.511 472.491 179.087 518.398 186.394M445.24 119.248C462.615 119.066 475.46 119.589 485.598 120.588M518.398 186.394C540.499 189.912 563.497 194.063 590.382 198.219V195.25C564.149 191.771 540.709 188.815 518.398 186.394ZM516.649 126.777C527.679 130.149 538.015 134.056 558.212 137.182C597.802 143.311 589.257 140.283 576.335 136.936M516.649 126.777C510.605 124.929 504.353 123.242 496.156 121.933M576.335 136.936C576.35 137.004 576.365 137.072 576.38 137.14M576.335 136.936C567.902 134.752 557.604 132.432 557.604 132.432C555.055 131.933 574.043 136.488 576.38 137.14M485.598 120.588C487.496 112.186 488.337 106.633 488.176 96.0772C495.289 89.1412 498.112 84.5819 502.169 75.8863L521.636 25.4092C514.341 46.5905 509.136 58.5295 506.427 79.4494C503.251 86.5523 501.796 90.7645 496.085 96.0772C496.366 107.319 496.433 113.567 496.156 121.933M485.598 120.588C489.48 120.97 492.965 121.423 496.156 121.933M160.73 353.808L84.2211 301.549C69.5119 300.545 68.7009 304.283 68.4036 312.238L165.477 379.343M160.73 353.808C161.538 362.857 163.059 371.056 165.477 379.343M165.477 379.343C168.001 387.992 171.502 396.736 176.189 406.643M197.135 421.506C208.382 462.331 228.834 483.37 278.29 506.427C275.102 502.703 274.727 500.826 278.29 498.113C297.421 520.486 309.604 531.686 338.518 545.027V533.15C353.175 549.538 359.722 559.828 362.245 584.221L387.187 584.815C392.936 579.328 395.976 576.052 401.18 569.968L420.278 585.083M197.135 421.506C195.137 414.254 193.43 406.376 191.902 397.752C186.505 400.14 183.443 402.436 179.01 408.644M197.135 421.506L179.01 408.644M420.278 585.083L423.689 587.784H442.549C441.266 583.622 441.8 582.807 443.157 581.845C445.389 584.729 446.99 586.289 450.458 588.972C459.016 590.318 463.81 590.369 472.359 590.159C475.273 588.326 476.978 586.72 480.268 581.845C480.606 584.306 480.666 586.342 480.268 592.535H497.91C507.095 583.758 512.951 581.282 523.462 577.095C525.542 581.679 527.513 584.973 529.842 587.784M420.278 585.083L385.971 610.944L382.649 608.539M420.278 585.083L382.649 608.539M179.01 408.644C178.653 409.145 178.286 409.67 177.91 410.223C177.319 409.012 176.746 407.819 176.189 406.643M179.01 408.644L176.189 406.643M176.189 406.643L59.8865 324.115C48.5009 322.741 46.1796 325.936 46.5024 335.992L187.643 436.946C187.427 441.526 185.656 443.48 177.91 445.26L34.9435 346.087C25.177 344.969 22.4143 347.178 24.6013 358.558L165.477 455.949C162.254 463.295 159.253 466.339 146.883 465.451L16.6925 373.405C7.42834 373.796 2.4211 374.208 6.35027 388.251L146.883 479.703C158.744 486.636 165.807 489.841 179.735 493.362C194.763 493.504 202.765 492.332 216.237 488.017L382.649 608.539M529.842 587.784C532.495 590.984 535.613 593.557 539.887 596.692H558.747C559.919 573.152 567.841 563.592 583.69 547.402C585.596 550.745 586.276 552.889 585.515 558.091C588.112 557.002 590.578 555.933 592.934 554.874M529.842 587.784L493.534 609.325M382.649 608.539L238.746 698.24C231.749 727.441 236.896 738.092 271.598 740.997L438.899 641.74M438.899 641.74L606.808 760C642.532 755.256 650.468 745.767 645.135 717.837L493.534 609.325M438.899 641.74L493.534 609.325M492.435 608.539L493.534 609.325M591.599 553.341L592.934 554.874M755.837 359.746C756.053 361.298 756.262 362.881 756.466 364.497C754.996 397.434 753.211 415.501 741.257 444.072C737.097 436.459 733.89 433.198 726.047 429.82C722.979 456.789 721.738 472.225 701.713 488.017C683.309 505.717 672.138 514.69 646.96 524.836L645.135 518.897C626.389 536.523 614.105 545.352 592.934 554.874M755.837 359.746L794.793 344.306C808.834 339.774 817.052 340.102 832.512 347.275L932.892 445.26C940.663 459.923 941.401 467.755 932.892 479.703L663.994 636.479L592.934 554.874M280.723 289.672C263.022 299.281 254.745 305.685 255.172 326.49C264.206 318.072 270.478 315.231 283.765 313.426C270.59 326.238 268.946 333.379 269.773 346.087C292.299 333.573 306.589 328.64 335.476 324.115C346.545 317.437 349.852 312.401 355.552 303.33C335.993 314.993 323.239 319.429 294.716 320.552C302.828 313.473 308.02 309.427 317.834 302.143C298.176 301.692 288.083 303.072 272.206 309.269C270.303 303.214 273.62 298.48 280.723 289.672ZM606.199 175.059C597.543 172.517 595.003 168.996 595.857 157.837C597.166 141.155 603.381 135.681 615.933 126.957C614.02 133.417 614.084 136.784 615.933 142.397C634.83 122.364 646.197 124.933 666.428 128.739C662.835 132.974 660.805 134.648 655.477 135.865C676.113 141.249 690.414 139.67 690.762 179.216C693.178 197.778 689.928 206.595 676.161 219.598C679.303 201.166 680.575 190.916 668.861 175.059C673.878 173.739 676.138 174.663 679.203 179.216C674.343 169.552 670.682 165.453 659.736 164.37C666.854 161.825 671.001 162.886 678.595 167.933C674.3 157.845 670.381 153.03 650.002 151.899C635.35 151.465 626.986 150.635 617.15 169.121C612.728 166.019 611.421 164.036 610.458 160.213C606.301 165.905 605.219 169.149 606.199 175.059ZM566.656 315.207C578.798 334.82 590.914 341.73 615.933 351.432C634.895 356.619 642.725 361.055 651.827 371.623C655.601 357.953 651.843 349.691 637.834 334.211C650.696 339.782 657.194 343.47 667.036 351.432C669.143 334.408 660.853 326.209 641.484 312.238C647.921 320.344 651.282 324.849 650.61 331.835C639.933 329.503 629.579 326.569 607.416 319.958C613.271 331.793 617.913 335.717 626.884 341.337C602.384 337.975 589.158 332.525 566.656 315.207ZM381.104 191.687C407.349 202.255 421.159 208.707 437.682 224.942L434.032 211.284C441.358 216.347 445.278 220.101 451.674 229.693C452.838 223.722 452.708 219.792 450.458 211.284C456.957 217.133 459.252 220.945 461.408 228.505C466.35 217.958 469.911 215.071 476.617 211.284C477.019 215.793 475.682 220.141 471.75 229.693C479.156 222.512 483.443 218.99 491.826 215.441L488.176 228.505C508.3 212.473 520.881 207.781 544.754 204.158L507.644 208.315C508.82 203.888 512.045 200.847 518.595 195.25L491.826 206.533C490.589 200.412 492.944 196.685 498.519 189.905C489.894 188.829 484.192 190.385 471.75 198.813C471.644 201.408 470.97 202.837 468.709 205.345C467.26 203.477 466.448 202.429 466.275 201.188C465.366 203.385 464.713 204.586 462.625 206.533C457.345 196.603 451.833 193.998 442.549 188.718C434.81 188.621 432.1 188.9 429.773 189.905C433.681 195.443 435.18 198.287 435.248 202.376C426.463 198.277 420.855 194.827 409.089 188.718C414.977 194.744 417.597 197.919 418.214 202.376C403.615 199.557 395.521 196.822 381.104 191.687ZM316.009 130.52C318.651 133.299 320.653 135.213 324.526 138.834C329.708 132.581 334.116 132.472 342.777 134.083C438.466 124.987 489.476 138.946 581.865 153.681V151.305C480.218 134.61 424.2 121.422 316.009 130.52ZM433.423 430.414C436.465 428.632 430.352 426.592 427.34 426.851C417.852 430.607 418.106 435.235 422.473 445.26L426.123 440.509C461.743 447.494 479.964 446.358 507.644 430.414L513.119 438.134C515.011 430.609 513.994 426.347 502.169 418.537C499.447 419.809 497.978 420.603 496.693 423.882L502.169 426.851C489.047 438.543 441.486 443.157 432.207 435.759C431.453 435.158 430.381 432.196 433.423 430.414ZM523.462 291.453C524.833 287.562 526.816 286 531.37 283.733C530.873 288.394 532.104 290.116 536.237 292.047C531.242 293.285 528.445 293.23 523.462 291.453ZM539.279 283.14C538.476 280.66 538.588 279.544 540.496 278.389C550.329 277.073 555.177 277.381 562.397 280.17C560.188 286.782 557.723 289.72 549.621 292.641C552.609 283.219 550.482 281.027 539.279 283.14ZM362.245 266.512C359.322 268.065 368.223 277.966 375.02 281.358C375.29 276.657 373.884 274.026 375.02 271.263C378.973 272.787 381.229 273.153 385.362 272.45C386.338 271.585 386.434 270.92 385.971 269.481C378.787 266.757 374.847 265.869 362.245 266.512ZM389.013 283.733C385.971 283.733 395.096 278.389 393.271 274.826C391.446 271.263 403.613 279.576 403.005 282.546C398.413 284.118 389.013 283.733 389.013 283.733ZM791.143 373.998C792.106 383.043 795.628 386.339 807.568 388.845C818.084 388.407 820.374 385.582 822.778 379.343C821.552 370.217 818.613 366.469 807.568 363.309C797.664 364.35 794.782 367.332 791.143 373.998Z" stroke="black" stroke-width="0.5"/>
</g>
<defs>
<filter id="filter0_d_136_584" x="0.75" y="0.75" width="942.5" height="767.511" filterUnits="userSpaceOnUse" color-interpolation-filters="sRGB">
<feFlood flood-opacity="0" result="BackgroundImageFix"/>
<feColorMatrix in="SourceAlpha" type="matrix" values="0 0 0 0 0 0 0 0 0 0 0 0 0 0 0 0 0 0 127 0" result="hardAlpha"/>
<feOffset dy="4"/>
<feGaussianBlur stdDeviation="2"/>
<feComposite in2="hardAlpha" operator="out"/>
<feColorMatrix type="matrix" values="0 0 0 0 1 0 0 0 0 0.6 0 0 0 0 0 0 0 0 1 0"/>
<feBlend mode="normal" in2="BackgroundImageFix" result="effect1_dropShadow_136_584"/>
<feBlend mode="normal" in="SourceGraphic" in2="effect1_dropShadow_136_584" result="shape"/>
</filter>
</defs>
</svg>
