<svg width="402" height="329" viewBox="0 0 402 329" fill="none" xmlns="http://www.w3.org/2000/svg">
<g filter="url(#filter0_d_122_12)">
<path d="M179.403 152.824C183.814 144.607 197.486 141.805 206.484 146.623C211.76 149.064 214.352 152.688 214.613 155.056L219.44 155.8C218.554 149.849 217.246 146.316 209.533 141.911C201.076 138.972 195.32 138.434 184.384 140.919C178.686 142.068 177.026 144.761 174.731 149.352C171.88 158.104 172.966 162.159 180.319 170.186C187.107 174.758 191.713 175.185 200.134 175.394C207.132 175.24 210.41 173.573 215.883 169.69C219.379 166.195 219.998 163.004 219.44 155.8L214.613 155.056C212.175 153.124 210.583 152.247 206.484 151.832C200.927 152.357 199.091 153.441 200.134 158.033C202.041 162.351 204.176 163.342 209.025 162.497C207.171 160.858 206.687 159.783 206.992 157.537C208.707 156.888 209.651 157.041 211.311 158.033C212.941 160.445 213.496 161.936 212.835 165.225C209.18 169.147 206.651 170.616 200.134 170.186C198.392 168.896 197.84 167.674 197.085 165.225C196.556 167.677 195.8 168.828 193.021 170.186C187.717 169.81 185.384 168.534 181.844 165.225C180.374 161.235 180.18 159.168 182.86 156.296C184.277 156.116 185.102 156.181 186.67 156.792C187.812 158.692 187.348 159.721 184.892 161.505C190.005 162.113 192.296 161.647 194.037 157.537C194.566 154.901 193.972 153.534 190.989 151.336C186.462 150.502 183.925 150.49 179.403 152.824Z" fill="black"/>
<path fill-rule="evenodd" clip-rule="evenodd" d="M264.403 162.249C281.145 166.319 285.175 172.096 284.471 187.547C281.516 182.514 279.601 179.788 275.58 175.146C275.881 180.388 275.352 183.073 273.548 187.547C271.622 182.486 270.111 180.094 265.673 177.626C270.21 189.452 270.281 195.383 266.689 204.909C263.343 195.599 261.066 190.536 255.512 182.091C254.944 186.572 254.941 189.608 255.512 195.98C253.567 192.099 252.283 190.184 249.415 187.547C251.671 202.517 250.484 210.234 236.714 220.783C236.649 214.516 236.459 211.051 234.428 205.405C230.242 215.74 227.401 221.147 218.424 227.727C218.714 219.496 217.799 215.072 213.597 207.637C212.416 215.806 211.37 219.12 208.517 221.775C208.14 216.527 207.487 213.968 205.214 210.366C205.01 220.399 203.867 225.401 197.085 231.448C190.127 223.465 187.775 218.639 188.702 208.877C186.14 212.836 185.421 215.516 184.892 220.783C181.099 215.655 180.017 212.475 180.319 206.149C174.712 211.717 174.051 216.004 175.747 224.999C166.114 217.65 162.03 212.574 158.981 200.445C156.645 206.528 156.249 210.057 157.203 216.566C144.866 206.287 143.652 197.958 143.739 182.091C140.173 184.131 139.094 185.896 137.897 189.532V176.386C130.41 182.17 128.335 187.473 126.211 198.46C122.958 186.068 122.253 179.496 126.719 169.69C122.666 172.59 121.004 174.582 118.845 178.619C116.984 173.492 116.795 170.714 118.336 165.969C112 168.269 110.225 171.764 107.159 178.123C107.892 162.373 111.128 156.07 127.227 154.064C122.996 157.101 121.486 158.748 121.639 161.505C129.259 156.505 133.75 154.947 141.961 153.32C137.171 156.819 134.773 158.926 132.562 163.737C145.057 159.93 149.727 155.801 157.965 148.36C151.127 158.045 145.638 165.099 145.009 168.698C154.511 161.608 159.302 157.167 164.824 146.623C166.696 132.232 167.648 127.47 169.142 125.789C164.887 125.993 162.605 125.86 158.981 124.549C163.264 124.611 165.24 123.444 167.618 122.565C158.67 121.048 155.314 120.117 151.36 115.373C150.612 115.073 150.106 115.184 148.82 116.613C149.787 112.777 151.509 111.502 155.171 109.668C160.543 109.794 162.251 110.029 165.586 110.412C162.582 108.69 160.642 108.05 156.187 108.18C158.967 105.906 161.376 105.67 166.856 106.692C175.033 109.495 176.979 112.459 179.303 118.349C177.023 115.834 175.871 114.77 174.731 115.373C177.912 119.177 178.923 120.974 179.303 123.557C174.75 124.877 172.23 125.714 169.142 131.494C167.693 139.79 167.735 144.801 168.126 153.32C163.098 164.767 160.527 171.169 163.808 182.091C181.678 198.944 205.324 204.6 230.109 185.563C231.901 178.299 229.897 168.348 225.283 153.32C225.308 146.734 225.307 143.041 225.283 136.455C223.391 131.221 221.791 128.658 215.375 126.534C215.31 122.531 215.958 120.621 219.44 118.349C217.751 117.875 216.649 118.751 214.613 120.829C223.243 109.353 228.339 107.369 237.984 113.388C232.541 112.686 230.636 112.87 229.093 114.132C233.954 114.816 237.791 114.837 240.016 116.613C243.111 118.249 244.1 119.531 245.351 122.069C244.552 121.968 244.138 121.955 242.556 120.829C240.827 122.85 239.21 123.919 235.952 125.789C233.182 126.368 231.287 126.472 226.553 125.789C228.189 128.203 230.374 128.674 235.698 128.518C234.241 129.606 233.161 130.117 229.855 130.502C227.755 130.303 226.587 129.854 224.52 128.518C226.672 132.141 227.263 134.49 227.823 138.935C228.594 148.392 228.508 153.749 235.952 162.497L247.891 174.898C247.239 168.764 243.541 163.419 235.952 153.32C244.367 160.866 249.368 164.963 260.593 171.178C257.933 166.981 250.536 160.305 250.939 160.017C251.343 159.728 266.224 166.185 271.77 169.938L264.403 162.249ZM225.791 120.085C223.889 121.032 223.061 121.684 222.488 123.309C224.569 124.051 225.737 124.074 227.823 123.557C226.097 122.751 225.583 122.031 225.791 120.085ZM229.601 117.853C228.804 118.335 228.758 118.801 229.093 119.837C233.771 118.955 234.659 119.87 233.411 123.805C236.794 122.585 237.824 121.358 238.746 118.597C235.731 117.432 233.707 117.303 229.601 117.853ZM160.505 119.093C157.667 117.676 153.95 113.541 155.171 112.892C160.433 112.624 162.078 112.995 165.078 114.132C165.271 114.733 165.231 115.011 164.824 115.373C163.098 115.666 162.156 115.513 160.505 114.876C160.031 116.031 160.618 117.129 160.505 119.093ZM168.126 116.365C168.888 117.853 165.078 120.085 166.348 120.085C166.348 120.085 170.273 120.245 172.191 119.589C172.445 118.349 167.364 114.876 168.126 116.365Z" fill="black"/>
<path d="M240.524 133.23C245.594 141.421 250.653 144.308 261.101 148.36C269.018 150.526 272.288 152.379 276.088 156.792C277.664 151.083 276.095 147.632 270.246 141.167C275.616 143.494 278.329 145.034 282.439 148.36C283.319 141.249 279.857 137.825 271.77 131.99C274.458 135.375 275.861 137.257 275.58 140.175C271.122 139.201 266.798 137.975 257.544 135.214C259.989 140.157 261.927 141.796 265.673 144.143C255.443 142.739 249.92 140.463 240.524 133.23Z" fill="black"/>
<path fill-rule="evenodd" clip-rule="evenodd" d="M97.5061 84.3695C89.5153 73.0822 89.3293 66.2191 91.9175 53.6146C94.602 56.1734 96.3434 56.9975 99.7924 57.583C99.42 66.5016 99.8885 71.4998 104.873 80.4011C105.998 80.6798 106.484 80.6008 107.159 80.1531C106.394 72.5113 104.916 67.8362 110.462 62.5434C107.658 61.1717 106.802 61.7703 105.381 63.0395C105.778 60.9737 106.551 60.1732 109.191 59.5671C118.46 59.7174 121.478 60.0315 126.973 60.5592C127.678 66.1571 127.622 69.7612 124.941 76.9288H118.59C120.502 79.2488 122.076 80.3726 126.973 81.6413C112.174 84.4916 104.764 87.6169 94.2037 97.7628C99.5352 97.7359 102.493 97.8146 107.667 98.2589C83.5692 114.146 78.8171 127.361 82.2644 156.792C87.0323 151.159 90.1912 148.533 96.998 145.135C87.2546 168.624 91.3902 180.035 111.986 197.964C110.618 191.547 111.987 188.747 115.288 184.075C117.79 197.914 120.905 205.019 134.594 214.582C133.272 206.893 133.391 202.699 137.389 195.732C141.03 208.037 144.6 214.362 154.663 224.255C159.253 229.829 160.688 233.254 161.267 239.88C166.442 237.793 166.627 234.112 166.348 226.983C171.774 233.097 175.029 236.127 181.59 240.128C184.298 236.578 184.382 233.098 184.384 226.735C188.084 233.04 190.275 236.542 196.577 242.113C203.635 237.705 205.45 234.234 208.009 227.727C209.956 232.733 210.618 235.641 210.549 241.121C219.065 237.669 222.147 234.833 227.061 229.463C226.724 236.08 227.372 239.577 231.379 245.089C231.716 235.661 235.455 229.675 247.637 218.302C252.66 213.887 253.795 209.862 255.004 201.933C258.666 208.828 259.309 213.128 257.29 221.775C269.84 214.758 273.946 208.365 276.85 193.252C279.391 198.742 280.288 201.796 279.645 207.141C291.002 200.738 294.255 195.231 298.697 184.571C300.529 173.616 299.498 167.771 294.632 157.785C301.099 161.43 304.884 163.945 308.35 169.938C312.956 159.708 311.313 152.926 307.842 139.679C302.642 125.358 297.339 119.295 285.233 110.66C290.122 110.145 292.851 110.299 297.681 111.9C290.529 101.979 284.346 97.3702 266.689 92.0583C271.223 90.9294 273.151 90.1405 274.056 88.0899C263.87 86.9197 259.056 84.0024 250.431 75.6887C249.36 71.5578 249.188 69.1893 250.431 64.7756C254.741 54.7154 259.521 52.538 269.229 50.3903C283.698 49.6053 289.259 51.0809 296.665 55.5988C293.388 56.3959 292.231 56.9415 291.33 58.079C301.169 66.5546 302.972 72.25 300.983 83.6255C300.536 89.6545 299.755 92.8925 295.903 98.0108C304.768 105.349 307.95 110.004 312.668 118.597L304.031 117.109C314.401 130.169 317.614 138.142 319.519 151.832C319.609 152.48 319.696 153.141 319.781 153.816C319.167 167.573 318.422 175.118 313.43 187.051C311.694 183.872 310.355 182.51 307.08 181.099C305.799 192.363 305.28 198.809 296.919 205.405C289.234 212.798 284.569 216.545 274.056 220.783L273.294 218.302C265.466 225.664 260.337 229.351 251.497 233.328C250.513 233.771 249.484 234.217 248.399 234.672C248.717 232.499 248.433 231.603 247.637 230.208C241.019 236.969 237.711 240.962 237.222 250.793H229.347C227.562 249.484 226.26 248.41 225.153 247.073C224.18 245.899 223.357 244.523 222.488 242.609C218.099 244.357 215.654 245.392 211.819 249.057H204.452C204.619 246.471 204.594 245.621 204.452 244.593C203.079 246.629 202.367 247.299 201.15 248.065C197.58 248.153 195.579 248.131 192.005 247.569C190.557 246.449 189.888 245.797 188.956 244.593C188.39 244.995 188.167 245.335 188.702 247.073H180.828L179.403 245.945L171.428 239.632C169.256 242.173 167.986 243.541 165.586 245.833L155.171 245.585C154.117 235.397 151.383 231.1 145.264 224.255V229.215C133.19 223.644 128.103 218.966 120.115 209.622C118.627 210.755 118.784 211.538 120.115 213.094C99.464 203.464 90.924 194.677 86.2279 177.626C85.3936 174.597 84.6806 171.307 84.0426 167.706C81.789 168.703 80.5105 169.661 78.6593 172.255C78.5102 172.464 78.3573 172.683 78.1999 172.914C77.9534 172.408 77.7139 171.91 77.4815 171.419C75.5242 167.281 74.0625 163.629 73.0087 160.017C71.9991 156.556 71.364 153.131 71.0264 149.352C70.6865 145.546 70.6483 141.38 70.8331 136.455C73.8869 122.519 77.3979 115.281 87.0909 103.467C85.6991 102.174 84.4164 101.705 78.962 102.475C81.4031 98.7041 82.5995 96.614 87.0909 92.5543C91.1305 89.0048 93.39 87.3621 97.3173 84.5068L97.5061 84.3695ZM252.718 67.5039C252.361 72.1644 253.422 73.6348 257.036 74.6966C256.627 72.2281 257.079 70.8733 258.814 68.496C259.216 70.0926 259.762 70.9211 261.609 72.2164C265.716 64.496 269.208 64.8425 275.326 65.0237C283.836 65.4963 285.472 67.507 287.266 71.7203C284.095 69.6125 282.363 69.1695 279.391 70.2322C283.961 70.6844 285.49 72.3964 287.52 76.4328C286.24 74.5314 285.296 74.1454 283.201 74.6966C288.092 81.3195 287.561 85.6001 286.249 93.2984C291.998 87.8677 293.355 84.1851 292.346 76.4328C292.201 59.9162 286.229 60.5757 277.612 58.327C279.837 57.8186 280.685 57.1198 282.185 55.3507C273.737 53.761 268.991 52.6883 261.101 61.0553C260.328 58.7108 260.302 57.3046 261.101 54.6067C255.859 58.2503 253.264 60.5365 252.718 67.5039Z" fill="black"/>
<path d="M214.105 117.357C215.283 109.501 217.39 107.274 226.553 108.18C218.834 110.03 217.208 112.549 214.141 117.301L214.105 117.357Z" fill="black"/>
<path d="M168.325 104.751C180.438 105.552 180.498 108.59 179.403 114.132C177.007 109.4 175.15 106.905 168.325 104.751Z" fill="black"/>
<path d="M163.046 81.6413C174.004 86.055 179.771 88.7498 186.67 95.5306L185.146 89.8261C188.205 91.9409 189.842 93.5086 192.513 97.5148C192.999 95.0208 192.944 93.3795 192.005 89.8261C194.719 92.2691 195.677 93.8611 196.577 97.0187C198.641 92.6133 200.128 91.4078 202.928 89.8261C203.096 91.7094 202.537 93.5251 200.896 97.5148C203.988 94.5155 205.778 93.0447 209.279 91.5622L207.755 97.0187C216.158 90.3227 221.411 88.3631 231.379 86.8498L215.883 88.5859C216.374 86.7372 217.721 85.4671 220.456 83.1294L209.279 87.8419C208.762 85.2853 209.745 83.7288 212.073 80.8972C208.472 80.4479 206.091 81.0974 200.896 84.6176C200.851 85.7013 200.57 86.2981 199.626 87.3458C199.021 86.5653 198.682 86.1279 198.61 85.6096C198.23 86.527 197.957 87.0286 197.085 87.8419C194.881 83.6947 192.579 82.6065 188.702 80.4011C185.471 80.3609 184.339 80.4772 183.368 80.8972C185 83.2103 185.626 84.398 185.654 86.1057C181.985 84.3936 179.644 82.9526 174.731 80.4011C177.19 82.9179 178.283 84.2442 178.541 86.1057C172.445 84.9285 169.066 83.786 163.046 81.6413Z" fill="black"/>
<path d="M159.489 39.4772C160.482 44.3957 161.541 46.9729 164.57 51.1577C166.198 51.1036 167.806 51.0622 169.396 51.0334C165.55 46.6692 163.691 44.181 162.283 39.4772C161.544 32.5492 160.631 28.6431 157.711 21.6195L147.042 12.1946C151.924 16.7143 153.703 19.4046 155.933 23.3557C157.711 29.6047 158.399 33.1454 159.489 39.4772Z" fill="black"/>
<path d="M207.755 41.7094C207.822 46.118 207.471 48.4374 206.678 51.9464C206.616 52.2198 206.552 52.5004 206.484 52.7898C208 52.9607 209.523 53.1436 211.057 53.3383C211.068 53.0554 211.077 52.7791 211.086 52.5081C211.202 49.014 211.174 46.4045 211.057 41.7094C213.442 39.4906 214.049 37.7313 215.375 34.7648C216.506 26.0275 218.68 21.0411 221.726 12.1946L213.597 33.2766C211.903 36.9084 210.724 38.8126 207.755 41.7094Z" fill="black"/>
<path d="M243.065 49.1502C241.728 51.7372 241.051 52.049 239.508 57.9145C241.175 58.2254 242.868 58.5463 244.589 58.8772C244.587 58.8714 244.586 58.8655 244.585 58.8596C244.578 58.8311 244.572 58.8027 244.566 58.7743C243.891 55.6788 244.305 53.4414 245.605 49.1502L269.738 23.3557C259.916 33.2284 255.015 38.5594 243.065 49.1502Z" fill="black"/>
<path d="M125.703 44.4377C130.956 46.4076 133.943 48.4904 135.61 53.1919C137.245 53.0274 138.853 52.8722 140.437 52.7263C137.433 48.9593 135.547 46.987 130.784 44.4377C113.68 41.4874 104.548 39.0617 91.9175 28.5642C98.6521 36.5389 103.287 40.7738 125.703 44.4377Z" fill="black"/>
<path d="M101.571 55.1027C113.27 57.0694 119.823 57.6314 131.499 57.583C131.454 57.106 131.433 56.6127 131.431 56.0948C119.375 56.3712 112.614 55.5354 100.554 53.1185C98.9228 52.1646 98.5126 51.5625 98.5222 50.3903C95.4549 50.4502 94.9658 49.1502 89.8852 49.1502C84.8047 49.1502 77.8434 44.9241 79.7241 41.4614C86.3769 34.7377 87.0452 32.8793 87.853 29.8043C87.285 25.5101 88.403 24.4772 91.4094 23.6037C108.273 13.6084 117.825 12.0622 134.848 8.72229C159.056 4.40764 174.27 4.22985 201.658 4.25786C229.756 7.16902 244.586 10.0412 269.738 16.9071C278.769 20.5779 282.407 23.4141 285.995 30.0523C288.256 38.0017 286.808 41.7015 280.153 47.166L282.185 47.91C293.624 36.6347 293.128 29.922 273.802 16.9071C249.119 8.70636 232.642 6.2127 202.928 2.02564C176.536 1.82221 161.741 2.79312 135.356 6.24204C111.01 10.5425 98.499 15.9749 85.5667 25.8359C85.0662 27.5933 84.8144 28.5889 85.5667 30.7964C82.1111 35.1254 75.9137 38.9812 75.9137 42.9496C75.9137 46.9179 82.8231 49.6832 89.3772 50.8863L97.5061 51.8784C97.6904 54.0706 98.666 54.7194 101.571 55.1027Z" fill="black"/>
<path d="M121.131 122.565C113.74 126.578 110.283 129.253 110.462 137.943C114.234 134.426 116.853 133.24 122.401 132.486C116.9 137.837 116.213 140.82 116.558 146.127C125.964 140.901 131.931 138.841 143.993 136.951C148.615 134.161 149.996 132.058 152.376 128.27C144.209 133.14 138.884 134.993 126.973 135.462C130.361 132.506 132.529 130.816 136.627 127.774C128.418 127.586 124.204 128.162 117.574 130.75C116.78 128.221 118.165 126.244 121.131 122.565Z" fill="black"/>
<path d="M135.864 56.0948C136.968 57.2551 137.804 58.0549 139.421 59.5671C141.585 56.9553 143.425 56.9101 147.042 57.583C186.997 53.7837 208.297 59.6138 246.875 65.7678V64.7756C204.431 57.8028 181.041 52.2947 135.864 56.0948Z" fill="black"/>
<path d="M129.768 78.417C139.71 77.2842 148.535 76.5149 156.529 76.0489C149.064 76.063 141.068 76.1904 132.308 76.4328C132.38 72.5485 132.658 70.4482 135.61 67.5039C134.119 62.9075 133.403 60.3546 133.578 56.0948L134.848 54.6067C160.648 52.4422 177.825 51.5122 189.826 51.3867C183.184 51.026 176.463 50.9053 169.396 51.0334C167.806 51.0622 166.198 51.1036 164.57 51.1577C157.062 51.4073 149.117 51.9268 140.437 52.7263C138.853 52.8722 137.245 53.0274 135.61 53.1919C134.274 53.3265 132.919 53.4674 131.546 53.6146C131.472 54.5117 131.43 55.3299 131.431 56.0948C131.433 56.6127 131.454 57.106 131.499 57.583C131.739 60.1306 130.121 63.6958 132.308 66.5118C128.355 70.7908 130.376 72.5216 129.768 78.417Z" fill="black"/>
<path d="M220.374 79.4307C199.347 77.1483 180.724 76.0032 156.529 76.0489C183.653 74.4677 201.205 76.3787 220.374 79.4307Z" fill="black"/>
<path d="M250.431 84.3695V83.1294C239.478 81.6764 229.69 80.4419 220.374 79.4307C229.602 80.9 239.205 82.6338 250.431 84.3695Z" fill="black"/>
<path d="M239.508 57.9145C232.499 56.6073 225.943 55.4774 219.644 54.5314C224.249 55.9397 228.565 57.5715 236.999 58.8772C253.53 61.4367 249.962 60.1721 244.566 58.7743C244.572 58.8027 244.578 58.8311 244.585 58.8596C244.708 58.8942 244.72 58.9025 244.589 58.8772C242.868 58.5463 241.175 58.2254 239.508 57.9145Z" fill="black"/>
<path d="M206.484 52.7898C206.552 52.5004 206.616 52.2198 206.678 51.9464C202.445 51.5291 197.081 51.3108 189.826 51.3867C195.382 51.6883 200.882 52.1577 206.484 52.7898Z" fill="black"/>
<path d="M211.086 52.5081C211.077 52.7791 211.068 53.0554 211.057 53.3383C213.877 53.6963 216.733 54.0942 219.644 54.5314C217.12 53.7597 214.509 53.0551 211.086 52.5081Z" fill="black"/>
<path d="M184.892 181.347C186.162 180.603 183.61 179.75 182.352 179.859C178.39 181.427 178.496 183.36 180.319 187.547L181.844 185.563C196.717 188.481 204.326 188.006 215.883 181.347L218.17 184.571C218.959 181.428 218.535 179.648 213.597 176.386C212.461 176.918 211.848 177.249 211.311 178.619L213.597 179.859C208.118 184.742 188.258 186.669 184.384 183.579C184.069 183.328 183.622 182.091 184.892 181.347Z" fill="black"/>
<path d="M171.428 239.632C169.256 242.173 167.986 243.541 165.586 245.833L155.171 245.585C154.117 235.397 151.383 231.1 145.264 224.255V229.215C133.19 223.644 128.103 218.966 120.115 209.622C118.627 210.755 118.784 211.538 120.115 213.094C99.464 203.464 90.924 194.677 86.2279 177.626L78.6593 172.255C78.5102 172.464 78.3573 172.683 78.1999 172.914C77.9534 172.408 77.7139 171.91 77.4815 171.419L28.9183 136.951C24.1642 136.377 23.1949 137.711 23.3297 141.911L82.2644 184.075C82.174 185.988 81.4344 186.804 78.1999 187.547L18.5032 146.127C14.4251 145.66 13.2715 146.583 14.1847 151.336L73.0087 192.012C71.6628 195.08 70.4097 196.351 65.2444 195.98L10.8823 157.537C7.01398 157.7 4.92316 157.872 6.56382 163.737L65.2444 201.933C70.1971 204.828 73.1464 206.167 78.962 207.637C85.2374 207.697 88.5786 207.207 94.2037 205.405L163.691 255.741L165.078 256.746L179.403 245.945L171.428 239.632Z" fill="black"/>
<path d="M71.0264 149.352L39.0795 127.526C32.9375 127.106 32.5989 128.668 32.4747 131.99L73.0087 160.017C71.9991 156.556 71.364 153.131 71.0264 149.352Z" fill="black"/>
<path d="M222.488 242.609C218.099 244.357 215.654 245.392 211.819 249.057H204.452C204.619 246.471 204.594 245.621 204.452 244.593C203.079 246.629 202.367 247.299 201.15 248.065C197.58 248.153 195.579 248.131 192.005 247.569C190.557 246.449 189.888 245.797 188.956 244.593C188.39 244.995 188.167 245.335 188.702 247.073H180.828L179.403 245.945L165.078 256.746L163.691 255.741L103.603 293.206C100.681 305.401 102.83 309.85 117.32 311.063L187.178 269.608L209.992 256.07L225.153 247.073C224.18 245.899 223.357 244.523 222.488 242.609Z" fill="black"/>
<path d="M209.992 256.07L187.178 269.608L257.29 319C272.207 317.019 275.521 313.055 273.294 301.39L209.992 256.07Z" fill="black"/>
<path fill-rule="evenodd" clip-rule="evenodd" d="M319.781 153.816C319.167 167.573 318.422 175.118 313.43 187.051C311.694 183.872 310.355 182.51 307.08 181.099C305.799 192.363 305.28 198.809 296.919 205.405C289.234 212.798 284.569 216.545 274.056 220.783L273.294 218.302C265.466 225.664 260.337 229.351 251.497 233.328L281.169 267.411L393.45 201.933C397.002 196.942 396.694 193.671 393.45 187.547L351.535 146.623C345.08 143.627 341.648 143.49 335.785 145.383L319.519 151.832C319.609 152.48 319.696 153.141 319.781 153.816ZM341.12 163.985C336.134 162.939 334.663 161.562 334.261 157.785C335.781 155 336.984 153.755 341.12 153.32C345.731 154.64 346.959 156.205 347.47 160.017C346.467 162.623 345.51 163.802 341.12 163.985Z" fill="black"/>
<path d="M97.5061 84.3695C89.5153 73.0822 89.3293 66.2191 91.9175 53.6146C94.602 56.1734 96.3434 56.9975 99.7924 57.583C99.42 66.5016 99.8886 71.4998 104.873 80.4011C105.998 80.6798 106.484 80.6008 107.159 80.1531C106.394 72.5113 104.916 67.8362 110.462 62.5434C107.658 61.1717 106.802 61.7703 105.381 63.0395C105.778 60.9737 106.551 60.1732 109.191 59.5671C118.46 59.7174 121.478 60.0315 126.973 60.5592C127.678 66.157 127.622 69.7612 124.941 76.9288H118.59C120.502 79.2488 122.076 80.3726 126.973 81.6413C112.174 84.4916 104.764 87.6169 94.2037 97.7628C99.5352 97.7359 102.493 97.8146 107.667 98.2589C83.5692 114.146 78.8171 127.361 82.2644 156.792C87.0323 151.159 90.1912 148.533 96.998 145.135C87.2546 168.624 91.3902 180.035 111.986 197.964C110.618 191.547 111.987 188.747 115.288 184.075C117.79 197.914 120.905 205.019 134.594 214.582C133.272 206.893 133.391 202.699 137.389 195.732C141.03 208.037 144.6 214.362 154.663 224.255C159.253 229.829 160.688 233.254 161.267 239.88C166.442 237.793 166.627 234.112 166.348 226.983C171.774 233.097 175.029 236.127 181.59 240.128C184.298 236.578 184.382 233.098 184.384 226.735C188.084 233.04 190.275 236.542 196.577 242.113C203.635 237.705 205.45 234.234 208.009 227.727C209.956 232.733 210.618 235.641 210.549 241.121C219.065 237.669 222.147 234.833 227.061 229.463C226.724 236.08 227.372 239.577 231.379 245.089C231.716 235.661 235.455 229.675 247.637 218.302C252.66 213.887 253.795 209.862 255.004 201.933C258.666 208.828 259.309 213.128 257.29 221.775C269.84 214.758 273.946 208.365 276.85 193.252C279.391 198.742 280.288 201.796 279.645 207.141C291.002 200.738 294.255 195.231 298.697 184.571C300.529 173.616 299.498 167.771 294.632 157.785C301.099 161.43 304.884 163.945 308.35 169.938C312.956 159.708 311.313 152.926 307.842 139.679C302.642 125.358 297.339 119.295 285.233 110.66C290.122 110.145 292.851 110.299 297.681 111.9C290.529 101.979 284.346 97.3702 266.689 92.0583C271.223 90.9294 273.151 90.1405 274.056 88.0899C263.87 86.9197 259.056 84.0024 250.431 75.6887C249.36 71.5578 249.188 69.1893 250.431 64.7756C254.741 54.7154 259.521 52.538 269.229 50.3903C283.698 49.6053 289.259 51.0809 296.665 55.5988C293.388 56.3959 292.231 56.9415 291.33 58.079C301.169 66.5546 302.972 72.25 300.983 83.6255C300.536 89.6545 299.755 92.8925 295.903 98.0108C304.768 105.349 307.95 110.004 312.668 118.597L304.031 117.109C314.401 130.169 317.614 138.142 319.519 151.832M97.5061 84.3695L97.3173 84.5068M97.5061 84.3695C97.4427 84.4156 97.3798 84.4614 97.3173 84.5068M235.952 162.497C228.508 153.749 228.594 148.392 227.823 138.935C227.263 134.49 226.672 132.141 224.52 128.518C226.587 129.854 227.755 130.303 229.855 130.502C233.161 130.117 234.241 129.606 235.698 128.518C230.374 128.674 228.189 128.203 226.553 125.789C231.287 126.472 233.182 126.368 235.952 125.789C239.21 123.919 240.827 122.85 242.556 120.829C244.138 121.955 244.552 121.968 245.351 122.069C244.1 119.531 243.111 118.249 240.016 116.613C237.791 114.837 233.954 114.816 229.093 114.132C230.636 112.87 232.541 112.686 237.984 113.388C228.339 107.369 223.243 109.353 214.613 120.829C216.649 118.751 217.751 117.875 219.44 118.349C215.958 120.621 215.31 122.531 215.375 126.534C221.791 128.658 223.391 131.221 225.283 136.455C225.307 143.041 225.308 146.734 225.283 153.32C229.897 168.348 231.901 178.299 230.109 185.563C205.324 204.6 181.678 198.944 163.808 182.091C160.527 171.169 163.098 164.767 168.126 153.32C167.735 144.801 167.693 139.79 169.142 131.494C172.23 125.714 174.75 124.877 179.303 123.557C178.923 120.974 177.912 119.177 174.731 115.373C175.871 114.77 177.023 115.834 179.303 118.349C176.979 112.459 175.033 109.495 166.856 106.692C161.377 105.67 158.967 105.906 156.187 108.18C160.642 108.05 162.582 108.69 165.586 110.412C162.251 110.029 160.543 109.794 155.171 109.668C151.509 111.502 149.787 112.777 148.82 116.613C150.106 115.184 150.612 115.073 151.36 115.373C155.314 120.117 158.67 121.048 167.618 122.565C165.24 123.444 163.264 124.611 158.981 124.549C162.605 125.86 164.887 125.993 169.142 125.789C167.648 127.47 166.696 132.232 164.824 146.623C159.302 157.167 154.511 161.608 145.009 168.698C145.638 165.099 151.127 158.045 157.965 148.36C149.727 155.801 145.057 159.93 132.562 163.737C134.773 158.926 137.171 156.819 141.961 153.32C133.75 154.947 129.259 156.505 121.639 161.505C121.486 158.748 122.996 157.101 127.227 154.064C111.128 156.07 107.892 162.373 107.159 178.123C110.225 171.764 112 168.269 118.336 165.969C116.795 170.714 116.984 173.492 118.845 178.619C121.004 174.582 122.666 172.59 126.719 169.69C122.253 179.496 122.958 186.068 126.211 198.46C128.335 187.473 130.41 182.17 137.897 176.386V189.532C139.094 185.896 140.173 184.131 143.739 182.091C143.652 197.958 144.866 206.287 157.203 216.566C156.249 210.057 156.645 206.528 158.981 200.445C162.03 212.574 166.114 217.65 175.747 224.999C174.051 216.004 174.712 211.717 180.319 206.149C180.017 212.475 181.099 215.655 184.892 220.783C185.421 215.516 186.14 212.836 188.702 208.877C187.775 218.639 190.127 223.465 197.085 231.448C203.867 225.401 205.01 220.399 205.214 210.366C207.487 213.968 208.14 216.527 208.517 221.775C211.37 219.12 212.416 215.806 213.597 207.637C217.799 215.072 218.714 219.496 218.424 227.727C227.401 221.147 230.242 215.74 234.428 205.405C236.459 211.051 236.649 214.516 236.714 220.783C250.484 210.234 251.671 202.517 249.415 187.547C252.283 190.184 253.567 192.099 255.512 195.98C254.941 189.608 254.944 186.572 255.512 182.091C261.066 190.536 263.343 195.599 266.689 204.909C270.281 195.383 270.21 189.452 265.673 177.626C270.111 180.094 271.622 182.486 273.548 187.547C275.352 183.073 275.881 180.388 275.58 175.146C279.601 179.788 281.516 182.514 284.471 187.547C285.175 172.096 281.145 166.319 264.403 162.249L271.77 169.938C266.224 166.185 251.343 159.728 250.939 160.017C250.536 160.305 257.933 166.981 260.593 171.178C249.368 164.963 244.367 160.866 235.952 153.32C243.541 163.419 247.239 168.764 247.891 174.898M235.952 162.497C240.614 167.34 243.228 170.055 247.891 174.898M235.952 162.497L247.891 174.898M167.618 104.707C167.858 104.721 168.093 104.736 168.325 104.751M179.303 114.628C179.337 114.461 179.371 114.296 179.403 114.132M167.364 104.459C167.695 104.556 168.015 104.653 168.325 104.751M179.403 114.132C180.498 108.59 180.438 105.552 168.325 104.751M179.403 114.132C177.007 109.4 175.15 106.905 168.325 104.751M214.105 117.357C215.283 109.501 217.39 107.274 226.553 108.18C218.834 110.03 217.208 112.549 214.141 117.301M214.105 117.357L214.141 117.301M214.105 117.357C214.117 117.338 214.129 117.32 214.141 117.301M131.546 53.6146C131.472 54.5117 131.43 55.3299 131.431 56.0948M131.546 53.6146C134.598 53.2875 137.558 52.9915 140.437 52.7263M131.546 53.6146C132.919 53.4674 134.274 53.3265 135.61 53.1919M131.499 57.583C131.739 60.1306 130.121 63.6958 132.308 66.5118C128.355 70.7908 130.376 72.5216 129.768 78.417C139.71 77.2842 148.535 76.5149 156.529 76.0489M131.499 57.583C119.823 57.6314 113.27 57.0694 101.571 55.1027C98.666 54.7194 97.6904 54.0706 97.5061 51.8784L89.3772 50.8863C82.8231 49.6832 75.9137 46.9179 75.9137 42.9496C75.9137 38.9812 82.1111 35.1254 85.5667 30.7964C84.8144 28.5889 85.0662 27.5933 85.5667 25.8359C98.499 15.9749 111.01 10.5425 135.356 6.24204C161.741 2.79312 176.536 1.82221 202.928 2.02564C232.642 6.2127 249.119 8.70636 273.802 16.9071C293.128 29.922 293.624 36.6347 282.185 47.91L280.153 47.166C286.808 41.7015 288.256 38.0017 285.995 30.0523C282.407 23.4141 278.769 20.5779 269.738 16.9071C244.586 10.0412 229.756 7.16902 201.658 4.25786C174.27 4.22985 159.056 4.40764 134.848 8.72229C117.825 12.0622 108.273 13.6084 91.4094 23.6037C88.403 24.4772 87.285 25.5101 87.853 29.8043C87.0452 32.8793 86.3769 34.7377 79.7241 41.4614C77.8434 44.9241 84.8047 49.1502 89.8852 49.1502C94.9658 49.1502 95.4549 50.4502 98.5222 50.3903C98.5126 51.5625 98.9228 52.1646 100.554 53.1185C112.614 55.5354 119.375 56.3712 131.431 56.0948M131.499 57.583C131.454 57.106 131.432 56.6127 131.431 56.0948M135.61 53.1919C133.943 48.4904 130.956 46.4076 125.703 44.4377C103.287 40.7738 98.6521 36.5389 91.9175 28.5642C104.548 39.0617 113.68 41.4874 130.784 44.4377C135.547 46.987 137.433 48.9593 140.437 52.7263M135.61 53.1919C137.245 53.0274 138.853 52.8722 140.437 52.7263M140.437 52.7263C149.117 51.9268 157.062 51.4073 164.57 51.1577M164.57 51.1577C161.541 46.9729 160.482 44.3957 159.489 39.4772C158.399 33.1454 157.711 29.6047 155.933 23.3557C153.703 19.4046 151.924 16.7143 147.042 12.1946M164.57 51.1577C166.198 51.1036 167.806 51.0622 169.396 51.0334M147.042 12.1946C151.208 15.8753 153.544 17.9389 157.711 21.6195M147.042 12.1946L157.711 21.6195M157.711 21.6195C160.631 28.6431 161.544 32.5492 162.283 39.4772C163.691 44.181 165.55 46.6692 169.396 51.0334M169.396 51.0334C176.463 50.9053 183.184 51.026 189.826 51.3867M206.484 52.7898C208 52.9607 209.523 53.1436 211.057 53.3383M206.484 52.7898C200.882 52.1577 195.382 51.6883 189.826 51.3867M206.484 52.7898C206.552 52.5004 206.616 52.2198 206.678 51.9464M211.057 53.3383C213.877 53.6963 216.733 54.0942 219.644 54.5314M211.057 53.3383C211.068 53.0554 211.077 52.7791 211.086 52.5081M239.508 57.9145C241.051 52.049 241.728 51.7372 243.065 49.1502C255.015 38.5594 259.916 33.2284 269.738 23.3557L245.605 49.1502C244.305 53.4414 243.891 55.6788 244.566 58.7743M239.508 57.9145C241.175 58.2254 242.868 58.5463 244.589 58.8772M239.508 57.9145C232.499 56.6073 225.943 55.4774 219.644 54.5314M244.589 58.8772C244.72 58.9025 244.708 58.8942 244.585 58.8596M244.589 58.8772C244.587 58.8714 244.586 58.8655 244.585 58.8596M214.613 155.056C214.352 152.688 211.76 149.064 206.484 146.623C197.486 141.805 183.814 144.607 179.403 152.824C183.925 150.49 186.462 150.502 190.989 151.336C193.972 153.534 194.566 154.901 194.037 157.537C192.296 161.647 190.005 162.113 184.892 161.505C187.348 159.721 187.812 158.692 186.67 156.792C185.102 156.181 184.276 156.116 182.86 156.296C180.18 159.168 180.374 161.235 181.844 165.225C185.384 168.534 187.717 169.81 193.021 170.186C195.8 168.828 196.556 167.677 197.085 165.225C197.84 167.674 198.392 168.896 200.134 170.186C206.651 170.616 209.18 169.147 212.835 165.225C213.496 161.936 212.941 160.445 211.311 158.033C209.651 157.041 208.707 156.888 206.992 157.537C206.687 159.783 207.171 160.858 209.025 162.497C204.176 163.342 202.041 162.351 200.134 158.033C199.091 153.441 200.927 152.357 206.484 151.832C210.583 152.247 212.175 153.124 214.613 155.056ZM214.613 155.056L219.44 155.8M219.44 155.8C218.554 149.849 217.246 146.316 209.533 141.911C201.076 138.972 195.32 138.434 184.384 140.919C178.686 142.068 177.026 144.761 174.731 149.352C171.88 158.104 172.966 162.159 180.319 170.186C187.107 174.758 191.713 175.185 200.134 175.394C207.132 175.24 210.41 173.573 215.883 169.69C219.379 166.195 219.998 163.004 219.44 155.8ZM97.3173 84.5068C93.39 87.3621 91.1305 89.0048 87.0909 92.5543C82.5995 96.614 81.4031 98.7041 78.962 102.475C84.4164 101.705 85.6991 102.174 87.0909 103.467C77.3979 115.281 73.8869 122.519 70.8331 136.455C70.6483 141.38 70.6865 145.546 71.0264 149.352M156.529 76.0489C149.064 76.063 141.068 76.1904 132.308 76.4328C132.38 72.5485 132.658 70.4482 135.61 67.5039C134.119 62.9075 133.403 60.3546 133.578 56.0948L134.848 54.6067C160.648 52.4422 177.825 51.5122 189.826 51.3867M156.529 76.0489C180.724 76.0032 199.347 77.1483 220.374 79.4307M156.529 76.0489C183.653 74.4677 201.205 76.3787 220.374 79.4307M189.826 51.3867C197.081 51.3108 202.445 51.5291 206.678 51.9464M220.374 79.4307C229.602 80.9 239.205 82.6338 250.431 84.3695V83.1294C239.478 81.6764 229.69 80.4419 220.374 79.4307ZM219.644 54.5314C224.249 55.9397 228.565 57.5715 236.999 58.8772C253.53 61.4367 249.962 60.1721 244.566 58.7743M219.644 54.5314C217.12 53.7597 214.509 53.0551 211.086 52.5081M244.566 58.7743C244.572 58.8027 244.578 58.8311 244.585 58.8596M244.566 58.7743C241.045 57.862 236.745 56.893 236.745 56.893C235.68 56.6848 243.609 58.5871 244.585 58.8596M206.678 51.9464C207.471 48.4374 207.822 46.118 207.755 41.7094C210.724 38.8126 211.903 36.9084 213.597 33.2766L221.726 12.1946C218.68 21.0411 216.506 26.0275 215.375 34.7648C214.049 37.7313 213.442 39.4906 211.057 41.7094C211.174 46.4045 211.202 49.014 211.086 52.5081M206.678 51.9464C208.299 52.1062 209.754 52.2952 211.086 52.5081M71.0264 149.352L39.0795 127.526C32.9375 127.106 32.5989 128.668 32.4747 131.99L73.0087 160.017M71.0264 149.352C71.364 153.131 71.9991 156.556 73.0087 160.017M73.0087 160.017C74.0625 163.629 75.5242 167.281 77.4815 171.419M86.2279 177.626C90.924 194.677 99.464 203.464 120.115 213.094C118.784 211.538 118.627 210.755 120.115 209.621C128.103 218.966 133.19 223.644 145.263 229.215V224.255C151.383 231.1 154.117 235.397 155.171 245.585L165.586 245.833C167.986 243.541 169.256 242.173 171.428 239.632L179.403 245.945M86.2279 177.626C85.3936 174.597 84.6806 171.307 84.0426 167.706C81.789 168.703 80.5105 169.661 78.6593 172.255M86.2279 177.626L78.6593 172.255M179.403 245.945L180.828 247.073H188.702C188.167 245.335 188.39 244.995 188.956 244.593C189.888 245.797 190.557 246.449 192.005 247.569C195.579 248.131 197.58 248.153 201.15 248.065C202.367 247.299 203.079 246.629 204.452 244.593C204.594 245.621 204.619 246.471 204.452 249.057H211.819C215.654 245.392 218.099 244.357 222.488 242.609C223.357 244.523 224.18 245.899 225.153 247.073M179.403 245.945L165.078 256.746L163.691 255.741M179.403 245.945L163.691 255.741M78.6593 172.255C78.5102 172.464 78.3573 172.683 78.1999 172.914C77.9534 172.408 77.7139 171.91 77.4815 171.419M78.6593 172.255L77.4815 171.419M77.4815 171.419L28.9183 136.951C24.1642 136.377 23.1949 137.711 23.3297 141.911L82.2644 184.075C82.174 185.988 81.4344 186.804 78.1999 187.547L18.5032 146.127C14.4251 145.66 13.2715 146.583 14.1847 151.336L73.0087 192.012C71.6628 195.08 70.4097 196.351 65.2444 195.98L10.8823 157.537C7.01398 157.7 4.92316 157.872 6.56382 163.737L65.2444 201.933C70.1971 204.828 73.1464 206.167 78.962 207.637C85.2374 207.697 88.5786 207.207 94.2037 205.405L163.691 255.741M225.153 247.073C226.26 248.41 227.562 249.484 229.347 250.793H237.222C237.711 240.962 241.019 236.969 247.637 230.208C248.433 231.603 248.717 232.499 248.399 234.672C249.484 234.217 250.513 233.771 251.497 233.328M225.153 247.073L209.992 256.07M163.691 255.741L103.603 293.206C100.681 305.401 102.83 309.85 117.32 311.063L187.178 269.608M187.178 269.608L257.29 319C272.207 317.019 275.521 313.055 273.294 301.39L209.992 256.07M187.178 269.608L209.992 256.07M209.533 255.741L209.992 256.07M250.939 232.688L251.497 233.328M319.519 151.832C319.609 152.48 319.696 153.141 319.781 153.816C319.167 167.573 318.422 175.118 313.43 187.051C311.694 183.872 310.355 182.51 307.08 181.099C305.799 192.363 305.28 198.809 296.919 205.405C289.234 212.798 284.569 216.545 274.056 220.783L273.294 218.302C265.466 225.664 260.337 229.351 251.497 233.328M319.519 151.832L335.785 145.383C341.648 143.49 345.08 143.627 351.535 146.623L393.45 187.547C396.694 193.671 397.002 196.942 393.45 201.933L281.169 267.411L251.497 233.328M121.131 122.565C113.74 126.578 110.283 129.253 110.462 137.943C114.234 134.426 116.853 133.24 122.401 132.486C116.9 137.837 116.213 140.82 116.558 146.127C125.964 140.901 131.931 138.841 143.993 136.951C148.615 134.161 149.996 132.058 152.376 128.27C144.209 133.14 138.884 134.993 126.973 135.462C130.361 132.506 132.529 130.816 136.627 127.774C128.418 127.586 124.204 128.162 117.574 130.75C116.78 128.221 118.165 126.244 121.131 122.565ZM257.036 74.6966C253.422 73.6348 252.361 72.1644 252.718 67.5039C253.264 60.5365 255.859 58.2503 261.101 54.6067C260.302 57.3046 260.328 58.7108 261.101 61.0553C268.991 52.6882 273.737 53.761 282.185 55.3507C280.685 57.1197 279.837 57.8186 277.612 58.327C286.229 60.5757 292.201 59.9162 292.346 76.4328C293.355 84.1851 291.998 87.8677 286.249 93.2984C287.561 85.6001 288.092 81.3195 283.201 74.6966C285.296 74.1454 286.24 74.5314 287.52 76.4328C285.49 72.3964 283.961 70.6844 279.391 70.2322C282.363 69.1695 284.095 69.6125 287.266 71.7203C285.472 67.507 283.836 65.4963 275.326 65.0237C269.208 64.8425 265.716 64.496 261.609 72.2164C259.762 70.9211 259.216 70.0926 258.814 68.496C257.079 70.8733 256.627 72.2281 257.036 74.6966ZM240.524 133.23C245.594 141.421 250.653 144.308 261.101 148.36C269.018 150.526 272.288 152.379 276.088 156.792C277.664 151.083 276.095 147.632 270.246 141.167C275.616 143.494 278.329 145.034 282.439 148.36C283.319 141.249 279.857 137.825 271.77 131.99C274.458 135.375 275.861 137.257 275.58 140.175C271.122 139.201 266.798 137.975 257.544 135.214C259.989 140.157 261.927 141.796 265.673 144.143C255.443 142.739 249.92 140.463 240.524 133.23ZM163.046 81.6413C174.004 86.055 179.771 88.7498 186.67 95.5306L185.146 89.8261C188.205 91.9409 189.842 93.5086 192.513 97.5148C192.999 95.0208 192.944 93.3795 192.005 89.8261C194.719 92.2691 195.677 93.8611 196.577 97.0187C198.641 92.6133 200.128 91.4078 202.928 89.8261C203.096 91.7094 202.537 93.5251 200.896 97.5148C203.988 94.5155 205.778 93.0447 209.279 91.5622L207.755 97.0187C216.158 90.3227 221.411 88.3631 231.379 86.8498L215.883 88.5859C216.374 86.7372 217.721 85.4671 220.456 83.1294L209.279 87.8419C208.762 85.2853 209.745 83.7288 212.073 80.8972C208.472 80.4479 206.091 81.0974 200.896 84.6176C200.851 85.7013 200.57 86.2981 199.626 87.3458C199.021 86.5653 198.682 86.1279 198.61 85.6096C198.23 86.527 197.957 87.0286 197.085 87.8419C194.881 83.6947 192.579 82.6065 188.702 80.4011C185.471 80.3609 184.339 80.4772 183.368 80.8972C185 83.2103 185.626 84.398 185.654 86.1057C181.985 84.3936 179.644 82.9526 174.731 80.4011C177.19 82.9179 178.283 84.2442 178.541 86.1057C172.445 84.9285 169.066 83.786 163.046 81.6413ZM135.864 56.0948C136.968 57.2552 137.804 58.0549 139.421 59.5671C141.585 56.9553 143.425 56.9101 147.042 57.583C186.998 53.7837 208.297 59.6138 246.875 65.7678V64.7756C204.431 57.8028 181.041 52.2947 135.864 56.0948ZM184.892 181.347C186.162 180.603 183.61 179.75 182.352 179.859C178.39 181.427 178.496 183.36 180.319 187.547L181.844 185.563C196.717 188.481 204.326 188.006 215.883 181.347L218.17 184.571C218.959 181.428 218.535 179.648 213.597 176.386C212.461 176.918 211.848 177.249 211.311 178.619L213.597 179.859C208.118 184.742 188.258 186.669 184.384 183.579C184.069 183.328 183.622 182.091 184.892 181.347ZM222.488 123.309C223.061 121.684 223.889 121.032 225.791 120.085C225.583 122.031 226.097 122.751 227.823 123.557C225.737 124.074 224.569 124.051 222.488 123.309ZM229.093 119.837C228.758 118.801 228.804 118.335 229.601 117.853C233.707 117.303 235.731 117.432 238.746 118.597C237.824 121.358 236.794 122.585 233.411 123.805C234.659 119.87 233.771 118.955 229.093 119.837ZM155.171 112.892C153.95 113.541 157.667 117.676 160.505 119.093C160.618 117.129 160.031 116.031 160.505 114.876C162.156 115.513 163.098 115.666 164.824 115.373C165.231 115.011 165.271 114.733 165.078 114.132C162.078 112.995 160.433 112.624 155.171 112.892ZM166.348 120.085C165.078 120.085 168.888 117.853 168.126 116.365C167.364 114.876 172.445 118.349 172.191 119.589C170.273 120.245 166.348 120.085 166.348 120.085ZM334.261 157.785C334.663 161.562 336.134 162.939 341.12 163.985C345.51 163.802 346.467 162.623 347.47 160.017C346.959 156.205 345.731 154.64 341.12 153.32C336.984 153.755 335.781 155 334.261 157.785Z" stroke="black" stroke-width="0.5"/>
</g>
<defs>
<filter id="filter0_d_122_12" x="0.75" y="0.75" width="400.5" height="327.511" filterUnits="userSpaceOnUse" color-interpolation-filters="sRGB">
<feFlood flood-opacity="0" result="BackgroundImageFix"/>
<feColorMatrix in="SourceAlpha" type="matrix" values="0 0 0 0 0 0 0 0 0 0 0 0 0 0 0 0 0 0 127 0" result="hardAlpha"/>
<feOffset dy="4"/>
<feGaussianBlur stdDeviation="2.5"/>
<feComposite in2="hardAlpha" operator="out"/>
<feColorMatrix type="matrix" values="0 0 0 0 0.737255 0 0 0 0 0.51451 0 0 0 0 0.180392 0 0 0 0.43 0"/>
<feBlend mode="normal" in2="BackgroundImageFix" result="effect1_dropShadow_122_12"/>
<feBlend mode="normal" in="SourceGraphic" in2="effect1_dropShadow_122_12" result="shape"/>
</filter>
</defs>
</svg>
