<svg width="901" height="746" viewBox="0 0 901 746" fill="none" xmlns="http://www.w3.org/2000/svg">
<g opacity="0.4" filter="url(#filter0_d_136_897)">
<path d="M401.27 351.227C411.324 332.201 442.489 325.713 463.002 336.87C475.026 342.521 480.936 350.912 481.531 356.395L492.533 358.118C490.514 344.339 487.532 336.157 469.95 325.958C450.674 319.152 437.551 317.907 412.624 323.661C399.635 326.321 395.852 332.556 390.62 343.187C384.121 363.452 386.597 372.841 403.359 391.427C418.832 402.013 429.33 403.002 448.525 403.487C464.478 403.129 471.949 399.27 484.427 390.278C492.395 382.188 493.806 374.798 492.533 358.118L481.531 356.395C475.974 351.921 472.344 349.89 463.002 348.93C450.332 350.146 446.149 352.655 448.525 363.287C452.874 373.286 457.739 375.58 468.792 373.624C464.566 369.829 463.463 367.34 464.16 362.138C468.069 360.637 470.221 360.991 474.004 363.287C477.72 368.874 478.984 372.324 477.478 379.941C469.146 389.022 463.38 392.424 448.525 391.427C444.556 388.44 443.297 385.612 441.577 379.941C440.371 385.617 438.648 388.283 432.312 391.427C420.221 390.557 414.904 387.602 406.833 379.941C403.483 370.703 403.041 365.917 409.149 359.267C412.379 358.85 414.262 359 417.835 360.415C420.439 364.813 419.381 367.196 413.782 371.327C425.438 372.734 430.659 371.656 434.628 362.138C435.833 356.035 434.479 352.87 427.679 347.781C417.361 345.85 411.577 345.823 401.27 351.227Z" fill="white" fill-opacity="0.01" shape-rendering="crispEdges"/>
<path fill-rule="evenodd" clip-rule="evenodd" d="M595.026 373.05C633.189 382.473 642.375 395.85 640.772 431.627C634.036 419.974 629.67 413.66 620.505 402.913C621.19 415.05 619.985 421.266 615.872 431.627C611.482 419.908 608.037 414.37 597.921 408.656C608.263 436.038 608.424 449.77 600.238 471.827C592.61 450.271 587.419 438.548 574.759 418.993C573.464 429.368 573.457 436.399 574.759 451.153C570.325 442.166 567.398 437.731 560.862 431.627C566.003 466.289 563.298 484.157 531.909 508.582C531.761 494.072 531.328 486.049 526.698 472.976C517.156 496.905 510.681 509.426 490.217 524.662C490.879 505.602 488.794 495.358 479.215 478.144C476.523 497.059 474.138 504.732 467.634 510.879C466.775 498.728 465.287 492.803 460.106 484.462C459.642 507.694 457.036 519.276 441.577 533.276C425.714 514.792 420.354 503.619 422.468 481.016C416.627 490.181 414.987 496.388 413.782 508.582C405.136 496.71 402.67 489.346 403.359 474.699C390.577 487.591 389.07 497.517 392.936 518.345C370.978 501.328 361.668 489.575 354.718 461.49C349.393 475.575 348.492 483.746 350.665 498.819C322.543 475.017 319.776 455.733 319.975 418.993C311.845 423.717 309.386 427.802 306.657 436.221V405.784C289.591 419.176 284.862 431.454 280.02 456.896C272.603 428.203 270.997 412.984 281.178 390.278C271.938 396.993 268.15 401.607 263.228 410.953C258.987 399.084 258.555 392.65 262.069 381.664C247.626 386.989 243.58 395.082 236.591 409.804C238.262 373.337 245.638 358.742 282.336 354.098C272.69 361.129 269.248 364.944 269.597 371.327C286.967 359.749 297.204 356.142 315.922 352.375C305.003 360.476 299.536 365.356 294.497 376.495C322.979 367.68 333.623 358.12 352.402 340.89C336.816 363.316 324.303 379.648 322.87 387.981C344.529 371.565 355.449 361.283 368.037 336.87C372.305 303.547 374.473 292.52 377.881 288.629C368.181 289.1 362.978 288.792 354.718 285.758C364.482 285.901 368.986 283.198 374.406 281.164C354.009 277.652 346.359 275.494 337.347 264.509C335.642 263.815 334.488 264.072 331.556 267.381C333.761 258.499 337.685 255.548 346.033 251.301C358.279 251.593 362.171 252.137 369.774 253.023C362.926 249.035 358.505 247.554 348.349 247.855C354.686 242.591 360.179 242.044 372.669 244.409C391.308 250.901 395.744 257.762 401.043 271.401C395.846 265.579 393.22 263.113 390.62 264.509C397.87 273.319 400.177 277.478 401.043 283.461C390.664 286.516 384.919 288.455 377.881 301.838C374.576 321.046 374.673 332.65 375.564 352.375C364.104 378.879 358.243 393.703 365.72 418.993C406.455 458.015 460.357 471.111 516.854 427.033C520.938 410.212 516.37 387.171 505.852 352.375C505.91 337.125 505.907 328.574 505.852 313.324C501.541 301.206 497.894 295.27 483.269 290.352C483.12 281.085 484.597 276.662 492.533 271.401C488.684 270.304 486.172 272.333 481.531 277.144C501.202 250.571 512.82 245.978 534.804 259.915C522.398 258.288 518.054 258.714 514.538 261.638C525.619 263.22 534.364 263.269 539.437 267.381C546.492 271.17 548.747 274.138 551.597 280.015C549.776 279.78 548.832 279.751 545.227 277.144C541.284 281.824 537.598 284.299 530.172 288.629C523.858 289.968 519.538 290.21 508.747 288.629C512.476 294.218 517.457 295.307 529.593 294.946C526.273 297.467 523.812 298.648 516.275 299.541C511.487 299.081 508.826 298.04 504.115 294.946C509.019 303.337 510.365 308.776 511.642 319.067C513.399 340.965 513.204 353.369 530.172 373.624L557.388 402.338C555.902 388.134 547.472 375.76 530.172 352.375C549.355 369.848 560.755 379.334 586.34 393.724C580.279 384.006 563.417 368.549 564.336 367.881C565.255 367.213 599.177 382.162 611.819 390.853L595.026 373.05ZM507.01 275.421C502.675 277.613 500.788 279.123 499.482 282.886C504.226 284.605 506.888 284.658 511.642 283.461C507.708 281.594 506.536 279.927 507.01 275.421ZM515.696 270.252C513.88 271.369 513.773 272.448 514.538 274.846C525.201 272.804 527.225 274.924 524.381 284.035C532.093 281.21 534.439 278.368 536.542 271.975C529.669 269.278 525.055 268.98 515.696 270.252ZM358.193 273.124C351.723 269.843 343.251 260.268 346.033 258.766C358.028 258.144 361.778 259.003 368.616 261.638C369.057 263.03 368.965 263.672 368.037 264.509C364.103 265.189 361.955 264.835 358.193 263.361C357.111 266.033 358.449 268.577 358.193 273.124ZM375.564 266.806C377.301 270.252 368.616 275.421 371.511 275.421C371.511 275.421 380.459 275.792 384.829 274.272C385.408 271.401 373.827 263.361 375.564 266.806Z" fill="white" fill-opacity="0.01" shape-rendering="crispEdges"/>
<path d="M540.595 305.858C552.152 324.824 563.684 331.507 587.498 340.89C605.546 345.905 613 350.196 621.663 360.415C625.255 347.196 621.678 339.206 608.344 324.235C620.586 329.623 626.771 333.189 636.139 340.89C638.145 324.426 630.254 316.497 611.819 302.987C617.946 310.825 621.144 315.182 620.505 321.938C610.342 319.683 600.487 316.845 579.392 310.452C584.964 321.898 589.383 325.692 597.921 331.127C574.602 327.876 562.013 322.605 540.595 305.858Z" fill="white" fill-opacity="0.01" shape-rendering="crispEdges"/>
<path fill-rule="evenodd" clip-rule="evenodd" d="M214.587 192.723C196.372 166.588 195.948 150.697 201.848 121.511C207.967 127.436 211.937 129.344 219.798 130.7C218.95 151.351 220.018 162.924 231.38 183.534C233.945 184.18 235.051 183.997 236.591 182.96C234.847 165.266 231.478 154.441 244.119 142.186C237.727 139.01 235.777 140.395 232.538 143.334C233.444 138.551 235.205 136.698 241.224 135.294C262.352 135.642 269.232 136.369 281.757 137.591C283.363 150.553 283.235 158.898 277.125 175.494H262.649C267.005 180.866 270.594 183.468 281.757 186.406C248.023 193.006 231.132 200.242 207.059 223.735C219.212 223.672 225.954 223.855 237.749 224.883C182.818 261.67 171.986 292.267 179.844 360.415C190.712 347.371 197.913 341.291 213.429 333.424C191.219 387.811 200.646 414.232 247.593 455.747C244.475 440.888 247.595 434.405 255.121 423.587C260.824 455.631 267.924 472.082 299.129 494.225C296.114 476.421 296.385 466.71 305.499 450.579C313.8 479.07 321.936 493.715 344.874 516.622C355.339 529.528 358.608 537.459 359.93 552.802C371.725 547.969 372.146 539.444 371.511 522.939C383.88 537.094 391.3 544.111 406.254 553.376C412.427 545.156 412.62 537.097 412.624 522.365C421.058 536.963 426.053 545.071 440.418 557.971C456.507 547.764 460.645 539.728 466.476 524.662C470.916 536.252 472.424 542.985 472.267 555.673C491.68 547.682 498.705 541.115 509.905 528.682C509.138 544.002 510.614 552.099 519.749 564.862C520.516 543.032 529.041 529.172 556.809 502.839C568.259 492.615 570.844 483.295 573.601 464.936C581.948 480.901 583.415 490.859 578.813 510.879C607.42 494.633 616.78 479.829 623.4 444.836C629.19 457.548 631.237 464.62 629.769 476.996C655.658 462.17 663.073 449.418 673.199 424.736C677.375 399.369 675.025 385.836 663.934 362.712C678.674 371.153 687.302 376.977 695.203 390.853C705.703 367.166 701.957 351.464 694.045 320.789C682.191 287.63 670.104 273.591 642.509 253.598C653.653 252.405 659.873 252.761 670.882 256.469C654.58 233.497 640.485 222.826 600.238 210.526C610.573 207.912 614.968 206.086 617.03 201.337C593.812 198.628 582.838 191.873 563.178 172.623C560.736 163.058 560.343 157.574 563.178 147.354C573.003 124.06 583.897 119.018 606.028 114.046C639.01 112.228 651.685 115.645 668.566 126.106C661.098 127.951 658.459 129.215 656.406 131.849C678.833 151.473 682.943 164.661 678.41 191C677.392 204.96 675.61 212.458 666.829 224.309C687.037 241.301 694.291 252.079 705.047 271.975L685.359 268.529C708.995 298.769 716.32 317.23 720.662 348.93C720.868 350.43 721.067 351.961 721.26 353.524C719.861 385.376 718.162 402.848 706.784 430.478C702.825 423.116 699.772 419.962 692.307 416.695C689.387 442.776 688.205 457.704 669.145 472.976C651.628 490.093 640.995 498.77 617.03 508.582L615.293 502.839C597.45 519.884 585.758 528.422 565.607 537.63C563.365 538.655 561.018 539.688 558.546 540.742C559.27 535.711 558.623 533.637 556.809 530.405C541.724 546.062 534.183 555.306 533.067 578.071H515.117C511.048 575.039 508.08 572.551 505.556 569.456C503.338 566.738 501.462 563.552 499.482 559.119C489.478 563.168 483.904 565.563 475.162 574.051H458.369C458.749 568.062 458.692 566.093 458.369 563.713C455.238 568.428 453.615 569.98 450.841 571.753C442.705 571.957 438.142 571.907 429.996 570.605C426.695 568.011 425.171 566.502 423.047 563.713C421.755 564.644 421.247 565.431 422.468 569.456H404.517L401.27 566.845L383.092 552.228C378.139 558.111 375.245 561.279 369.774 566.585L346.033 566.011C343.631 542.421 337.4 532.47 323.449 516.622V528.108C295.928 515.207 284.333 504.376 266.123 482.739C262.732 485.363 263.089 487.177 266.123 490.779C219.05 468.482 199.583 448.136 188.878 408.656C186.977 401.642 185.351 394.024 183.897 385.684C178.76 387.993 175.846 390.213 171.626 396.217C171.286 396.701 170.938 397.209 170.579 397.744C170.017 396.573 169.471 395.419 168.941 394.282C164.48 384.702 161.148 376.245 158.746 367.881C156.444 359.867 154.996 351.938 154.227 343.187C153.452 334.375 153.365 324.729 153.786 313.324C160.747 281.057 168.751 264.298 190.846 236.943C187.673 233.95 184.749 232.862 172.316 234.646C177.88 225.914 180.607 221.075 190.846 211.675C200.054 203.456 205.204 199.652 214.157 193.041L214.587 192.723ZM568.39 153.672C567.577 164.463 569.995 167.867 578.234 170.326C577.3 164.61 578.33 161.473 582.287 155.969C583.203 159.665 584.447 161.584 588.657 164.583C598.019 146.707 605.98 147.509 619.925 147.929C639.323 149.023 643.053 153.679 647.141 163.434C639.913 158.554 635.966 157.528 629.19 159.989C639.61 161.036 643.094 165 647.72 174.346C644.802 169.943 642.652 169.05 637.876 170.326C649.025 185.661 647.816 195.572 644.825 213.397C657.928 200.823 661.022 192.296 658.722 174.346C658.39 136.102 644.779 137.629 625.137 132.423C630.208 131.246 632.141 129.627 635.56 125.531C616.304 121.85 605.485 119.366 587.498 138.74C585.738 133.311 585.677 130.056 587.498 123.809C575.551 132.245 569.635 137.539 568.39 153.672Z" fill="white" fill-opacity="0.01" shape-rendering="crispEdges"/>
<path d="M480.373 269.103C483.058 250.913 487.862 245.757 508.747 247.855C491.152 252.138 487.447 257.971 480.455 268.975L480.373 269.103Z" fill="white" fill-opacity="0.01" shape-rendering="crispEdges"/>
<path d="M376.017 239.915C403.629 241.77 403.766 248.805 401.27 261.638C395.808 250.679 391.575 244.904 376.017 239.915Z" fill="white" fill-opacity="0.01" shape-rendering="crispEdges"/>
<path d="M363.983 186.406C388.964 196.626 402.108 202.865 417.835 218.566L414.361 205.357C421.334 210.254 425.065 213.884 431.154 223.16C432.261 217.386 432.137 213.585 429.996 205.357C436.182 211.014 438.366 214.7 440.418 222.012C445.122 211.811 448.511 209.02 454.895 205.357C455.278 209.718 454.004 213.923 450.262 223.16C457.311 216.216 461.392 212.81 469.371 209.377L465.897 222.012C485.051 206.507 497.026 201.97 519.749 198.466L484.427 202.486C485.546 198.205 488.616 195.265 494.85 189.852L469.371 200.763C468.194 194.844 470.435 191.24 475.741 184.683C467.532 183.643 462.104 185.147 450.262 193.297C450.161 195.807 449.52 197.189 447.367 199.615C445.988 197.807 445.216 196.795 445.051 195.595C444.186 197.719 443.564 198.88 441.577 200.763C436.551 191.161 431.305 188.641 422.468 183.535C415.102 183.441 412.522 183.711 410.308 184.683C414.027 190.039 415.454 192.789 415.519 196.743C407.157 192.779 401.819 189.442 390.62 183.535C396.224 189.362 398.718 192.433 399.306 196.743C385.41 194.017 377.706 191.372 363.983 186.406Z" fill="white" fill-opacity="0.01" shape-rendering="crispEdges"/>
<path d="M355.876 88.7769C358.14 100.165 360.553 106.133 367.458 115.823C371.169 115.697 374.834 115.601 378.46 115.535C369.693 105.43 365.454 99.6683 362.246 88.7769C360.559 72.7354 358.48 63.6909 351.823 47.4282L327.503 25.6052C338.632 36.0704 342.687 42.2995 347.77 51.4482C351.823 65.9176 353.392 74.1159 355.876 88.7769Z" fill="white" fill-opacity="0.01" shape-rendering="crispEdges"/>
<path d="M465.897 93.9455C466.05 104.153 465.25 109.524 463.442 117.649C463.302 118.282 463.155 118.931 463.002 119.601C466.457 119.997 469.929 120.421 473.425 120.872C473.449 120.216 473.471 119.577 473.492 118.949C473.756 110.859 473.692 104.817 473.425 93.9455C478.861 88.8078 480.246 84.7344 483.269 77.8654C485.846 57.6345 490.801 46.0888 497.745 25.6052L479.215 74.4197C475.353 82.8289 472.667 87.238 465.897 93.9455Z" fill="white" fill-opacity="0.01" shape-rendering="crispEdges"/>
<path d="M546.386 111.174C543.339 117.164 541.795 117.886 538.279 131.468C542.079 132.187 545.937 132.931 549.86 133.697C549.857 133.683 549.854 133.67 549.851 133.656C549.836 133.59 549.822 133.524 549.808 133.458C548.27 126.291 549.213 121.11 552.176 111.174L607.186 51.4482C584.798 74.3081 573.626 86.6518 546.386 111.174Z" fill="white" fill-opacity="0.01" shape-rendering="crispEdges"/>
<path d="M278.862 100.263C290.835 104.824 297.645 109.647 301.445 120.533C305.171 120.152 308.837 119.792 312.447 119.455C305.6 110.732 301.301 106.166 290.443 100.263C251.455 93.4313 230.638 87.8149 201.848 63.5082C217.199 81.9734 227.765 91.7792 278.862 100.263Z" fill="white" fill-opacity="0.01" shape-rendering="crispEdges"/>
<path d="M223.852 124.957C250.52 129.511 265.458 130.812 292.072 130.7C291.97 129.596 291.922 128.453 291.919 127.254C264.438 127.894 249.026 125.959 221.536 120.363C217.816 118.154 216.881 116.76 216.903 114.046C209.911 114.184 208.796 111.174 197.215 111.174C185.634 111.174 169.766 101.389 174.053 93.3712C189.218 77.8028 190.742 73.4996 192.583 66.3797C191.288 56.4367 193.837 54.045 200.69 52.0225C239.129 28.8787 260.903 25.2985 299.708 17.5652C354.889 7.57478 389.569 7.16311 452 7.22797C516.05 13.9686 549.854 20.6189 607.186 36.5167C627.774 45.0162 636.065 51.5834 644.246 66.954C649.398 85.3604 646.098 93.9272 630.928 106.58L635.56 108.303C661.636 82.1952 660.504 66.6523 616.451 36.5167C560.186 17.5283 522.628 11.7543 454.895 2.05937C394.734 1.58833 361.01 3.83644 300.866 11.8223C245.369 21.7797 216.85 34.3582 187.371 57.1911C186.23 61.2601 185.656 63.5655 187.371 68.6768C179.494 78.7005 165.367 87.6283 165.367 96.817C165.367 106.006 181.117 112.408 196.057 115.194L214.587 117.491C215.007 122.567 217.231 124.07 223.852 124.957Z" fill="white" fill-opacity="0.01" shape-rendering="crispEdges"/>
<path d="M268.439 281.164C251.591 290.456 243.712 296.649 244.119 316.769C252.717 308.628 258.687 305.881 271.334 304.135C258.794 316.526 257.229 323.431 258.016 335.721C279.457 323.618 293.058 318.849 320.554 314.472C331.09 308.014 334.237 303.144 339.663 294.372C321.046 305.65 308.906 309.941 281.757 311.027C289.479 304.181 294.42 300.268 303.761 293.224C285.051 292.788 275.445 294.122 260.332 300.115C258.521 294.26 261.678 289.681 268.439 281.164Z" fill="white" fill-opacity="0.01" shape-rendering="crispEdges"/>
<path d="M302.024 127.254C304.539 129.941 306.445 131.793 310.131 135.294C315.064 129.247 319.259 129.142 327.503 130.7C418.581 121.903 467.134 135.402 555.071 149.652V147.354C458.322 131.209 405.003 118.455 302.024 127.254Z" fill="white" fill-opacity="0.01" shape-rendering="crispEdges"/>
<path d="M288.127 178.94C310.791 176.317 330.907 174.536 349.128 173.457C332.112 173.49 313.886 173.785 293.918 174.346C294.082 165.352 294.715 160.489 301.445 153.672C298.046 143.029 296.413 137.118 296.813 127.254L299.708 123.809C358.517 118.797 397.673 116.643 425.03 116.353C409.888 115.518 394.568 115.238 378.46 115.535C374.834 115.601 371.169 115.697 367.458 115.823C350.344 116.4 332.234 117.603 312.447 119.455C308.837 119.792 305.171 120.152 301.445 120.533C298.398 120.844 295.31 121.171 292.18 121.511C292.012 123.589 291.916 125.483 291.919 127.254C291.922 128.453 291.97 129.596 292.072 130.7C292.62 136.599 288.932 144.854 293.918 151.374C284.907 161.282 289.513 165.29 288.127 178.94Z" fill="white" fill-opacity="0.01" shape-rendering="crispEdges"/>
<path d="M494.663 181.288C446.732 176.003 404.282 173.351 349.128 173.457C410.958 169.796 450.968 174.221 494.663 181.288Z" fill="white" fill-opacity="0.01" shape-rendering="crispEdges"/>
<path d="M563.178 192.723V189.852C538.21 186.487 515.898 183.629 494.663 181.288C515.699 184.69 537.589 188.704 563.178 192.723Z" fill="white" fill-opacity="0.01" shape-rendering="crispEdges"/>
<path d="M538.279 131.468C522.302 128.441 507.357 125.825 492.998 123.634C503.497 126.895 513.334 130.673 532.558 133.697C570.241 139.623 562.108 136.695 549.808 133.458C549.822 133.524 549.836 133.59 549.851 133.656C550.133 133.736 550.16 133.755 549.86 133.697C545.937 132.931 542.079 132.187 538.279 131.468Z" fill="white" fill-opacity="0.01" shape-rendering="crispEdges"/>
<path d="M463.002 119.601C463.155 118.931 463.302 118.282 463.442 117.649C453.793 116.682 441.568 116.177 425.03 116.353C437.693 117.051 450.231 118.138 463.002 119.601Z" fill="white" fill-opacity="0.01" shape-rendering="crispEdges"/>
<path d="M473.492 118.949C473.471 119.577 473.449 120.216 473.425 120.872C479.853 121.701 486.363 122.622 492.998 123.634C487.245 121.847 481.294 120.216 473.492 118.949Z" fill="white" fill-opacity="0.01" shape-rendering="crispEdges"/>
<path d="M413.782 417.27C416.677 415.547 410.859 413.574 407.991 413.824C398.961 417.456 399.203 421.932 403.359 431.627L406.833 427.033C440.737 433.788 458.081 432.689 484.427 417.27L489.638 424.736C491.438 417.459 490.471 413.337 479.215 405.784C476.624 407.014 475.227 407.782 474.004 410.953L479.215 413.824C466.725 425.132 421.456 429.593 412.624 422.438C411.906 421.857 410.887 418.993 413.782 417.27Z" fill="white" fill-opacity="0.01" shape-rendering="crispEdges"/>
<path d="M383.092 552.228C378.139 558.111 375.245 561.279 369.774 566.585L346.033 566.011C343.631 542.421 337.4 532.47 323.449 516.622V528.108C295.928 515.207 284.333 504.376 266.123 482.739C262.732 485.363 263.089 487.177 266.123 490.779C219.05 468.482 199.583 448.136 188.878 408.656L171.626 396.217C171.286 396.701 170.938 397.209 170.579 397.744C170.017 396.573 169.471 395.419 168.941 394.282L58.2421 314.472C47.405 313.144 45.1956 316.233 45.5028 325.958L179.844 423.587C179.638 428.016 177.952 429.906 170.579 431.627L34.5008 335.721C25.2049 334.639 22.5753 336.775 24.6569 347.781L158.746 441.964C155.678 449.068 152.821 452.012 141.047 451.153L17.1292 362.138C8.31134 362.516 3.54535 362.915 7.28521 376.495L141.047 464.936C152.336 471.64 159.059 474.739 172.316 478.144C186.621 478.282 194.237 477.149 207.059 472.976L365.454 589.527L368.616 591.854L401.27 566.845L383.092 552.228Z" fill="white" fill-opacity="0.01" shape-rendering="crispEdges"/>
<path d="M154.227 343.187L81.4043 292.649C67.4038 291.678 66.6318 295.294 66.3488 302.987L158.746 367.881C156.444 359.867 154.996 351.938 154.227 343.187Z" fill="white" fill-opacity="0.01" shape-rendering="crispEdges"/>
<path d="M499.482 559.119C489.478 563.168 483.904 565.563 475.162 574.051H458.369C458.749 568.062 458.692 566.093 458.369 563.713C455.238 568.428 453.615 569.98 450.841 571.753C442.705 571.957 438.142 571.907 429.996 570.605C426.695 568.011 425.171 566.502 423.047 563.713C421.755 564.644 421.247 565.431 422.468 569.456H404.517L401.27 566.845L368.616 591.854L365.454 589.527L228.484 676.274C221.824 704.513 226.724 714.813 259.753 717.623L418.993 621.635L470.996 590.288L505.556 569.456C503.338 566.738 501.462 563.552 499.482 559.119Z" fill="white" fill-opacity="0.01" shape-rendering="crispEdges"/>
<path d="M470.996 590.288L418.993 621.635L578.813 736C612.816 731.412 620.369 722.235 615.293 695.226L470.996 590.288Z" fill="white" fill-opacity="0.01" shape-rendering="crispEdges"/>
<path fill-rule="evenodd" clip-rule="evenodd" d="M721.26 353.524C719.861 385.376 718.162 402.848 706.784 430.478C702.825 423.116 699.772 419.962 692.307 416.695C689.387 442.776 688.205 457.704 669.145 472.976C651.628 490.093 640.995 498.77 617.03 508.582L615.293 502.839C597.45 519.884 585.758 528.422 565.607 537.63L633.244 616.548L889.186 464.936C897.285 453.381 896.583 445.807 889.186 431.627L793.642 336.87C778.928 329.932 771.105 329.615 757.741 333.998L720.662 348.93C720.868 350.43 721.067 351.961 721.26 353.524ZM769.901 377.07C758.535 374.647 755.183 371.46 754.266 362.712C757.73 356.265 760.474 353.382 769.901 352.375C780.413 355.431 783.211 359.055 784.377 367.881C782.089 373.915 779.91 376.646 769.901 377.07Z" fill="white" fill-opacity="0.01" shape-rendering="crispEdges"/>
<path d="M214.587 192.723C196.372 166.588 195.948 150.697 201.848 121.511C207.967 127.436 211.937 129.344 219.798 130.7C218.95 151.351 220.018 162.924 231.38 183.534C233.945 184.18 235.051 183.997 236.591 182.96C234.847 165.266 231.478 154.441 244.119 142.186C237.727 139.01 235.777 140.395 232.538 143.334C233.444 138.551 235.205 136.698 241.224 135.294C262.352 135.642 269.231 136.369 281.757 137.591C283.363 150.553 283.235 158.898 277.125 175.494H262.649C267.005 180.866 270.594 183.468 281.757 186.406C248.023 193.006 231.132 200.242 207.059 223.735C219.212 223.672 225.954 223.855 237.749 224.883C182.818 261.67 171.986 292.267 179.844 360.415C190.712 347.371 197.913 341.291 213.429 333.424C191.219 387.811 200.646 414.232 247.593 455.747C244.475 440.888 247.595 434.405 255.121 423.587C260.824 455.631 267.924 472.082 299.129 494.225C296.114 476.421 296.385 466.71 305.499 450.579C313.8 479.07 321.936 493.715 344.874 516.622C355.339 529.528 358.608 537.459 359.93 552.802C371.725 547.969 372.146 539.444 371.511 522.939C383.88 537.094 391.3 544.111 406.254 553.376C412.427 545.156 412.62 537.097 412.624 522.365C421.058 536.963 426.053 545.071 440.419 557.971C456.507 547.764 460.645 539.728 466.476 524.662C470.916 536.252 472.424 542.985 472.267 555.673C491.68 547.682 498.705 541.115 509.905 528.682C509.138 544.002 510.614 552.099 519.749 564.862C520.516 543.032 529.041 529.171 556.809 502.839C568.259 492.615 570.845 483.295 573.601 464.936C581.948 480.901 583.415 490.859 578.813 510.879C607.42 494.633 616.78 479.829 623.4 444.836C629.19 457.548 631.237 464.62 629.769 476.996C655.658 462.17 663.073 449.418 673.199 424.736C677.375 399.369 675.025 385.836 663.934 362.712C678.674 371.153 687.302 376.977 695.203 390.853C705.703 367.166 701.957 351.464 694.045 320.789C682.191 287.63 670.104 273.591 642.509 253.598C653.653 252.405 659.873 252.761 670.882 256.469C654.58 233.497 640.485 222.826 600.238 210.526C610.573 207.912 614.968 206.086 617.03 201.337C593.812 198.628 582.838 191.873 563.178 172.623C560.736 163.058 560.343 157.574 563.178 147.354C573.003 124.06 583.897 119.018 606.028 114.046C639.01 112.228 651.685 115.645 668.566 126.106C661.098 127.951 658.459 129.215 656.406 131.849C678.833 151.473 682.943 164.661 678.41 191C677.392 204.96 675.61 212.458 666.829 224.309C687.037 241.301 694.291 252.079 705.047 271.975L685.359 268.529C708.995 298.769 716.32 317.23 720.662 348.93M214.587 192.723L214.157 193.041M214.587 192.723C214.443 192.83 214.299 192.936 214.157 193.041M530.172 373.624C513.204 353.369 513.399 340.965 511.642 319.067C510.365 308.776 509.019 303.337 504.115 294.946C508.826 298.04 511.487 299.081 516.275 299.541C523.812 298.648 526.273 297.467 529.593 294.946C517.457 295.307 512.476 294.218 508.747 288.629C519.538 290.21 523.858 289.968 530.172 288.629C537.598 284.299 541.284 281.824 545.227 277.144C548.832 279.751 549.776 279.78 551.597 280.015C548.747 274.138 546.492 271.17 539.437 267.381C534.364 263.269 525.619 263.22 514.537 261.638C518.054 258.714 522.398 258.288 534.804 259.915C512.82 245.978 501.202 250.571 481.531 277.144C486.172 272.333 488.684 270.304 492.533 271.401C484.597 276.662 483.12 281.085 483.269 290.352C497.894 295.27 501.541 301.206 505.852 313.324C505.907 328.574 505.91 337.125 505.852 352.375C516.37 387.171 520.938 410.212 516.854 427.033C460.357 471.111 406.455 458.015 365.72 418.993C358.243 393.703 364.104 378.879 375.564 352.375C374.673 332.65 374.576 321.046 377.881 301.838C384.919 288.455 390.664 286.516 401.043 283.461C400.177 277.478 397.87 273.319 390.62 264.509C393.22 263.113 395.846 265.579 401.043 271.401C395.744 257.762 391.308 250.901 372.669 244.409C360.179 242.044 354.686 242.591 348.349 247.855C358.505 247.554 362.926 249.035 369.774 253.023C362.171 252.137 358.279 251.593 346.033 251.301C337.685 255.548 333.761 258.499 331.556 267.381C334.488 264.072 335.642 263.815 337.347 264.509C346.359 275.494 354.009 277.652 374.406 281.164C368.986 283.198 364.482 285.901 354.718 285.758C362.978 288.792 368.181 289.1 377.881 288.629C374.473 292.52 372.305 303.547 368.037 336.87C355.449 361.282 344.529 371.565 322.87 387.981C324.303 379.648 336.816 363.316 352.402 340.89C333.623 358.12 322.979 367.68 294.497 376.495C299.536 365.356 305.003 360.476 315.922 352.375C297.204 356.142 286.967 359.749 269.597 371.327C269.248 364.944 272.69 361.129 282.336 354.098C245.638 358.742 238.262 373.337 236.591 409.804C243.58 395.082 247.626 386.989 262.069 381.664C258.555 392.65 258.987 399.084 263.228 410.953C268.15 401.607 271.938 396.993 281.178 390.278C270.997 412.984 272.603 428.203 280.02 456.896C284.862 431.454 289.591 419.176 306.657 405.784V436.221C309.386 427.802 311.845 423.717 319.975 418.993C319.776 455.733 322.543 475.017 350.665 498.819C348.492 483.746 349.393 475.575 354.718 461.49C361.668 489.575 370.978 501.328 392.936 518.345C389.07 497.517 390.577 487.591 403.359 474.699C402.67 489.346 405.136 496.71 413.782 508.582C414.987 496.388 416.627 490.181 422.468 481.016C420.354 503.619 425.714 514.792 441.577 533.276C457.036 519.276 459.642 507.694 460.106 484.462C465.287 492.803 466.775 498.728 467.634 510.879C474.138 504.732 476.523 497.059 479.215 478.144C488.794 495.358 490.879 505.602 490.217 524.662C510.681 509.426 517.156 496.905 526.698 472.976C531.328 486.049 531.761 494.072 531.909 508.582C563.298 484.157 566.003 466.289 560.862 431.627C567.398 437.731 570.325 442.166 574.759 451.153C573.457 436.399 573.464 429.368 574.759 418.993C587.419 438.548 592.61 450.271 600.238 471.827C608.424 449.77 608.263 436.038 597.921 408.656C608.037 414.37 611.482 419.908 615.872 431.627C619.985 421.266 621.19 415.05 620.505 402.913C629.67 413.66 634.036 419.973 640.772 431.627C642.375 395.85 633.189 382.473 595.026 373.05L611.819 390.853C599.177 382.162 565.255 367.213 564.336 367.881C563.417 368.549 580.279 384.006 586.34 393.724C560.755 379.334 549.355 369.848 530.172 352.375C547.472 375.76 555.902 388.134 557.388 402.338M530.172 373.624C540.8 384.838 546.759 391.125 557.388 402.338M530.172 373.624L557.388 402.338M374.406 239.815C374.953 239.846 375.49 239.88 376.017 239.915M401.043 262.786C401.12 262.398 401.196 262.016 401.269 261.638M373.827 239.24C374.581 239.464 375.311 239.689 376.017 239.915M401.269 261.638C403.766 248.805 403.629 241.77 376.017 239.915M401.269 261.638C395.808 250.679 391.575 244.904 376.017 239.915M480.373 269.103C483.058 250.913 487.862 245.757 508.747 247.855C491.152 252.138 487.447 257.971 480.455 268.975M480.373 269.103L480.455 268.975M480.373 269.103C480.401 269.061 480.428 269.018 480.455 268.975M292.18 121.511C292.012 123.589 291.916 125.483 291.919 127.254M292.18 121.511C299.137 120.754 305.884 120.069 312.447 119.455M292.18 121.511C295.31 121.171 298.398 120.844 301.445 120.533M292.072 130.7C292.62 136.599 288.932 144.854 293.918 151.374C284.907 161.282 289.513 165.29 288.127 178.94C310.791 176.317 330.907 174.536 349.128 173.457M292.072 130.7C265.458 130.812 250.52 129.511 223.852 124.957C217.231 124.07 215.007 122.567 214.587 117.491L196.057 115.194C181.117 112.408 165.367 106.006 165.367 96.817C165.367 87.6284 179.494 78.7005 187.371 68.6768C185.656 63.5655 186.23 61.2601 187.371 57.1911C216.85 34.3582 245.369 21.7797 300.866 11.8223C361.01 3.83644 394.734 1.58833 454.895 2.05937C522.628 11.7543 560.186 17.5283 616.451 36.5167C660.504 66.6523 661.636 82.1952 635.56 108.303L630.928 106.58C646.098 93.9272 649.398 85.3604 644.246 66.954C636.065 51.5834 627.774 45.0162 607.186 36.5167C549.854 20.6189 516.05 13.9686 452 7.22797C389.569 7.16311 354.889 7.57478 299.708 17.5652C260.903 25.2985 239.129 28.8787 200.69 52.0225C193.837 54.045 191.288 56.4367 192.583 66.3797C190.742 73.4996 189.218 77.8028 174.053 93.3712C169.766 101.389 185.634 111.174 197.215 111.174C208.796 111.174 209.911 114.184 216.903 114.046C216.881 116.76 217.816 118.154 221.536 120.363C249.026 125.959 264.437 127.894 291.919 127.254M292.072 130.7C291.97 129.596 291.922 128.453 291.919 127.254M301.445 120.533C297.645 109.647 290.835 104.824 278.862 100.263C227.765 91.7792 217.199 81.9734 201.848 63.5082C230.638 87.8149 251.455 93.4313 290.443 100.263C301.301 106.166 305.6 110.732 312.447 119.455M301.445 120.533C305.171 120.152 308.837 119.792 312.447 119.455M312.447 119.455C332.234 117.603 350.344 116.4 367.458 115.823M367.458 115.823C360.553 106.133 358.14 100.165 355.876 88.7769C353.392 74.1159 351.823 65.9176 347.77 51.4482C342.687 42.2995 338.632 36.0704 327.503 25.6052M367.458 115.823C371.169 115.697 374.834 115.601 378.46 115.535M327.503 25.6052C337 34.1276 342.325 38.9058 351.823 47.4282M327.503 25.6052L351.823 47.4282M351.823 47.4282C358.48 63.6909 360.559 72.7354 362.246 88.7769C365.454 99.6683 369.693 105.43 378.46 115.535M378.46 115.535C394.568 115.238 409.888 115.518 425.03 116.353M463.002 119.601C466.457 119.997 469.929 120.421 473.425 120.872M463.002 119.601C450.231 118.138 437.693 117.051 425.03 116.353M463.002 119.601C463.155 118.931 463.302 118.282 463.442 117.649M473.425 120.872C479.853 121.701 486.363 122.622 492.998 123.634M473.425 120.872C473.449 120.216 473.471 119.577 473.492 118.949M538.279 131.468C541.795 117.886 543.339 117.164 546.386 111.174C573.626 86.6518 584.798 74.3081 607.186 51.4482L552.176 111.174C549.213 121.11 548.27 126.291 549.808 133.458M538.279 131.468C542.079 132.187 545.937 132.931 549.86 133.697M538.279 131.468C522.302 128.441 507.357 125.825 492.998 123.634M549.86 133.697C550.16 133.755 550.133 133.736 549.851 133.656M549.86 133.697C549.857 133.683 549.854 133.67 549.851 133.656M481.531 356.395C480.936 350.912 475.026 342.521 463.002 336.87C442.489 325.713 411.324 332.201 401.269 351.227C411.577 345.823 417.361 345.85 427.679 347.781C434.479 352.87 435.833 356.035 434.628 362.138C430.659 371.656 425.438 372.734 413.782 371.327C419.381 367.196 420.439 364.813 417.835 360.415C414.262 359 412.379 358.85 409.149 359.267C403.041 365.917 403.483 370.703 406.833 379.941C414.904 387.602 420.221 390.557 432.312 391.427C438.648 388.283 440.371 385.617 441.577 379.941C443.297 385.612 444.556 388.44 448.525 391.427C463.38 392.424 469.146 389.022 477.478 379.941C478.984 372.324 477.72 368.874 474.004 363.287C470.221 360.991 468.069 360.637 464.16 362.138C463.463 367.34 464.566 369.829 468.792 373.624C457.739 375.58 452.874 373.286 448.525 363.287C446.149 352.655 450.332 350.146 463.002 348.93C472.344 349.89 475.974 351.921 481.531 356.395ZM481.531 356.395L492.533 358.118M492.533 358.118C490.514 344.339 487.532 336.157 469.95 325.958C450.674 319.152 437.551 317.907 412.624 323.661C399.635 326.321 395.852 332.556 390.62 343.187C384.121 363.452 386.597 372.841 403.359 391.427C418.832 402.013 429.33 403.002 448.525 403.487C464.478 403.129 471.949 399.27 484.427 390.278C492.395 382.187 493.806 374.798 492.533 358.118ZM214.157 193.041C205.204 199.652 200.054 203.456 190.846 211.675C180.607 221.075 177.88 225.914 172.316 234.646C184.749 232.862 187.673 233.95 190.846 236.943C168.751 264.298 160.747 281.057 153.786 313.324C153.365 324.729 153.452 334.375 154.227 343.187M349.128 173.457C332.112 173.49 313.886 173.785 293.918 174.346C294.082 165.352 294.715 160.489 301.445 153.672C298.046 143.029 296.413 137.118 296.813 127.254L299.708 123.809C358.517 118.797 397.673 116.643 425.03 116.353M349.128 173.457C404.282 173.351 446.732 176.003 494.663 181.288M349.128 173.457C410.958 169.796 450.968 174.221 494.663 181.288M425.03 116.353C441.568 116.177 453.793 116.682 463.442 117.649M494.663 181.288C515.699 184.69 537.589 188.704 563.178 192.723V189.852C538.21 186.487 515.898 183.629 494.663 181.288ZM492.998 123.634C503.497 126.895 513.334 130.673 532.559 133.697C570.241 139.623 562.108 136.695 549.808 133.458M492.998 123.634C487.245 121.847 481.294 120.216 473.492 118.949M549.808 133.458C549.822 133.524 549.836 133.59 549.851 133.656M549.808 133.458C541.781 131.346 531.979 129.102 531.979 129.102C529.553 128.62 547.626 133.025 549.851 133.656M463.442 117.649C465.25 109.524 466.05 104.153 465.897 93.9455C472.667 87.238 475.353 82.8289 479.215 74.4197L497.745 25.6052C490.801 46.0888 485.846 57.6345 483.269 77.8654C480.246 84.7344 478.861 88.8078 473.425 93.9455C473.692 104.817 473.756 110.859 473.492 118.949M463.442 117.649C467.138 118.019 470.455 118.456 473.492 118.949M154.227 343.187L81.4043 292.649C67.4038 291.679 66.6318 295.294 66.3488 302.987L158.746 367.881M154.227 343.187C154.996 351.938 156.444 359.867 158.746 367.881M158.746 367.881C161.148 376.245 164.48 384.702 168.941 394.282M188.878 408.656C199.583 448.136 219.05 468.482 266.123 490.779C263.089 487.177 262.732 485.363 266.123 482.739C284.333 504.376 295.928 515.207 323.449 528.108V516.622C337.4 532.47 343.631 542.421 346.033 566.011L369.774 566.585C375.245 561.279 378.139 558.111 383.092 552.228L401.269 566.845M188.878 408.656C186.977 401.642 185.351 394.024 183.897 385.684C178.76 387.993 175.846 390.213 171.626 396.217M188.878 408.656L171.626 396.217M401.269 566.845L404.517 569.456H422.468C421.247 565.431 421.755 564.644 423.047 563.713C425.171 566.502 426.695 568.011 429.996 570.605C438.142 571.907 442.705 571.957 450.841 571.753C453.615 569.98 455.238 568.428 458.369 563.713C458.692 566.093 458.749 568.062 458.369 574.051H475.162C483.904 565.563 489.478 563.168 499.482 559.119C501.462 563.552 503.338 566.738 505.556 569.456M401.269 566.845L368.616 591.854L365.454 589.527M401.269 566.845L365.454 589.527M171.626 396.217C171.286 396.701 170.938 397.209 170.579 397.744C170.017 396.573 169.471 395.419 168.941 394.282M171.626 396.217L168.941 394.282M168.941 394.282L58.2421 314.472C47.405 313.144 45.1956 316.233 45.5028 325.958L179.844 423.587C179.638 428.016 177.952 429.906 170.579 431.627L34.5008 335.721C25.2049 334.639 22.5753 336.775 24.6569 347.781L158.746 441.964C155.678 449.068 152.821 452.012 141.047 451.153L17.1292 362.138C8.31134 362.516 3.54535 362.915 7.28521 376.495L141.047 464.936C152.336 471.64 159.059 474.739 172.316 478.144C186.621 478.282 194.237 477.149 207.059 472.976L365.454 589.527M505.556 569.456C508.08 572.551 511.048 575.039 515.117 578.071H533.067C534.183 555.306 541.723 546.062 556.809 530.405C558.623 533.637 559.27 535.711 558.546 540.742C561.018 539.688 563.365 538.655 565.607 537.63M505.556 569.456L470.996 590.288M365.454 589.527L228.484 676.274C221.824 704.513 226.724 714.813 259.753 717.623L418.993 621.635M418.993 621.635L578.813 736C612.816 731.412 620.369 722.235 615.293 695.226L470.996 590.288M418.993 621.635L470.996 590.288M469.95 589.527L470.996 590.288M564.336 536.148L565.607 537.63M720.662 348.93C720.868 350.43 721.067 351.961 721.26 353.524C719.861 385.376 718.162 402.848 706.784 430.478C702.825 423.116 699.772 419.962 692.307 416.696C689.387 442.776 688.205 457.704 669.145 472.976C651.628 490.093 640.995 498.77 617.03 508.582L615.293 502.839C597.45 519.884 585.758 528.422 565.607 537.63M720.662 348.93L757.741 333.998C771.105 329.615 778.928 329.932 793.642 336.87L889.186 431.627C896.583 445.807 897.285 453.381 889.186 464.936L633.244 616.548L565.607 537.63M268.439 281.164C251.591 290.456 243.712 296.649 244.119 316.769C252.717 308.628 258.687 305.881 271.334 304.135C258.794 316.526 257.229 323.431 258.016 335.721C279.457 323.618 293.058 318.849 320.554 314.472C331.09 308.014 334.237 303.144 339.663 294.372C321.046 305.65 308.906 309.941 281.757 311.027C289.479 304.181 294.42 300.268 303.761 293.224C285.051 292.788 275.445 294.122 260.332 300.115C258.521 294.26 261.678 289.681 268.439 281.164ZM578.234 170.326C569.995 167.867 567.577 164.463 568.39 153.672C569.635 137.539 575.551 132.245 587.498 123.809C585.677 130.056 585.738 133.311 587.498 138.74C605.485 119.366 616.304 121.85 635.56 125.531C632.141 129.627 630.208 131.246 625.137 132.423C644.779 137.629 658.39 136.102 658.722 174.346C661.022 192.296 657.928 200.823 644.825 213.397C647.816 195.572 649.025 185.661 637.876 170.326C642.652 169.05 644.802 169.943 647.72 174.346C643.094 165 639.61 161.036 629.19 159.989C635.966 157.528 639.913 158.554 647.141 163.434C643.053 153.679 639.323 149.023 619.925 147.929C605.98 147.509 598.019 146.707 588.657 164.583C584.447 161.584 583.203 159.665 582.287 155.969C578.33 161.473 577.3 164.61 578.234 170.326ZM540.595 305.858C552.152 324.824 563.684 331.507 587.498 340.89C605.546 345.905 613 350.196 621.663 360.415C625.255 347.196 621.678 339.205 608.344 324.235C620.586 329.623 626.771 333.189 636.139 340.89C638.145 324.426 630.254 316.497 611.819 302.987C617.946 310.825 621.144 315.182 620.505 321.938C610.342 319.683 600.487 316.845 579.392 310.452C584.964 321.898 589.383 325.692 597.921 331.127C574.602 327.876 562.013 322.605 540.595 305.858ZM363.983 186.406C388.964 196.626 402.108 202.865 417.835 218.566L414.361 205.357C421.334 210.254 425.065 213.884 431.154 223.16C432.261 217.386 432.137 213.585 429.996 205.357C436.182 211.014 438.366 214.7 440.419 222.012C445.122 211.811 448.511 209.02 454.895 205.357C455.278 209.718 454.004 213.923 450.262 223.16C457.311 216.216 461.392 212.81 469.371 209.377L465.897 222.012C485.051 206.507 497.026 201.97 519.749 198.466L484.427 202.486C485.546 198.205 488.616 195.265 494.85 189.852L469.371 200.763C468.194 194.844 470.435 191.24 475.741 184.683C467.532 183.643 462.104 185.147 450.262 193.297C450.161 195.807 449.52 197.189 447.367 199.615C445.988 197.807 445.216 196.795 445.051 195.595C444.186 197.719 443.564 198.88 441.577 200.763C436.551 191.161 431.305 188.641 422.468 183.534C415.102 183.441 412.522 183.711 410.308 184.683C414.027 190.039 415.454 192.789 415.519 196.743C407.157 192.779 401.819 189.442 390.62 183.534C396.224 189.362 398.718 192.433 399.306 196.743C385.41 194.017 377.706 191.372 363.983 186.406ZM302.024 127.254C304.539 129.941 306.445 131.793 310.131 135.294C315.064 129.247 319.259 129.142 327.503 130.7C418.581 121.903 467.134 135.402 555.071 149.652V147.354C458.322 131.209 405.003 118.455 302.024 127.254ZM413.782 417.27C416.677 415.547 410.859 413.574 407.991 413.824C398.961 417.456 399.203 421.932 403.359 431.627L406.833 427.033C440.737 433.788 458.081 432.689 484.427 417.27L489.638 424.736C491.438 417.459 490.471 413.337 479.215 405.784C476.624 407.014 475.227 407.782 474.004 410.953L479.215 413.824C466.725 425.131 421.456 429.593 412.624 422.438C411.906 421.857 410.887 418.993 413.782 417.27ZM499.482 282.886C500.788 279.123 502.675 277.613 507.01 275.421C506.537 279.927 507.708 281.594 511.642 283.461C506.888 284.658 504.226 284.605 499.482 282.886ZM514.537 274.846C513.773 272.448 513.88 271.369 515.696 270.252C525.055 268.98 529.669 269.278 536.542 271.975C534.439 278.368 532.093 281.21 524.381 284.035C527.225 274.924 525.201 272.804 514.537 274.846ZM346.033 258.766C343.251 260.268 351.723 269.843 358.193 273.124C358.449 268.577 357.111 266.033 358.193 263.361C361.955 264.835 364.103 265.189 368.037 264.509C368.965 263.672 369.057 263.03 368.616 261.638C361.778 259.003 358.028 258.144 346.033 258.766ZM371.511 275.421C368.616 275.421 377.301 270.252 375.564 266.806C373.827 263.361 385.408 271.401 384.829 274.272C380.459 275.792 371.511 275.421 371.511 275.421ZM754.266 362.712C755.183 371.46 758.535 374.647 769.901 377.07C779.91 376.646 782.089 373.915 784.377 367.881C783.211 359.055 780.413 355.431 769.901 352.375C760.474 353.382 757.73 356.265 754.266 362.712Z" stroke="white" stroke-width="0.5" shape-rendering="crispEdges"/>
</g>
<defs>
<filter id="filter0_d_136_897" x="0.75" y="0.75" width="899.5" height="744.511" filterUnits="userSpaceOnUse" color-interpolation-filters="sRGB">
<feFlood flood-opacity="0" result="BackgroundImageFix"/>
<feColorMatrix in="SourceAlpha" type="matrix" values="0 0 0 0 0 0 0 0 0 0 0 0 0 0 0 0 0 0 127 0" result="hardAlpha"/>
<feOffset dy="4"/>
<feGaussianBlur stdDeviation="2.5"/>
<feComposite in2="hardAlpha" operator="out"/>
<feColorMatrix type="matrix" values="0 0 0 0 1 0 0 0 0 1 0 0 0 0 1 0 0 0 1 0"/>
<feBlend mode="normal" in2="BackgroundImageFix" result="effect1_dropShadow_136_897"/>
<feBlend mode="normal" in="SourceGraphic" in2="effect1_dropShadow_136_897" result="shape"/>
</filter>
</defs>
</svg>
