<svg width="289" height="230" viewBox="0 0 289 230" fill="none" xmlns="http://www.w3.org/2000/svg">
<g opacity="0.2" filter="url(#filter0_d_75_296)">
<path d="M129.16 105.721C132.293 100.071 142.004 98.1436 148.395 101.457C152.142 103.136 153.984 105.628 154.169 107.256L157.597 107.768C156.968 103.676 156.039 101.246 150.56 98.2164C144.554 96.195 140.465 95.8253 132.698 97.5342C128.651 98.3243 127.472 100.176 125.842 103.333C123.817 109.352 124.589 112.141 129.812 117.661C134.633 120.805 137.904 121.099 143.885 121.243C148.855 121.136 151.183 119.99 155.071 117.32C157.554 114.917 157.994 112.722 157.597 107.768L154.169 107.256C152.437 105.928 151.306 105.324 148.395 105.039C144.448 105.4 143.144 106.146 143.885 109.303C145.24 112.273 146.756 112.954 150.2 112.373C148.883 111.246 148.539 110.507 148.756 108.962C149.974 108.516 150.645 108.621 151.823 109.303C152.982 110.962 153.375 111.987 152.906 114.25C150.31 116.947 148.513 117.957 143.885 117.661C142.648 116.774 142.256 115.934 141.72 114.25C141.344 115.935 140.807 116.727 138.833 117.661C135.066 117.402 133.409 116.525 130.894 114.25C129.85 111.506 129.713 110.084 131.616 108.109C132.622 107.985 133.209 108.03 134.322 108.45C135.133 109.756 134.804 110.464 133.059 111.691C136.691 112.109 138.318 111.789 139.554 108.962C139.93 107.149 139.508 106.209 137.389 104.698C134.174 104.124 132.372 104.116 129.16 105.721Z" fill="black"/>
<path fill-rule="evenodd" clip-rule="evenodd" d="M189.532 112.203C201.423 115.002 204.286 118.974 203.786 129.6C201.687 126.139 200.327 124.264 197.471 121.072C197.685 124.677 197.309 126.523 196.028 129.6C194.66 126.12 193.586 124.475 190.434 122.778C193.657 130.911 193.707 134.989 191.156 141.54C188.779 135.138 187.162 131.656 183.217 125.848C182.814 128.929 182.812 131.018 183.217 135.4C181.836 132.73 180.924 131.413 178.887 129.6C180.489 139.895 179.646 145.202 169.866 152.456C169.82 148.147 169.685 145.764 168.242 141.881C165.269 148.988 163.252 152.707 156.875 157.232C157.082 151.571 156.432 148.529 153.447 143.416C152.609 149.034 151.865 151.313 149.839 153.138C149.571 149.529 149.107 147.77 147.493 145.292C147.348 152.193 146.536 155.632 141.72 159.79C136.777 154.301 135.107 150.982 135.766 144.269C133.946 146.991 133.435 148.835 133.059 152.456C130.365 148.93 129.597 146.743 129.812 142.393C125.829 146.222 125.359 149.17 126.564 155.356C119.722 150.302 116.821 146.811 114.656 138.47C112.996 142.653 112.716 145.08 113.393 149.557C104.631 142.487 103.768 136.76 103.83 125.848C101.297 127.251 100.531 128.464 99.6805 130.965V121.925C94.363 125.902 92.8895 129.549 91.3809 137.105C89.0699 128.583 88.5694 124.063 91.7417 117.32C88.8627 119.314 87.6822 120.684 86.1485 123.46C84.8274 119.935 84.6926 118.024 85.7877 114.761C81.2872 116.343 80.0267 118.747 77.849 123.119C78.3697 112.288 80.6679 107.953 92.1026 106.574C89.0969 108.662 88.0243 109.795 88.1332 111.691C93.5455 108.252 96.735 107.181 102.567 106.062C99.1651 108.468 97.4619 109.918 95.8915 113.226C104.766 110.608 108.083 107.769 113.934 102.651C109.078 109.312 105.179 114.163 104.732 116.637C111.481 111.762 114.883 108.708 118.806 101.457C120.135 91.5603 120.811 88.2853 121.873 87.1297C118.851 87.2695 117.229 87.1781 114.656 86.2769C117.698 86.3195 119.101 85.5167 120.79 84.9123C114.435 83.8692 112.051 83.2286 109.243 79.966C108.712 79.7599 108.352 79.8361 107.439 80.8188C108.126 78.181 109.349 77.3045 111.949 76.0429C115.765 76.1297 116.978 76.2914 119.347 76.5546C117.213 75.3702 115.836 74.9301 112.671 75.0196C114.646 73.4561 116.357 73.2938 120.249 73.9962C126.057 75.9242 127.439 77.9621 129.09 82.0127C127.471 80.2836 126.652 79.5514 125.842 79.966C128.101 82.5826 128.82 83.8178 129.09 85.5946C125.856 86.502 124.066 87.0781 121.873 91.0527C120.843 96.7576 120.873 100.204 121.151 106.062C117.58 113.934 115.754 118.337 118.084 125.848C130.776 137.438 147.571 141.327 165.175 128.236C166.448 123.24 165.024 116.397 161.747 106.062C161.765 101.533 161.764 98.9935 161.747 94.464C160.404 90.865 159.267 89.1021 154.71 87.6414C154.664 84.8889 155.124 83.5752 157.597 82.0127C156.398 81.6869 155.615 82.2897 154.169 83.7184C160.298 75.8261 163.918 74.4623 170.768 78.6014C166.902 78.1183 165.549 78.2447 164.453 79.1131C167.906 79.5832 170.631 79.5976 172.212 80.8188C174.41 81.9442 175.112 82.8259 176 84.5712C175.433 84.5015 175.139 84.4929 174.016 83.7184C172.787 85.1084 171.639 85.8437 169.325 87.1297C167.357 87.5272 166.011 87.5991 162.649 87.1297C163.811 88.7896 165.363 89.113 169.144 89.0059C168.11 89.7545 167.343 90.1054 164.994 90.3704C163.503 90.2338 162.673 89.9248 161.206 89.0059C162.734 91.4978 163.153 93.1133 163.551 96.1696C164.099 102.673 164.038 106.358 169.325 112.373L177.805 120.902C177.342 116.683 174.715 113.008 169.325 106.062C175.302 111.252 178.854 114.069 186.826 118.343C184.937 115.457 179.683 110.866 179.97 110.668C180.256 110.469 190.826 114.909 194.765 117.49L189.532 112.203ZM162.108 83.2067C160.757 83.8577 160.169 84.3063 159.762 85.424C161.24 85.9344 162.07 85.9501 163.551 85.5946C162.325 85.04 161.96 84.5452 162.108 83.2067ZM164.814 81.6716C164.248 82.0035 164.215 82.3239 164.453 83.0361C167.776 82.4295 168.406 83.0591 167.52 85.7652C169.923 84.9262 170.654 84.0822 171.309 82.1833C169.168 81.3822 167.73 81.2938 164.814 81.6716ZM115.738 82.5244C113.723 81.5501 111.083 78.7064 111.949 78.2603C115.687 78.0755 116.855 78.3307 118.986 79.1131C119.123 79.5265 119.095 79.7174 118.806 79.966C117.58 80.1677 116.911 80.0627 115.738 79.6248C115.401 80.4187 115.818 81.1742 115.738 82.5244ZM121.151 80.6482C121.692 81.6716 118.986 83.2067 119.888 83.2067C119.888 83.2067 122.676 83.317 124.038 82.8656C124.218 82.0127 120.61 79.6248 121.151 80.6482Z" fill="black"/>
<path d="M172.572 92.2467C176.173 97.8797 179.767 99.8645 187.187 102.651C192.81 104.141 195.133 105.415 197.832 108.45C198.951 104.524 197.837 102.151 193.682 97.7047C197.496 99.305 199.424 100.364 202.343 102.651C202.967 97.7613 200.509 95.4066 194.765 91.3938C196.674 93.7219 197.67 95.0159 197.471 97.0225C194.304 96.3527 191.234 95.5099 184.661 93.6112C186.397 97.0105 187.774 98.1375 190.434 99.7515C183.168 98.7859 179.246 97.2205 172.572 92.2467Z" fill="black"/>
<path fill-rule="evenodd" clip-rule="evenodd" d="M70.9928 58.6453C65.3172 50.883 65.1852 46.1633 67.0234 37.4952C68.9301 39.2549 70.1669 39.8216 72.6166 40.2242C72.3522 46.3576 72.685 49.7948 76.2251 55.9162C77.0246 56.1079 77.3693 56.0535 77.849 55.7457C77.3057 50.4904 76.2557 47.2754 80.1945 43.6355C78.203 42.6922 77.5952 43.1038 76.586 43.9767C76.8683 42.556 77.4172 42.0056 79.2924 41.5888C85.8756 41.6921 88.0193 41.9081 91.9221 42.271C92.4226 46.1206 92.3827 48.5992 90.4787 53.5283H85.9681C87.3256 55.1238 88.4438 55.8966 91.9221 56.7691C81.4109 58.7293 76.1479 60.8785 68.6473 67.8558C72.4339 67.8373 74.5347 67.8914 78.2098 68.1969C61.094 79.1227 57.7188 88.2101 60.1673 108.45C63.5537 104.576 65.7973 102.77 70.6319 100.434C63.7116 116.587 66.6489 124.434 81.2771 136.764C80.3054 132.351 81.2778 130.426 83.6226 127.212C85.3997 136.73 87.612 141.616 97.3349 148.192C96.3955 142.904 96.48 140.02 99.3196 135.229C101.906 143.691 104.441 148.041 111.589 154.844C114.849 158.677 115.868 161.033 116.28 165.59C119.955 164.154 120.086 161.622 119.888 156.72C123.742 160.924 126.054 163.008 130.714 165.76C132.637 163.319 132.697 160.925 132.698 156.55C135.326 160.885 136.883 163.294 141.359 167.125C146.372 164.093 147.661 161.707 149.478 157.232C150.861 160.674 151.331 162.674 151.282 166.443C157.331 164.069 159.52 162.118 163.01 158.426C162.771 162.976 163.231 165.381 166.077 169.172C166.316 162.688 168.972 158.571 177.624 150.751C181.192 147.714 181.998 144.946 182.857 139.493C185.457 144.235 185.915 147.192 184.48 153.138C193.394 148.313 196.31 143.917 198.373 133.523C200.177 137.299 200.815 139.399 200.358 143.075C208.424 138.672 210.735 134.884 213.89 127.554C215.191 120.02 214.459 116 211.003 109.133C215.596 111.639 218.284 113.369 220.746 117.49C224.018 110.455 222.85 105.792 220.385 96.6813C216.692 86.8329 212.925 82.6632 204.327 76.7252C207.8 76.371 209.738 76.4768 213.168 77.578C208.089 70.7552 203.697 67.5858 191.156 63.9328C194.376 63.1565 195.746 62.614 196.389 61.2038C189.154 60.399 185.735 58.3928 179.609 52.6755C178.848 49.8347 178.726 48.2059 179.609 45.1706C182.67 38.2523 186.065 36.7548 192.96 35.2779C203.237 34.738 207.186 35.7528 212.446 38.8597C210.119 39.4079 209.297 39.7831 208.657 40.5654C215.646 46.394 216.926 50.3107 215.514 58.1336C215.196 62.2797 214.641 64.5065 211.905 68.0264C218.202 73.073 220.462 76.2742 223.813 82.1833L217.679 81.1599C225.044 90.1412 227.326 95.6242 228.679 105.039C228.743 105.485 228.805 105.939 228.865 106.404C228.429 115.864 227.9 121.053 224.354 129.259C223.121 127.073 222.17 126.136 219.844 125.166C218.934 132.912 218.566 137.345 212.627 141.881C207.169 146.965 203.856 149.542 196.389 152.456L195.847 150.751C190.288 155.813 186.645 158.349 180.366 161.084C179.667 161.388 178.936 161.695 178.166 162.008C178.391 160.514 178.19 159.898 177.624 158.938C172.924 163.588 170.574 166.333 170.227 173.095H164.634C163.366 172.194 162.441 171.455 161.655 170.536C160.964 169.729 160.379 168.783 159.762 167.466C156.645 168.669 154.908 169.38 152.184 171.901H146.952C147.07 170.122 147.052 169.537 146.952 168.83C145.976 170.231 145.471 170.692 144.606 171.218C142.071 171.279 140.649 171.264 138.111 170.877C137.083 170.107 136.608 169.659 135.946 168.83C135.543 169.107 135.385 169.341 135.766 170.536H130.172L129.16 169.76L123.497 165.419C121.953 167.166 121.052 168.107 119.347 169.683L111.949 169.513C111.201 162.507 109.26 159.551 104.913 154.844V158.255C96.3375 154.424 92.7246 151.207 87.0507 144.781C85.994 145.56 86.1053 146.099 87.0507 147.169C72.3834 140.546 66.3178 134.504 62.9823 122.778C62.3898 120.695 61.8834 118.432 61.4302 115.955C59.8296 116.641 58.9216 117.3 57.6067 119.084C57.5008 119.227 57.3922 119.378 57.2805 119.537C57.1053 119.189 56.9353 118.847 56.7702 118.509C55.38 115.663 54.3418 113.152 53.5934 110.668C52.8763 108.288 52.4252 105.933 52.1854 103.333C51.944 100.716 51.9169 97.8515 52.0481 94.464C54.2171 84.8808 56.7108 79.9031 63.5953 71.7788C62.6068 70.8897 61.6958 70.5667 57.8217 71.0965C59.5555 68.5032 60.4053 67.0658 63.5953 64.2739C66.4645 61.833 68.0693 60.7032 70.8587 58.7397L70.9928 58.6453ZM181.233 47.0469C180.98 50.2519 181.733 51.263 184.3 51.9932C184.009 50.2957 184.33 49.364 185.563 47.7291C185.848 48.8271 186.236 49.3968 187.548 50.2876C190.465 44.9783 192.945 45.2166 197.291 45.3412C203.335 45.6662 204.497 47.049 205.771 49.9465C203.519 48.4969 202.289 48.1923 200.177 48.9231C203.424 49.2341 204.51 50.4114 205.951 53.1872C205.042 51.8796 204.372 51.6142 202.884 51.9932C206.358 56.5478 205.981 59.4916 205.049 64.7856C209.132 61.051 210.096 58.5185 209.379 53.1872C209.276 41.8288 205.035 42.2823 198.914 40.7359C200.495 40.3863 201.097 39.9057 202.162 38.6892C196.162 37.5959 192.791 36.8582 187.187 42.6122C186.638 40.9999 186.619 40.0328 187.187 38.1775C183.464 40.6832 181.621 42.2554 181.233 47.0469Z" fill="black"/>
<path d="M153.808 81.3305C154.645 75.9279 156.141 74.3964 162.649 75.0196C157.167 76.2918 156.012 78.0241 153.834 81.2923L153.808 81.3305Z" fill="black"/>
<path d="M121.292 72.6615C129.896 73.2123 129.938 75.3019 129.16 79.1131C127.459 75.8585 126.14 74.1431 121.292 72.6615Z" fill="black"/>
<path d="M117.543 56.7691C125.326 59.8044 129.422 61.6576 134.322 66.3207L133.24 62.3977C135.412 63.8521 136.575 64.9302 138.472 67.6852C138.817 65.9702 138.778 64.8414 138.111 62.3977C140.039 64.0778 140.719 65.1726 141.359 67.3441C142.824 64.3145 143.88 63.4855 145.869 62.3977C145.989 63.6929 145.592 64.9416 144.426 67.6852C146.622 65.6227 147.894 64.6112 150.38 63.5917L149.297 67.3441C155.266 62.7393 158.997 61.3917 166.077 60.3509L155.071 61.5449C155.42 60.2735 156.376 59.4001 158.319 57.7925L150.38 61.0332C150.013 59.2751 150.711 58.2047 152.365 56.2574C149.807 55.9484 148.116 56.395 144.426 58.8158C144.394 59.5611 144.195 59.9716 143.524 60.6921C143.094 60.1553 142.854 59.8545 142.802 59.4981C142.533 60.129 142.339 60.4739 141.72 61.0332C140.154 58.1812 138.519 57.4329 135.766 55.9162C133.47 55.8885 132.667 55.9685 131.977 56.2574C133.136 57.8481 133.58 58.6649 133.6 59.8392C130.995 58.6618 129.332 57.6709 125.842 55.9162C127.588 57.647 128.365 58.5591 128.549 59.8392C124.219 59.0297 121.818 58.244 117.543 56.7691Z" fill="black"/>
<path d="M115.017 27.773C115.722 31.1554 116.474 32.9277 118.625 35.8056C119.782 35.7684 120.924 35.7399 122.053 35.7201C119.322 32.7189 118.001 31.0077 117.001 27.773C116.476 23.0086 115.828 20.3224 113.754 15.4923L106.176 9.01081C109.644 12.119 110.907 13.9691 112.491 16.6862C113.754 20.9837 114.243 23.4186 115.017 27.773Z" fill="black"/>
<path d="M149.297 29.3081C149.345 32.3398 149.096 33.9349 148.533 36.348C148.489 36.536 148.443 36.729 148.395 36.928C149.472 37.0456 150.554 37.1713 151.643 37.3052C151.651 37.1106 151.658 36.9206 151.664 36.7343C151.746 34.3314 151.726 32.5368 151.643 29.3081C153.337 27.7822 153.768 26.5723 154.71 24.5322C155.513 18.5236 157.057 15.0945 159.221 9.01081L153.447 23.5089C152.244 26.0064 151.407 27.3159 149.297 29.3081Z" fill="black"/>
<path d="M174.377 34.425C173.427 36.2041 172.946 36.4186 171.851 40.4522C173.035 40.666 174.237 40.8867 175.459 41.1143C175.458 41.1103 175.457 41.1062 175.456 41.1022C175.452 41.0826 175.447 41.063 175.443 41.0435C174.964 38.9147 175.257 37.3761 176.181 34.425L193.321 16.6862C186.346 23.4757 182.864 27.1418 174.377 34.425Z" fill="black"/>
<path d="M91.02 31.1843C94.7505 32.539 96.8726 33.9713 98.0566 37.2046C99.2176 37.0914 100.36 36.9847 101.485 36.8844C99.3513 34.2938 98.0118 32.9374 94.6285 31.1843C82.4803 29.1553 75.9942 27.4873 67.0234 20.2681C71.8068 25.7523 75.099 28.6647 91.02 31.1843Z" fill="black"/>
<path d="M73.8796 38.5186C82.1891 39.8711 86.8436 40.2575 95.1362 40.2242C95.1042 39.8963 95.0892 39.557 95.0885 39.2009C86.5255 39.3909 81.7236 38.8161 73.1579 37.1541C71.999 36.4981 71.7077 36.084 71.7145 35.2779C69.5359 35.319 69.1885 34.425 65.58 34.425C61.9715 34.425 57.0272 31.5188 58.363 29.1375C63.0882 24.5136 63.5629 23.2356 64.1366 21.1209C63.7332 18.1678 64.5273 17.4575 66.6626 16.8568C78.6397 9.98305 85.4243 8.91973 97.5154 6.6229C114.709 3.65572 125.515 3.53346 144.967 3.55272C164.924 5.55472 175.457 7.52988 193.321 12.2515C199.736 14.7759 202.32 16.7264 204.869 21.2915C206.474 26.7583 205.445 29.3026 200.719 33.0605L202.162 33.5722C210.287 25.8182 209.934 21.2019 196.208 12.2515C178.677 6.61195 166.974 4.89706 145.869 2.01763C127.124 1.87773 116.616 2.54543 97.8762 4.91724C80.5839 7.87463 71.698 11.6105 62.5128 18.3919C62.1572 19.6004 61.9784 20.2851 62.5128 21.8032C60.0584 24.7803 55.6566 27.4319 55.6566 30.1609C55.6566 32.8899 60.5641 34.7916 65.2192 35.619L70.9928 36.3013C71.1237 37.8088 71.8167 38.255 73.8796 38.5186Z" fill="black"/>
<path d="M87.7724 84.9123C82.5227 87.6722 80.0678 89.5116 80.1945 95.4874C82.8736 93.0693 84.7339 92.2534 88.6745 91.735C84.7672 95.415 84.2794 97.466 84.5247 101.116C91.2055 97.5215 95.4434 96.1049 104.011 94.8051C107.293 92.887 108.274 91.4405 109.965 88.8353C104.164 92.1849 100.381 93.4592 91.9221 93.7817C94.328 91.7485 95.8678 90.5863 98.7783 88.4942C92.9484 88.3649 89.9552 88.7611 85.2464 90.541C84.6821 88.802 85.6657 87.4421 87.7724 84.9123Z" fill="black"/>
<path d="M98.237 39.2009C99.0206 39.9988 99.6146 40.5488 100.763 41.5888C102.3 39.7926 103.607 39.7615 106.176 40.2242C134.555 37.6115 149.683 41.6208 177.083 45.8529V45.1706C146.937 40.3754 130.324 36.5875 98.237 39.2009Z" fill="black"/>
<path d="M93.9068 54.5517C100.969 53.7727 107.237 53.2437 112.914 52.9232C107.612 52.9329 101.933 53.0205 95.7111 53.1872C95.7623 50.516 95.9597 49.0716 98.0566 47.0469C96.9974 43.8859 96.4886 42.1303 96.6132 39.2009L97.5154 38.1775C115.84 36.689 128.04 36.0494 136.564 35.9631C131.846 35.7151 127.072 35.632 122.053 35.7201C120.924 35.7399 119.782 35.7684 118.625 35.8056C113.293 35.9773 107.65 36.3345 101.485 36.8844C100.36 36.9847 99.2176 37.0914 98.0566 37.2046C97.1071 37.2971 96.1451 37.394 95.1698 37.4952C95.1174 38.1121 95.0874 38.6748 95.0885 39.2009C95.0892 39.557 95.1042 39.8963 95.1362 40.2242C95.3069 41.9763 94.1576 44.428 95.7111 46.3646C92.9037 49.3073 94.3387 50.4975 93.9068 54.5517Z" fill="black"/>
<path d="M158.261 55.2489C143.326 53.6793 130.099 52.8918 112.914 52.9232C132.179 51.8358 144.646 53.15 158.261 55.2489Z" fill="black"/>
<path d="M179.609 58.6453V57.7925C171.829 56.7932 164.877 55.9443 158.261 55.2489C164.815 56.2593 171.636 57.4516 179.609 58.6453Z" fill="black"/>
<path d="M171.851 40.4522C166.873 39.5533 162.216 38.7763 157.742 38.1257C161.013 39.0941 164.078 40.2163 170.068 41.1143C181.81 42.8744 179.275 42.0048 175.443 41.0435C175.447 41.063 175.452 41.0826 175.456 41.1022C175.544 41.126 175.553 41.1317 175.459 41.1143C174.237 40.8867 173.035 40.666 171.851 40.4522Z" fill="black"/>
<path d="M148.395 36.928C148.443 36.729 148.489 36.536 148.533 36.348C145.526 36.061 141.717 35.9109 136.564 35.9631C140.509 36.1705 144.416 36.4933 148.395 36.928Z" fill="black"/>
<path d="M151.664 36.7343C151.658 36.9206 151.651 37.1106 151.643 37.3052C153.646 37.5514 155.674 37.8251 157.742 38.1257C155.949 37.595 154.095 37.1105 151.664 36.7343Z" fill="black"/>
<path d="M133.059 125.336C133.961 124.825 132.148 124.238 131.255 124.313C128.441 125.392 128.517 126.721 129.812 129.6L130.894 128.236C141.458 130.242 146.862 129.916 155.071 125.336L156.695 127.554C157.256 125.392 156.954 124.168 153.447 121.925C152.64 122.29 152.205 122.518 151.823 123.46L153.447 124.313C149.556 127.671 135.45 128.996 132.698 126.871C132.475 126.699 132.157 125.848 133.059 125.336Z" fill="black"/>
<path d="M123.497 165.419C121.953 167.166 121.052 168.107 119.347 169.683L111.949 169.513C111.201 162.507 109.26 159.551 104.913 154.844V158.255C96.3375 154.424 92.7246 151.207 87.0507 144.781C85.994 145.56 86.1053 146.099 87.0507 147.169C72.3834 140.546 66.3178 134.504 62.9823 122.778L57.6067 119.084C57.5008 119.227 57.3922 119.378 57.2805 119.537C57.1053 119.189 56.9353 118.847 56.7702 118.509L22.2779 94.8051C18.9012 94.4106 18.2128 95.3281 18.3085 98.2164L60.1673 127.212C60.1031 128.528 59.5778 129.089 57.2805 129.6L14.8805 101.116C11.984 100.795 11.1646 101.429 11.8132 104.698L53.5934 132.671C52.6374 134.78 51.7474 135.655 48.0788 135.4L9.46769 108.962C6.72018 109.074 5.23517 109.193 6.40045 113.226L48.0788 139.493C51.5964 141.484 53.6912 142.405 57.8217 143.416C62.2789 143.457 64.652 143.12 68.6473 141.881L118.001 176.497L118.986 177.188L129.16 169.76L123.497 165.419Z" fill="black"/>
<path d="M52.1854 103.333L29.4949 88.3236C25.1326 88.0353 24.892 89.109 24.8039 91.3938L53.5934 110.668C52.8763 108.288 52.4252 105.933 52.1854 103.333Z" fill="black"/>
<path d="M159.762 167.466C156.645 168.669 154.908 169.38 152.184 171.901H146.952C147.07 170.122 147.052 169.537 146.952 168.83C145.976 170.231 145.471 170.692 144.606 171.218C142.071 171.279 140.649 171.264 138.111 170.877C137.083 170.107 136.608 169.659 135.946 168.83C135.543 169.107 135.385 169.341 135.766 170.536H130.172L129.16 169.76L118.986 177.188L118.001 176.497L75.323 202.261C73.2477 210.648 74.7744 213.708 85.066 214.542L134.683 186.033L150.886 176.723L161.655 170.536C160.964 169.729 160.379 168.783 159.762 167.466Z" fill="black"/>
<path d="M150.886 176.723L134.683 186.033L184.48 220C195.075 218.637 197.429 215.912 195.847 207.89L150.886 176.723Z" fill="black"/>
<path fill-rule="evenodd" clip-rule="evenodd" d="M228.865 106.404C228.429 115.864 227.9 121.053 224.354 129.259C223.121 127.073 222.17 126.136 219.844 125.166C218.934 132.912 218.566 137.345 212.627 141.881C207.169 146.965 203.856 149.542 196.389 152.456L195.847 150.751C190.288 155.813 186.645 158.349 180.366 161.084L201.44 184.522L281.189 139.493C283.712 136.061 283.493 133.812 281.189 129.6L251.418 101.457C246.833 99.3967 244.396 99.3026 240.232 100.604L228.679 105.039C228.743 105.485 228.805 105.939 228.865 106.404ZM244.021 113.397C240.48 112.677 239.435 111.731 239.149 109.133C240.229 107.218 241.084 106.361 244.021 106.062C247.296 106.97 248.168 108.046 248.532 110.668C247.819 112.46 247.139 113.271 244.021 113.397Z" fill="black"/>
<path d="M70.9928 58.6453C65.3173 50.883 65.1852 46.1633 67.0234 37.4952C68.9301 39.2549 70.1669 39.8216 72.6166 40.2242C72.3522 46.3576 72.685 49.7948 76.2251 55.9162C77.0246 56.1079 77.3693 56.0535 77.849 55.7457C77.3057 50.4904 76.2557 47.2754 80.1945 43.6355C78.203 42.6922 77.5952 43.1038 76.586 43.9767C76.8683 42.556 77.4172 42.0056 79.2924 41.5888C85.8756 41.6921 88.0193 41.9081 91.9221 42.271C92.4226 46.1206 92.3827 48.5992 90.4787 53.5283H85.9681C87.3256 55.1238 88.4438 55.8966 91.9221 56.7691C81.4109 58.7293 76.1479 60.8785 68.6473 67.8558C72.4339 67.8373 74.5347 67.8914 78.2098 68.1969C61.094 79.1227 57.7188 88.2101 60.1673 108.45C63.5537 104.576 65.7973 102.77 70.6319 100.434C63.7116 116.587 66.6489 124.434 81.2771 136.764C80.3054 132.351 81.2778 130.426 83.6226 127.212C85.3997 136.73 87.612 141.616 97.3349 148.192C96.3955 142.904 96.48 140.02 99.3196 135.229C101.906 143.691 104.441 148.041 111.589 154.844C114.849 158.677 115.868 161.033 116.28 165.59C119.955 164.154 120.086 161.622 119.888 156.72C123.742 160.924 126.054 163.008 130.714 165.76C132.637 163.319 132.697 160.925 132.698 156.55C135.326 160.885 136.883 163.294 141.359 167.125C146.372 164.093 147.661 161.707 149.478 157.232C150.861 160.674 151.331 162.674 151.282 166.443C157.331 164.069 159.52 162.119 163.01 158.426C162.771 162.976 163.231 165.381 166.077 169.172C166.316 162.688 168.972 158.571 177.624 150.75C181.192 147.714 181.998 144.946 182.857 139.493C185.457 144.235 185.915 147.192 184.48 153.138C193.394 148.313 196.31 143.917 198.373 133.523C200.177 137.299 200.815 139.399 200.358 143.075C208.424 138.672 210.735 134.884 213.89 127.554C215.191 120.02 214.459 116 211.003 109.133C215.596 111.639 218.284 113.369 220.746 117.49C224.018 110.455 222.85 105.792 220.385 96.6813C216.692 86.8329 212.925 82.6632 204.327 76.7252C207.8 76.371 209.738 76.4768 213.168 77.578C208.089 70.7552 203.697 67.5858 191.156 63.9328C194.376 63.1565 195.746 62.614 196.389 61.2038C189.154 60.399 185.735 58.3928 179.609 52.6755C178.848 49.8347 178.726 48.2059 179.609 45.1706C182.67 38.2523 186.065 36.7548 192.96 35.2778C203.237 34.738 207.186 35.7528 212.446 38.8597C210.119 39.4079 209.297 39.7831 208.657 40.5654C215.646 46.394 216.926 50.3107 215.514 58.1336C215.196 62.2797 214.641 64.5065 211.905 68.0264C218.202 73.073 220.462 76.2742 223.813 82.1833L217.679 81.1599C225.044 90.1412 227.326 95.6242 228.679 105.039M70.9928 58.6453L70.8587 58.7397M70.9928 58.6453C70.9478 58.677 70.9031 58.7084 70.8587 58.7397M169.325 112.373C164.038 106.358 164.099 102.673 163.551 96.1696C163.153 93.1133 162.734 91.4978 161.206 89.0059C162.673 89.9248 163.503 90.2338 164.994 90.3704C167.343 90.1054 168.11 89.7545 169.144 89.0059C165.363 89.113 163.811 88.7896 162.649 87.1297C166.011 87.5991 167.357 87.5272 169.325 87.1297C171.639 85.8437 172.787 85.1084 174.016 83.7184C175.139 84.4928 175.433 84.5015 176 84.5712C175.112 82.8258 174.41 81.9442 172.212 80.8188C170.631 79.5976 167.906 79.5832 164.453 79.1131C165.549 78.2447 166.902 78.1183 170.768 78.6014C163.918 74.4623 160.298 75.8261 154.169 83.7184C155.615 82.2897 156.398 81.6869 157.597 82.0127C155.124 83.5752 154.664 84.8889 154.71 87.6414C159.267 89.1021 160.404 90.865 161.747 94.464C161.764 98.9935 161.765 101.533 161.747 106.062C165.024 116.397 166.448 123.24 165.175 128.236C147.571 141.327 130.776 137.438 118.084 125.848C115.754 118.337 117.58 113.934 121.151 106.062C120.873 100.204 120.843 96.7576 121.873 91.0527C124.066 87.0781 125.856 86.502 129.09 85.5946C128.82 83.8178 128.101 82.5826 125.842 79.9659C126.652 79.5514 127.471 80.2836 129.09 82.0127C127.439 77.9621 126.057 75.9242 120.249 73.9962C116.357 73.2938 114.646 73.4561 112.671 75.0196C115.836 74.9301 117.213 75.3702 119.347 76.5546C116.978 76.2914 115.765 76.1297 111.949 76.0429C109.349 77.3045 108.126 78.181 107.439 80.8188C108.352 79.8361 108.712 79.7599 109.243 79.9659C112.051 83.2286 114.435 83.8692 120.79 84.9123C119.101 85.5167 117.698 86.3195 114.656 86.2769C117.229 87.1781 118.851 87.2695 121.873 87.1297C120.811 88.2853 120.135 91.5603 118.806 101.457C114.883 108.708 111.481 111.762 104.732 116.637C105.179 114.163 109.078 109.312 113.934 102.651C108.083 107.769 104.766 110.608 95.8915 113.226C97.4619 109.918 99.1651 108.468 102.567 106.062C96.735 107.181 93.5455 108.252 88.1332 111.691C88.0243 109.795 89.0969 108.662 92.1026 106.574C80.6679 107.953 78.3697 112.288 77.849 123.119C80.0267 118.747 81.2873 116.343 85.7877 114.761C84.6926 118.024 84.8274 119.935 86.1485 123.46C87.6822 120.684 88.8627 119.314 91.7417 117.32C88.5694 124.063 89.0699 128.583 91.3809 137.105C92.8895 129.549 94.363 125.902 99.6805 121.925V130.965C100.531 128.464 101.297 127.251 103.83 125.848C103.768 136.76 104.631 142.487 113.393 149.557C112.716 145.08 112.996 142.653 114.656 138.47C116.821 146.811 119.722 150.302 126.564 155.356C125.359 149.17 125.829 146.222 129.812 142.393C129.597 146.743 130.365 148.93 133.059 152.456C133.435 148.835 133.946 146.991 135.766 144.269C135.107 150.982 136.777 154.301 141.72 159.79C146.536 155.632 147.348 152.193 147.493 145.292C149.107 147.77 149.571 149.529 149.839 153.138C151.865 151.313 152.609 149.034 153.447 143.416C156.432 148.529 157.082 151.571 156.875 157.232C163.252 152.707 165.269 148.988 168.242 141.881C169.685 145.764 169.82 148.147 169.866 152.456C179.646 145.202 180.489 139.895 178.887 129.6C180.924 131.413 181.836 132.73 183.217 135.4C182.812 131.018 182.814 128.929 183.217 125.848C187.162 131.656 188.779 135.138 191.156 141.54C193.707 134.989 193.657 130.911 190.434 122.778C193.586 124.475 194.66 126.12 196.028 129.6C197.309 126.523 197.685 124.677 197.471 121.072C200.327 124.264 201.687 126.139 203.786 129.6C204.286 118.974 201.423 115.002 189.532 112.203L194.765 117.49C190.826 114.909 180.256 110.469 179.97 110.668C179.683 110.866 184.937 115.457 186.826 118.343C178.854 114.069 175.302 111.252 169.325 106.062C174.715 113.008 177.342 116.683 177.805 120.902M169.325 112.373C172.636 115.704 174.493 117.571 177.805 120.902M169.325 112.373L177.805 120.902M120.79 72.6316C120.961 72.641 121.128 72.651 121.292 72.6615M129.09 79.4543C129.114 79.339 129.138 79.2253 129.16 79.1131M120.61 72.4611C120.845 72.5275 121.072 72.5942 121.292 72.6615M129.16 79.1131C129.938 75.3019 129.896 73.2123 121.292 72.6615M129.16 79.1131C127.459 75.8585 126.14 74.1431 121.292 72.6615M153.808 81.3305C154.645 75.9279 156.141 74.3964 162.649 75.0196C157.167 76.2918 156.012 78.0241 153.834 81.2923M153.808 81.3305L153.834 81.2923M153.808 81.3305C153.817 81.3177 153.825 81.305 153.834 81.2923M95.1698 37.4952C95.1174 38.1121 95.0874 38.6748 95.0885 39.2009M95.1698 37.4952C97.3374 37.2702 99.4398 37.0667 101.485 36.8844M95.1698 37.4952C96.1451 37.394 97.1071 37.2971 98.0566 37.2046M95.1362 40.2242C95.3069 41.9763 94.1576 44.428 95.7111 46.3646C92.9037 49.3073 94.3387 50.4975 93.9068 54.5517C100.969 53.7727 107.237 53.2437 112.914 52.9232M95.1362 40.2242C86.8436 40.2575 82.1891 39.8711 73.8796 38.5186C71.8167 38.255 71.1237 37.8088 70.9928 36.3012L65.2192 35.619C60.5641 34.7916 55.6566 32.8899 55.6566 30.1609C55.6566 27.4319 60.0584 24.7803 62.5128 21.8032C61.9784 20.2851 62.1572 19.6004 62.5128 18.3919C71.698 11.6105 80.5839 7.87463 97.8762 4.91724C116.616 2.54543 127.124 1.87773 145.869 2.01763C166.974 4.89706 178.677 6.61195 196.208 12.2515C209.934 21.2019 210.287 25.8182 202.162 33.5722L200.719 33.0605C205.445 29.3026 206.474 26.7583 204.869 21.2915C202.32 16.7264 199.736 14.7759 193.321 12.2515C175.457 7.52988 164.924 5.55472 144.967 3.55272C125.515 3.53346 114.709 3.65572 97.5154 6.6229C85.4243 8.91973 78.6397 9.98305 66.6626 16.8568C64.5273 17.4575 63.7332 18.1678 64.1366 21.1209C63.5629 23.2356 63.0882 24.5136 58.363 29.1375C57.0272 31.5188 61.9715 34.425 65.58 34.425C69.1885 34.425 69.5359 35.319 71.7145 35.2779C71.7077 36.084 71.999 36.4981 73.1579 37.1541C81.7236 38.8161 86.5255 39.3909 95.0885 39.2009M95.1362 40.2242C95.1042 39.8963 95.0892 39.557 95.0885 39.2009M98.0566 37.2046C96.8726 33.9713 94.7505 32.539 91.02 31.1843C75.099 28.6647 71.8068 25.7523 67.0234 20.2681C75.9942 27.4873 82.4803 29.1553 94.6285 31.1843C98.0118 32.9374 99.3513 34.2938 101.485 36.8844M98.0566 37.2046C99.2176 37.0914 100.36 36.9847 101.485 36.8844M101.485 36.8844C107.65 36.3345 113.293 35.9773 118.625 35.8056M118.625 35.8056C116.474 32.9277 115.722 31.1554 115.017 27.773C114.243 23.4186 113.754 20.9837 112.491 16.6862C110.907 13.9691 109.644 12.119 106.176 9.01081M118.625 35.8056C119.782 35.7684 120.924 35.7399 122.053 35.7201M106.176 9.01081C109.135 11.542 110.794 12.9611 113.754 15.4923M106.176 9.01081L113.754 15.4923M113.754 15.4923C115.828 20.3224 116.476 23.0086 117.001 27.773C118.001 31.0077 119.322 32.7189 122.053 35.7201M122.053 35.7201C127.072 35.632 131.846 35.7151 136.564 35.9631M148.395 36.928C149.472 37.0456 150.554 37.1713 151.643 37.3052M148.395 36.928C144.416 36.4933 140.509 36.1705 136.564 35.9631M148.395 36.928C148.443 36.729 148.489 36.536 148.533 36.348M151.643 37.3052C153.646 37.5514 155.674 37.8251 157.742 38.1257M151.643 37.3052C151.651 37.1106 151.658 36.9206 151.664 36.7343M171.851 40.4522C172.946 36.4186 173.427 36.2041 174.377 34.425C182.864 27.1418 186.346 23.4757 193.321 16.6862L176.181 34.425C175.257 37.3761 174.964 38.9147 175.443 41.0435M171.851 40.4522C173.035 40.666 174.237 40.8867 175.459 41.1143M171.851 40.4522C166.873 39.5533 162.216 38.7763 157.742 38.1257M175.459 41.1143C175.553 41.1317 175.544 41.126 175.456 41.1022M175.459 41.1143C175.458 41.1103 175.457 41.1062 175.456 41.1022M154.169 107.256C153.984 105.628 152.142 103.136 148.395 101.457C142.004 98.1436 132.293 100.071 129.16 105.721C132.372 104.116 134.174 104.124 137.389 104.698C139.508 106.209 139.93 107.149 139.554 108.962C138.318 111.789 136.691 112.109 133.059 111.691C134.804 110.464 135.133 109.756 134.322 108.45C133.209 108.03 132.622 107.985 131.616 108.109C129.713 110.084 129.85 111.506 130.894 114.25C133.409 116.525 135.066 117.402 138.833 117.661C140.807 116.727 141.344 115.935 141.72 114.25C142.256 115.934 142.648 116.774 143.885 117.661C148.513 117.957 150.31 116.947 152.906 114.25C153.375 111.987 152.982 110.962 151.823 109.303C150.645 108.621 149.974 108.516 148.756 108.962C148.539 110.507 148.883 111.246 150.2 112.373C146.756 112.954 145.24 112.273 143.885 109.303C143.144 106.146 144.448 105.4 148.395 105.039C151.306 105.324 152.437 105.928 154.169 107.256ZM154.169 107.256L157.597 107.768M157.597 107.768C156.968 103.676 156.039 101.246 150.56 98.2164C144.554 96.195 140.465 95.8253 132.698 97.5342C128.651 98.3244 127.472 100.176 125.842 103.333C123.817 109.352 124.589 112.141 129.812 117.661C134.633 120.805 137.904 121.099 143.885 121.243C148.855 121.136 151.183 119.99 155.071 117.32C157.554 114.917 157.994 112.722 157.597 107.768ZM70.8587 58.7397C68.0693 60.7032 66.4645 61.8329 63.5953 64.2739C60.4053 67.0658 59.5555 68.5031 57.8217 71.0966C61.6958 70.5667 62.6068 70.8897 63.5953 71.7788C56.7108 79.9031 54.2171 84.8808 52.0481 94.464C51.9169 97.8515 51.944 100.716 52.1854 103.333M112.914 52.9232C107.612 52.9329 101.933 53.0205 95.7111 53.1872C95.7623 50.516 95.9597 49.0716 98.0566 47.0469C96.9974 43.8859 96.4886 42.1303 96.6132 39.2009L97.5154 38.1775C115.84 36.689 128.04 36.0494 136.564 35.9631M112.914 52.9232C130.099 52.8918 143.326 53.6793 158.261 55.2489M112.914 52.9232C132.179 51.8358 144.646 53.15 158.261 55.2489M136.564 35.9631C141.717 35.9109 145.526 36.061 148.533 36.348M158.261 55.2489C164.815 56.2593 171.636 57.4516 179.609 58.6453V57.7925C171.829 56.7932 164.877 55.9443 158.261 55.2489ZM157.742 38.1257C161.013 39.0941 164.078 40.2163 170.068 41.1143C181.81 42.8744 179.275 42.0048 175.443 41.0435M157.742 38.1257C155.949 37.595 154.095 37.1105 151.664 36.7343M175.443 41.0435C175.447 41.063 175.452 41.0826 175.456 41.1022M175.443 41.0435C172.942 40.4162 169.888 39.7498 169.888 39.7498C169.132 39.6066 174.763 40.9148 175.456 41.1022M148.533 36.348C149.096 33.9349 149.345 32.3398 149.297 29.3081C151.407 27.3159 152.244 26.0064 153.447 23.5089L159.221 9.01081C157.057 15.0945 155.513 18.5236 154.71 24.5322C153.768 26.5723 153.337 27.7822 151.643 29.3081C151.726 32.5368 151.746 34.3314 151.664 36.7343M148.533 36.348C149.684 36.4579 150.718 36.5879 151.664 36.7343M52.1854 103.333L29.4949 88.3236C25.1326 88.0353 24.892 89.109 24.8039 91.3938L53.5934 110.668M52.1854 103.333C52.4252 105.933 52.8763 108.288 53.5934 110.668M53.5934 110.668C54.3418 113.152 55.38 115.663 56.7702 118.509M62.9823 122.778C66.3178 134.504 72.3834 140.546 87.0507 147.169C86.1053 146.099 85.994 145.56 87.0507 144.781C92.7246 151.207 96.3375 154.424 104.913 158.255V154.844C109.26 159.551 111.201 162.507 111.949 169.513L119.347 169.683C121.052 168.107 121.953 167.166 123.497 165.419L129.16 169.76M62.9823 122.778C62.3898 120.695 61.8834 118.432 61.4302 115.955C59.8296 116.641 58.9216 117.3 57.6067 119.084M62.9823 122.778L57.6067 119.084M129.16 169.76L130.172 170.536H135.766C135.385 169.341 135.543 169.107 135.946 168.83C136.608 169.659 137.083 170.107 138.111 170.877C140.649 171.264 142.071 171.279 144.606 171.218C145.471 170.692 145.976 170.231 146.952 168.83C147.052 169.537 147.07 170.122 146.952 171.901H152.184C154.908 169.38 156.645 168.669 159.762 167.466C160.379 168.783 160.964 169.729 161.655 170.536M129.16 169.76L118.986 177.188L118.001 176.497M129.16 169.76L118.001 176.497M57.6067 119.084C57.5008 119.227 57.3922 119.378 57.2805 119.537C57.1053 119.189 56.9353 118.847 56.7702 118.509M57.6067 119.084L56.7702 118.509M56.7702 118.509L22.2779 94.8051C18.9012 94.4106 18.2128 95.3281 18.3085 98.2164L60.1673 127.212C60.1031 128.528 59.5778 129.089 57.2805 129.6L14.8805 101.116C11.984 100.795 11.1646 101.429 11.8132 104.698L53.5934 132.671C52.6374 134.78 51.7474 135.655 48.0788 135.4L9.46769 108.962C6.72018 109.074 5.23517 109.193 6.40045 113.226L48.0788 139.493C51.5964 141.484 53.6912 142.405 57.8217 143.416C62.2789 143.457 64.652 143.12 68.6473 141.881L118.001 176.497M161.655 170.536C162.441 171.455 163.366 172.194 164.634 173.095H170.227C170.574 166.333 172.924 163.588 177.624 158.938C178.19 159.898 178.391 160.514 178.166 162.008C178.936 161.695 179.667 161.388 180.366 161.084M161.655 170.536L150.886 176.723M118.001 176.497L75.323 202.261C73.2477 210.648 74.7744 213.708 85.066 214.542L134.683 186.033M134.683 186.033L184.48 220C195.075 218.637 197.429 215.912 195.847 207.89L150.886 176.723M134.683 186.033L150.886 176.723M150.56 176.497L150.886 176.723M179.97 160.643L180.366 161.084M228.679 105.039C228.743 105.485 228.805 105.939 228.865 106.404C228.429 115.864 227.9 121.053 224.354 129.259C223.121 127.073 222.17 126.136 219.844 125.166C218.934 132.912 218.566 137.345 212.627 141.881C207.169 146.965 203.856 149.542 196.389 152.456L195.847 150.75C190.288 155.813 186.644 158.349 180.366 161.084M228.679 105.039L240.232 100.604C244.396 99.3026 246.833 99.3967 251.418 101.457L281.189 129.6C283.493 133.812 283.712 136.061 281.189 139.493L201.44 184.522L180.366 161.084M87.7724 84.9123C82.5227 87.6722 80.0678 89.5116 80.1945 95.4874C82.8736 93.0693 84.7339 92.2534 88.6745 91.735C84.7672 95.415 84.2794 97.466 84.5247 101.116C91.2055 97.5215 95.4434 96.1049 104.011 94.8051C107.293 92.887 108.274 91.4405 109.965 88.8353C104.164 92.1849 100.381 93.4592 91.9221 93.7817C94.328 91.7485 95.8678 90.5863 98.7783 88.4942C92.9484 88.3649 89.9552 88.7611 85.2464 90.541C84.6821 88.802 85.6657 87.4421 87.7724 84.9123ZM184.3 51.9932C181.733 51.263 180.98 50.2519 181.233 47.0469C181.621 42.2554 183.464 40.6832 187.187 38.1775C186.619 40.0328 186.638 40.9999 187.187 42.6122C192.791 36.8582 196.162 37.5959 202.162 38.6892C201.097 39.9057 200.495 40.3863 198.914 40.7359C205.035 42.2823 209.276 41.8288 209.379 53.1872C210.096 58.5185 209.132 61.051 205.049 64.7856C205.981 59.4916 206.358 56.5478 202.884 51.9932C204.372 51.6142 205.042 51.8796 205.951 53.1872C204.51 50.4114 203.424 49.2341 200.177 48.9231C202.289 48.1923 203.519 48.4969 205.771 49.9465C204.497 47.049 203.335 45.6662 197.291 45.3412C192.945 45.2166 190.465 44.9783 187.548 50.2876C186.236 49.3968 185.848 48.8271 185.563 47.7291C184.33 49.364 184.009 50.2957 184.3 51.9932ZM172.572 92.2467C176.173 97.8797 179.767 99.8645 187.187 102.651C192.81 104.141 195.133 105.415 197.832 108.45C198.951 104.524 197.837 102.151 193.682 97.7047C197.496 99.305 199.424 100.364 202.343 102.651C202.967 97.7613 200.509 95.4066 194.765 91.3938C196.674 93.7219 197.67 95.0159 197.471 97.0225C194.304 96.3527 191.234 95.5099 184.661 93.6112C186.397 97.0105 187.774 98.1375 190.434 99.7515C183.168 98.7859 179.246 97.2205 172.572 92.2467ZM117.543 56.7691C125.326 59.8044 129.422 61.6576 134.322 66.3207L133.24 62.3977C135.412 63.8521 136.575 64.9302 138.472 67.6852C138.817 65.9702 138.778 64.8414 138.111 62.3977C140.039 64.0778 140.719 65.1726 141.359 67.3441C142.824 64.3145 143.88 63.4855 145.869 62.3977C145.989 63.6929 145.592 64.9416 144.426 67.6852C146.622 65.6227 147.894 64.6112 150.38 63.5917L149.297 67.3441C155.266 62.7393 158.997 61.3917 166.077 60.3509L155.071 61.5449C155.42 60.2735 156.376 59.4001 158.319 57.7925L150.38 61.0332C150.013 59.2751 150.711 58.2047 152.365 56.2574C149.807 55.9484 148.116 56.395 144.426 58.8159C144.394 59.5611 144.195 59.9716 143.524 60.6921C143.094 60.1553 142.854 59.8545 142.802 59.4981C142.533 60.129 142.339 60.4739 141.72 61.0332C140.154 58.1812 138.519 57.4329 135.766 55.9162C133.47 55.8885 132.667 55.9685 131.977 56.2574C133.136 57.8481 133.58 58.6649 133.6 59.8392C130.995 58.6618 129.332 57.6709 125.842 55.9162C127.588 57.647 128.365 58.5591 128.549 59.8392C124.219 59.0297 121.818 58.244 117.543 56.7691ZM98.237 39.2009C99.0206 39.9988 99.6146 40.5488 100.763 41.5888C102.3 39.7926 103.607 39.7615 106.176 40.2242C134.555 37.6115 149.683 41.6208 177.083 45.8529V45.1706C146.937 40.3754 130.324 36.5875 98.237 39.2009ZM133.059 125.336C133.961 124.825 132.148 124.238 131.255 124.313C128.441 125.392 128.517 126.721 129.812 129.6L130.894 128.236C141.458 130.242 146.862 129.916 155.071 125.336L156.695 127.554C157.256 125.392 156.954 124.168 153.447 121.925C152.64 122.29 152.205 122.518 151.823 123.46L153.447 124.313C149.556 127.671 135.45 128.996 132.698 126.871C132.475 126.699 132.157 125.848 133.059 125.336ZM159.762 85.424C160.169 84.3063 160.757 83.8577 162.108 83.2067C161.96 84.5452 162.325 85.04 163.551 85.5946C162.07 85.9501 161.24 85.9344 159.762 85.424ZM164.453 83.0361C164.215 82.3239 164.248 82.0035 164.814 81.6716C167.73 81.2938 169.168 81.3822 171.309 82.1833C170.654 84.0822 169.923 84.9262 167.52 85.7652C168.406 83.0591 167.776 82.4295 164.453 83.0361ZM111.949 78.2603C111.083 78.7064 113.723 81.5501 115.738 82.5244C115.818 81.1742 115.401 80.4187 115.738 79.6248C116.911 80.0627 117.58 80.1677 118.806 79.9659C119.095 79.7174 119.123 79.5265 118.986 79.1131C116.855 78.3307 115.687 78.0755 111.949 78.2603ZM119.888 83.2067C118.986 83.2067 121.692 81.6716 121.151 80.6482C120.61 79.6248 124.218 82.0127 124.038 82.8656C122.676 83.317 119.888 83.2067 119.888 83.2067ZM239.149 109.133C239.435 111.731 240.48 112.677 244.021 113.397C247.139 113.271 247.819 112.46 248.532 110.668C248.168 108.046 247.296 106.97 244.021 106.062C241.084 106.361 240.229 107.218 239.149 109.133Z" stroke="black" stroke-width="0.5"/>
</g>
<defs>
<filter id="filter0_d_75_296" x="0.75" y="0.75" width="287.5" height="228.51" filterUnits="userSpaceOnUse" color-interpolation-filters="sRGB">
<feFlood flood-opacity="0" result="BackgroundImageFix"/>
<feColorMatrix in="SourceAlpha" type="matrix" values="0 0 0 0 0 0 0 0 0 0 0 0 0 0 0 0 0 0 127 0" result="hardAlpha"/>
<feOffset dy="4"/>
<feGaussianBlur stdDeviation="2.5"/>
<feComposite in2="hardAlpha" operator="out"/>
<feColorMatrix type="matrix" values="0 0 0 0 0.737255 0 0 0 0 0.51451 0 0 0 0 0.180392 0 0 0 0.43 0"/>
<feBlend mode="normal" in2="BackgroundImageFix" result="effect1_dropShadow_75_296"/>
<feBlend mode="normal" in="SourceGraphic" in2="effect1_dropShadow_75_296" result="shape"/>
</filter>
</defs>
</svg>
