<svg width="207" height="174" viewBox="0 0 207 174" fill="none" xmlns="http://www.w3.org/2000/svg">
<g filter="url(#filter0_d_98_286)">
<path d="M92.7014 79.0773C94.9069 74.8782 101.743 73.4462 106.242 75.9085C108.88 77.1559 110.176 79.0078 110.307 80.218L112.72 80.5983C112.277 77.5571 111.623 75.7513 107.766 73.5003C103.538 71.9981 100.66 71.7234 95.192 72.9933C92.3429 73.5805 91.513 74.9566 90.3654 77.3028C88.9398 81.7754 89.4831 83.8477 93.1597 87.9498C96.5536 90.2863 98.8563 90.5045 103.067 90.6116C106.566 90.5325 108.205 89.6808 110.942 87.6963C112.69 85.9106 112.999 84.2797 112.72 80.5983L110.307 80.218C109.088 79.2306 108.291 78.7822 106.242 78.5703C103.463 78.8388 102.546 79.3926 103.067 81.7391C104.021 83.9461 105.088 84.4522 107.512 84.0206C106.585 83.1831 106.343 82.6336 106.496 81.4855C107.354 81.1542 107.826 81.2323 108.655 81.7391C109.471 82.9721 109.748 83.7337 109.418 85.4148C107.59 87.4191 106.325 88.1698 103.067 87.9498C102.196 87.2906 101.92 86.6664 101.543 85.4148C101.278 86.6675 100.9 87.2559 99.5104 87.9498C96.8585 87.7578 95.692 87.1055 93.9218 85.4148C93.1869 83.3758 93.0901 82.3195 94.4299 80.8518C95.1382 80.7598 95.5512 80.793 96.3351 81.1053C96.9062 82.0758 96.6742 82.6019 95.446 83.5136C98.0027 83.8242 99.1479 83.5862 100.019 81.4855C100.283 80.1385 99.9858 79.44 98.4943 78.3168C96.231 77.8905 94.9624 77.8846 92.7014 79.0773Z" fill="black"/>
<path fill-rule="evenodd" clip-rule="evenodd" d="M135.201 83.8938C143.572 85.9737 145.587 88.9259 145.236 96.8223C143.758 94.2503 142.8 92.8568 140.79 90.4848C140.941 93.1636 140.676 94.5356 139.774 96.8223C138.811 94.2359 138.055 93.0135 135.837 91.7523C138.105 97.7959 138.14 100.827 136.345 105.695C134.671 100.937 133.533 98.3498 130.756 94.0338C130.472 96.3236 130.47 97.8755 130.756 101.132C129.783 99.1483 129.141 98.1696 127.708 96.8223C128.835 104.473 128.242 108.416 121.357 113.807C121.324 110.604 121.229 108.834 120.214 105.948C118.121 111.23 116.701 113.993 112.212 117.356C112.357 113.149 111.9 110.888 109.799 107.089C109.208 111.264 108.685 112.957 107.258 114.314C107.07 111.632 106.743 110.324 105.607 108.483C105.505 113.611 104.934 116.167 101.543 119.257C98.0633 115.178 96.8877 112.712 97.3512 107.723C96.0701 109.746 95.7104 111.116 95.446 113.807C93.5494 111.187 93.0086 109.561 93.1597 106.329C90.356 109.174 90.0256 111.365 90.8735 115.962C86.0569 112.206 84.0148 109.612 82.4905 103.413C81.3223 106.522 81.1247 108.325 81.6014 111.652C75.433 106.399 74.8261 102.143 74.8697 94.0338C73.0863 95.0765 72.5471 95.9781 71.9483 97.8363V91.1186C68.205 94.0742 67.1677 96.7841 66.1057 102.399C64.4788 96.0665 64.1265 92.7076 66.3597 87.6963C64.3329 89.1784 63.5019 90.1966 62.4223 92.2593C61.4922 89.6397 61.3973 88.2199 62.1682 85.7951C59.0001 86.9703 58.1126 88.7566 56.5796 92.0058C56.9462 83.9573 58.564 80.7359 66.6137 79.7111C64.4978 81.2628 63.7428 82.1047 63.8194 83.5136C67.6295 80.9582 69.8748 80.1621 73.9806 79.3308C71.5856 81.1187 70.3865 82.1958 69.281 84.6543C75.5285 82.7086 77.8634 80.5987 81.9825 76.7958C78.5636 81.7455 75.8189 85.3502 75.5047 87.1893C80.2554 83.566 82.6508 81.2967 85.4118 75.9085C86.348 68.554 86.8238 66.1203 87.5711 65.2615C85.4436 65.3654 84.3023 65.2975 82.4905 64.6278C84.6322 64.6595 85.6202 64.0628 86.809 63.6137C82.3349 62.8386 80.657 62.3625 78.6801 59.938C78.3061 59.7849 78.053 59.8415 77.4099 60.5717C77.8935 58.6116 78.7544 57.9602 80.5853 57.0227C83.2715 57.0872 84.1253 57.2074 85.7929 57.403C84.291 56.5228 83.3212 56.1958 81.0934 56.2622C82.4835 55.1004 83.6882 54.9798 86.428 55.5017C90.5164 56.9345 91.4894 58.4489 92.6517 61.459C91.5117 60.174 90.9357 59.6299 90.3654 59.938C91.9558 61.8825 92.4617 62.8004 92.6517 64.1208C90.3752 64.7951 89.1149 65.2231 87.5711 68.1768C86.8463 72.4162 86.8675 74.9772 87.063 79.3308C84.5492 85.1804 83.2636 88.4521 84.9038 94.0338C93.8388 102.646 105.662 105.537 118.055 95.8083C118.95 92.0958 117.949 87.0105 115.641 79.3308C115.654 75.9649 115.653 74.0777 115.641 70.7118C114.696 68.0373 113.896 66.7272 110.688 65.6418C110.655 63.5963 110.979 62.6201 112.72 61.459C111.876 61.2169 111.325 61.6648 110.307 62.7265C114.621 56.8616 117.17 55.8481 121.992 58.924C119.271 58.565 118.318 58.6589 117.546 59.3042C119.977 59.6536 121.895 59.6643 123.008 60.5717C124.556 61.4081 125.05 62.0632 125.675 63.3603C125.276 63.3085 125.069 63.302 124.278 62.7265C123.413 63.7595 122.605 64.3059 120.976 65.2615C119.591 65.5569 118.643 65.6103 116.276 65.2615C117.094 66.4951 118.187 66.7354 120.849 66.6558C120.121 67.212 119.581 67.4728 117.928 67.6698C116.877 67.5682 116.294 67.3386 115.26 66.6558C116.336 68.5076 116.631 69.708 116.911 71.9793C117.297 76.8123 117.254 79.5502 120.976 84.0206L126.946 90.3581C126.62 87.223 124.771 84.492 120.976 79.3308C125.184 83.1872 127.684 85.2808 133.296 88.4568C131.967 86.3119 128.268 82.9005 128.47 82.7531C128.671 82.6056 136.112 85.905 138.885 87.8231L135.201 83.8938ZM115.895 62.3463C114.944 62.83 114.531 63.1634 114.244 63.994C115.285 64.3733 115.869 64.3849 116.911 64.1208C116.049 63.7087 115.791 63.3409 115.895 62.3463ZM117.801 61.2055C117.402 61.4521 117.379 61.6902 117.546 62.2195C119.885 61.7687 120.329 62.2365 119.706 64.2475C121.397 63.6241 121.912 62.9968 122.373 61.5858C120.866 60.9905 119.854 60.9247 117.801 61.2055ZM83.2526 61.8393C81.8336 61.1152 79.9751 59.002 80.5853 58.6705C83.2165 58.5332 84.039 58.7228 85.5389 59.3042C85.6356 59.6114 85.6155 59.7533 85.4118 59.938C84.549 60.0879 84.078 60.0099 83.2526 59.6845C83.0153 60.2744 83.3089 60.8359 83.2526 61.8393ZM87.063 60.445C87.4441 61.2055 85.5389 62.3463 86.1739 62.3463C86.1739 62.3463 88.1366 62.4283 89.0953 62.0928C89.2223 61.459 86.682 59.6845 87.063 60.445Z" fill="black"/>
<path d="M123.262 69.064C125.797 73.25 128.327 74.725 133.55 76.7958C137.509 77.9028 139.144 78.8497 141.044 81.1053C141.832 78.1876 141.048 76.4241 138.123 73.12C140.808 74.3092 142.165 75.0963 144.219 76.7958C144.659 73.1621 142.929 71.4122 138.885 68.4303C140.229 70.1603 140.93 71.1219 140.79 72.613C138.561 72.1153 136.399 71.489 131.772 70.078C132.994 72.6041 133.964 73.4416 135.837 74.641C130.721 73.9235 127.96 72.7602 123.262 69.064Z" fill="black"/>
<path fill-rule="evenodd" clip-rule="evenodd" d="M51.753 44.0942C47.7576 38.3259 47.6647 34.8186 48.9587 28.3772C50.301 29.6848 51.1717 30.106 52.8962 30.4052C52.71 34.963 52.9443 37.5172 55.4365 42.0662C55.9992 42.2086 56.2419 42.1682 56.5796 41.9394C56.1971 38.0342 55.458 35.645 58.2308 32.9402C56.8288 32.2392 56.4009 32.5451 55.6905 33.1937C55.8892 32.138 56.2756 31.7289 57.5957 31.4192C62.2301 31.4959 63.7392 31.6565 66.4867 31.9262C66.839 34.7869 66.8109 36.6288 65.4706 40.2917H62.2952C63.2509 41.4773 64.0381 42.0516 66.4867 42.6999C59.0871 44.1566 55.3821 45.7538 50.1019 50.9387C52.7676 50.925 54.2465 50.9652 56.8336 51.1922C44.7846 59.3114 42.4086 66.0644 44.1322 81.1053C46.5161 78.2263 48.0956 76.8844 51.499 75.148C46.6273 87.1518 48.6951 92.983 58.9929 102.146C58.3089 98.8662 58.9934 97.4355 60.6441 95.0478C61.8951 102.12 63.4525 105.751 70.2971 110.638C69.6358 106.709 69.6953 104.565 71.6943 101.005C73.5151 107.293 75.2998 110.526 80.3313 115.581C82.6266 118.43 83.3438 120.18 83.6337 123.567C86.221 122.5 86.3133 120.618 86.1739 116.976C88.887 120.1 90.5147 121.648 93.7948 123.693C95.1488 121.879 95.1911 120.1 95.192 116.849C97.0419 120.071 98.1376 121.86 101.289 124.707C104.818 122.455 105.725 120.681 107.004 117.356C107.978 119.914 108.309 121.4 108.274 124.2C112.533 122.437 114.074 120.987 116.53 118.243C116.362 121.624 116.686 123.411 118.69 126.228C118.858 121.41 120.728 118.351 126.819 112.539C129.33 110.283 129.897 108.226 130.502 104.174C132.333 107.698 132.655 109.895 131.645 114.314C137.92 110.728 139.973 107.461 141.425 99.7376C142.695 102.543 143.144 104.104 142.822 106.836C148.501 103.563 150.127 100.749 152.348 95.3013C153.265 89.7027 152.749 86.7159 150.316 81.6123C153.549 83.4752 155.442 84.7605 157.175 87.8231C159.478 82.5953 158.656 79.1296 156.921 72.3595C154.321 65.041 151.67 61.9424 145.617 57.5297C148.061 57.2665 149.426 57.3451 151.84 58.1635C148.264 53.0933 145.173 50.7381 136.345 48.0235C138.612 47.4466 139.576 47.0434 140.028 45.9955C134.935 45.3974 132.528 43.9066 128.216 39.6579C127.68 37.5469 127.594 36.3365 128.216 34.0809C130.371 28.9398 132.76 27.827 137.615 26.7294C144.849 26.3282 147.629 27.0824 151.332 29.3912C149.694 29.7985 149.115 30.0774 148.665 30.6587C153.584 34.9901 154.486 37.9006 153.492 43.714C153.268 46.795 152.877 48.4498 150.951 51.0655C155.384 54.8157 156.975 57.1946 159.334 61.5858L155.016 60.8252C160.2 67.4994 161.807 71.574 162.759 78.5703C162.804 78.9016 162.848 79.2394 162.891 79.5843C162.584 86.6144 162.211 90.4705 159.715 96.5688C158.847 94.9439 158.177 94.2478 156.54 93.5268C155.899 99.2831 155.64 102.578 151.459 105.948C147.617 109.726 145.285 111.641 140.028 113.807L139.647 112.539C135.733 116.301 133.169 118.186 128.748 120.218C128.257 120.444 127.742 120.672 127.2 120.905C127.359 119.795 127.216 119.337 126.819 118.623C123.51 122.079 121.856 124.119 121.611 129.144H117.674C116.781 128.475 116.13 127.925 115.576 127.242C115.09 126.642 114.678 125.939 114.244 124.961C112.05 125.855 110.827 126.383 108.91 128.256H105.226C105.309 126.935 105.297 126.5 105.226 125.975C104.539 127.015 104.183 127.358 103.575 127.749C101.79 127.794 100.789 127.783 99.0024 127.496C98.2785 126.923 97.9441 126.59 97.4782 125.975C97.1949 126.18 97.0834 126.354 97.3512 127.242H93.4138L92.7014 126.666L88.7142 123.44C87.6278 124.738 86.993 125.438 85.7929 126.609L80.5853 126.482C80.0586 121.276 78.6917 119.079 75.6318 115.581V118.116C69.595 115.269 67.0516 112.879 63.0573 108.103C62.3135 108.682 62.3918 109.083 63.0573 109.878C52.732 104.956 48.462 100.466 46.1139 91.7523C45.6968 90.2043 45.3403 88.523 45.0213 86.6823C43.8945 87.1919 43.2553 87.6819 42.3296 89.0071C42.2551 89.1139 42.1786 89.226 42.1 89.3441C41.9767 89.0856 41.857 88.831 41.7407 88.5799C40.7621 86.4655 40.0312 84.5991 39.5044 82.7531C38.9995 80.9844 38.682 79.2343 38.5132 77.3028C38.3433 75.358 38.3241 73.2291 38.4165 70.7118C39.9435 63.5903 41.6989 59.8913 46.5455 53.854C45.8496 53.1932 45.2082 52.9532 42.481 53.347C43.7015 51.4198 44.2997 50.3516 46.5455 48.277C48.5653 46.463 49.695 45.6235 51.6586 44.1644L51.753 44.0942ZM129.359 35.4752C129.181 37.8569 129.711 38.6083 131.518 39.1509C131.313 37.8895 131.539 37.1971 132.407 35.9822C132.608 36.7981 132.881 37.2215 133.804 37.8834C135.858 33.938 137.604 34.1151 140.663 34.2077C144.918 34.4492 145.736 35.4768 146.633 37.6299C145.047 36.5528 144.181 36.3264 142.695 36.8694C144.981 37.1006 145.745 37.9754 146.76 40.0382C146.12 39.0665 145.648 38.8693 144.601 39.1509C147.046 42.5355 146.781 44.7231 146.125 48.6572C148.999 45.8819 149.677 44 149.173 40.0382C149.1 31.5976 146.115 31.9346 141.806 30.7854C142.919 30.5256 143.342 30.1685 144.092 29.2644C139.869 28.452 137.496 27.9038 133.55 32.1797C133.164 30.9815 133.151 30.2629 133.55 28.8842C130.93 30.7462 129.632 31.9146 129.359 35.4752Z" fill="black"/>
<path d="M110.053 60.952C110.641 56.9373 111.695 55.7991 116.276 56.2622C112.417 57.2077 111.604 58.495 110.071 60.9236L110.053 60.952Z" fill="black"/>
<path d="M87.1623 54.5099C93.2189 54.9192 93.2491 56.472 92.7014 59.3042C91.5035 56.8857 90.5749 55.6109 87.1623 54.5099Z" fill="black"/>
<path d="M84.5228 42.6999C90.0021 44.9555 92.8854 46.3327 96.3351 49.798L95.573 46.8827C97.1026 47.9635 97.921 48.7647 99.2564 50.812C99.4994 49.5375 99.4721 48.6987 99.0024 46.8827C100.359 48.1312 100.839 48.9448 101.289 50.5585C102.32 48.3071 103.064 47.691 104.464 46.8827C104.548 47.8452 104.269 48.7731 103.448 50.812C104.994 49.2792 105.889 48.5276 107.639 47.77L106.877 50.5585C111.079 47.1365 113.705 46.1351 118.69 45.3617L110.942 46.249C111.187 45.3042 111.861 44.6551 113.228 43.4605L107.639 45.8687C107.381 44.5622 107.873 43.7668 109.037 42.3197C107.236 42.0901 106.045 42.422 103.448 44.221C103.426 44.7748 103.285 45.0798 102.813 45.6152C102.51 45.2163 102.341 44.9928 102.305 44.728C102.115 45.1967 101.979 45.4531 101.543 45.8687C100.44 43.7494 99.2896 43.1932 97.3512 42.0662C95.7355 42.0456 95.1697 42.1051 94.6839 42.3197C95.4998 43.5018 95.8128 44.1088 95.827 44.9815C93.9927 44.1065 92.8219 43.3701 90.3654 42.0662C91.5948 43.3524 92.1417 44.0302 92.2706 44.9815C89.2227 44.3798 87.5328 43.796 84.5228 42.6999Z" fill="black"/>
<path d="M82.7446 21.1524C83.2411 23.6659 83.7703 24.983 85.2848 27.1216C86.099 27.094 86.903 27.0728 87.6981 27.0581C85.7751 24.8278 84.8455 23.5562 84.1417 21.1524C83.7718 17.6119 83.3156 15.6157 81.8555 12.0264L76.5208 7.20987C78.9621 9.51962 79.8514 10.8944 80.9664 12.9136C81.8554 16.1072 82.1996 17.9166 82.7446 21.1524Z" fill="black"/>
<path d="M106.877 22.2932C106.911 24.5461 106.735 25.7314 106.339 27.5247C106.308 27.6644 106.276 27.8078 106.242 27.9556C107 28.043 107.762 28.1365 108.528 28.236C108.534 28.0914 108.539 27.9502 108.543 27.8117C108.601 26.0261 108.587 24.6925 108.528 22.2932C109.721 21.1592 110.025 20.2602 110.688 18.7441C111.253 14.279 112.34 11.7308 113.863 7.20987L109.799 17.9836C108.952 19.8396 108.362 20.8127 106.877 22.2932Z" fill="black"/>
<path d="M124.532 26.0957C123.864 27.4177 123.525 27.5771 122.754 30.5746C123.588 30.7335 124.434 30.8975 125.294 31.0666C125.294 31.0636 125.293 31.0606 125.292 31.0576C125.289 31.043 125.286 31.0285 125.283 31.014C124.946 29.432 125.152 28.2887 125.802 26.0957L137.869 12.9136C132.958 17.959 130.507 20.6834 124.532 26.0957Z" fill="black"/>
<path d="M65.8516 23.6874C68.4778 24.6941 69.9717 25.7585 70.8052 28.1612C71.6225 28.0771 72.4266 27.9978 73.2185 27.9232C71.7166 25.9981 70.7737 24.9902 68.3919 23.6874C59.8399 22.1797 55.2739 20.9401 48.9587 15.5754C52.3261 19.6508 54.6437 21.815 65.8516 23.6874Z" fill="black"/>
<path d="M53.7853 29.1377C59.6349 30.1427 62.9116 30.4299 68.7493 30.4052C68.7268 30.1615 68.7163 29.9093 68.7157 29.6447C62.6876 29.7859 59.3072 29.3588 53.2772 28.1237C52.4614 27.6362 52.2563 27.3285 52.2611 26.7294C50.7274 26.76 50.4829 26.0957 47.9426 26.0957C45.4023 26.0957 41.9217 23.936 42.862 22.1664C46.1885 18.7303 46.5226 17.7806 46.9265 16.2091C46.6425 14.0146 47.2015 13.4868 48.7047 13.0404C57.1363 7.93236 61.9124 7.14218 70.4242 5.43536C82.5279 3.2304 90.1348 3.13954 103.829 3.15386C117.878 4.64158 125.293 6.10936 137.869 9.61812C142.385 11.494 144.203 12.9435 145.998 16.3359C147.128 20.3983 146.404 22.2891 143.076 25.0817L144.092 25.4619C149.812 19.6998 149.564 16.2693 139.901 9.61812C127.559 5.42723 119.321 4.15286 104.464 2.0131C91.268 1.90914 83.8705 2.40532 70.6782 4.16786C58.5049 6.36555 52.2495 9.14174 45.7834 14.1811C45.5331 15.0792 45.4072 15.588 45.7834 16.7161C44.0555 18.9285 40.9568 20.8989 40.9568 22.9269C40.9568 24.9549 44.4115 26.368 47.6886 26.9829L51.753 27.4899C51.8452 28.6102 52.333 28.9418 53.7853 29.1377Z" fill="black"/>
<path d="M63.5654 63.6137C59.8698 65.6646 58.1416 67.0316 58.2308 71.4723C60.1168 69.6753 61.4264 69.069 64.2005 68.6838C61.4498 71.4185 61.1064 72.9426 61.2791 75.655C65.9822 72.9839 68.9656 71.9312 74.9967 70.9653C77.3077 69.5399 77.9981 68.465 79.1882 66.529C75.1045 69.0182 72.4418 69.9651 66.4867 70.2048C68.1804 68.6938 69.2643 67.8302 71.3133 66.2755C67.2092 66.1794 65.102 66.4739 61.7872 67.7965C61.3899 66.5042 62.0823 65.4937 63.5654 63.6137Z" fill="black"/>
<path d="M70.9322 29.6447C71.4838 30.2376 71.9019 30.6463 72.7104 31.4192C73.7924 30.0844 74.7127 30.0613 76.5208 30.4052C96.4987 28.4636 107.149 31.443 126.437 34.5879V34.0809C105.216 30.5175 93.5203 27.7026 70.9322 29.6447Z" fill="black"/>
<path d="M67.8839 41.0522C72.8551 40.4733 77.2676 40.0802 81.2644 39.842C77.5319 39.8492 73.5341 39.9143 69.154 40.0382C69.1901 38.0532 69.329 36.9798 70.8052 35.4752C70.0595 33.1262 69.7014 31.8216 69.7891 29.6447L70.4242 28.8842C83.3239 27.7781 91.9126 27.3027 97.9132 27.2386C94.5919 27.0543 91.2314 26.9926 87.6981 27.0581C86.903 27.0728 86.099 27.094 85.2848 27.1216C81.5311 27.2492 77.5587 27.5147 73.2185 27.9232C72.4266 27.9978 71.6225 28.0771 70.8052 28.1612C70.1368 28.23 69.4595 28.302 68.773 28.3772C68.7361 28.8356 68.715 29.2538 68.7157 29.6447C68.7163 29.9093 68.7268 30.1615 68.7493 30.4052C68.8695 31.7071 68.0604 33.5291 69.154 34.9682C67.1777 37.1549 68.1879 38.0394 67.8839 41.0522Z" fill="black"/>
<path d="M113.187 41.5703C102.673 40.4039 93.3621 39.8187 81.2644 39.842C94.8265 39.0339 103.603 40.0106 113.187 41.5703Z" fill="black"/>
<path d="M128.216 44.0942V43.4605C122.739 42.7179 117.845 42.087 113.187 41.5703C117.801 42.3211 122.603 43.2072 128.216 44.0942Z" fill="black"/>
<path d="M122.754 30.5746C119.25 29.9065 115.971 29.3291 112.822 28.8457C115.125 29.5654 117.283 30.3993 121.499 31.0666C129.765 32.3746 127.981 31.7283 125.283 31.014C125.286 31.0285 125.289 31.043 125.292 31.0576C125.354 31.0752 125.36 31.0795 125.294 31.0666C124.434 30.8975 123.588 30.7335 122.754 30.5746Z" fill="black"/>
<path d="M106.242 27.9556C106.276 27.8078 106.308 27.6644 106.339 27.5247C104.222 27.3114 101.541 27.1999 97.9132 27.2386C100.691 27.3928 103.441 27.6327 106.242 27.9556Z" fill="black"/>
<path d="M108.543 27.8117C108.539 27.9502 108.534 28.0914 108.528 28.236C109.939 28.4189 111.366 28.6223 112.822 28.8457C111.56 28.4513 110.255 28.0913 108.543 27.8117Z" fill="black"/>
<path d="M95.446 93.6536C96.0811 93.2733 94.8048 92.8378 94.1758 92.8931C92.195 93.6947 92.2481 94.6825 93.1597 96.8223L93.9218 95.8083C101.359 97.2992 105.163 97.0567 110.942 93.6536L112.085 95.3013C112.48 93.6952 112.268 92.7855 109.799 91.1186C109.23 91.39 108.924 91.5595 108.655 92.2593L109.799 92.8931C107.059 95.3887 97.1292 96.3734 95.192 94.7943C95.0346 94.666 94.8109 94.0338 95.446 93.6536Z" fill="black"/>
<path d="M88.7142 123.44C87.6278 124.738 86.993 125.438 85.7929 126.609L80.5853 126.482C80.0586 121.276 78.6917 119.079 75.6318 115.581V118.116C69.595 115.269 67.0516 112.879 63.0573 108.103C62.3135 108.682 62.3918 109.083 63.0573 109.878C52.732 104.956 48.462 100.466 46.1139 91.7523L42.3296 89.0071C42.2551 89.1139 42.1786 89.226 42.1 89.3441C41.9767 89.0856 41.857 88.831 41.7407 88.5799L17.4592 70.9653C15.0821 70.6721 14.5975 71.3539 14.6649 73.5003L44.1322 95.0478C44.087 96.0254 43.7172 96.4425 42.1 96.8223L12.2516 75.655C10.2125 75.4163 9.63575 75.8878 10.0923 78.3168L39.5044 99.1038C38.8314 100.672 38.2049 101.321 35.6222 101.132L8.44115 81.4855C6.50699 81.569 5.46158 81.6571 6.28191 84.6543L35.6222 104.174C38.0985 105.654 39.5732 106.338 42.481 107.089C45.6187 107.119 47.2893 106.869 50.1019 105.948L84.8455 131.672L85.5389 132.186L92.7014 126.666L88.7142 123.44Z" fill="black"/>
<path d="M38.5132 77.3028L22.5397 66.1488C19.4688 65.9345 19.2994 66.7324 19.2374 68.4303L39.5044 82.7531C38.9995 80.9844 38.682 79.2343 38.5132 77.3028Z" fill="black"/>
<path d="M114.244 124.961C112.05 125.855 110.827 126.383 108.91 128.256H105.226C105.309 126.935 105.297 126.5 105.226 125.975C104.539 127.015 104.183 127.358 103.575 127.749C101.79 127.794 100.789 127.783 99.0024 127.496C98.2785 126.923 97.9441 126.59 97.4782 125.975C97.1949 126.18 97.0834 126.354 97.3512 127.242H93.4138L92.7014 126.666L85.5389 132.186L84.8455 131.672L54.8014 150.818C53.3405 157.051 54.4152 159.324 61.6602 159.944L96.5891 138.759L107.996 131.84L115.576 127.242C115.09 126.642 114.678 125.939 114.244 124.961Z" fill="black"/>
<path d="M107.996 131.84L96.5891 138.759L131.645 164C139.104 162.987 140.76 160.962 139.647 155.001L107.996 131.84Z" fill="black"/>
<path fill-rule="evenodd" clip-rule="evenodd" d="M162.891 79.5843C162.584 86.6144 162.211 90.4705 159.715 96.5688C158.847 94.9439 158.177 94.2478 156.54 93.5268C155.899 99.2831 155.64 102.578 151.459 105.948C147.617 109.726 145.285 111.641 140.028 113.807L139.647 112.539C135.733 116.301 133.169 118.186 128.748 120.218L143.584 137.636L199.725 104.174C201.501 101.624 201.347 99.9519 199.725 96.8223L178.767 75.9085C175.54 74.3774 173.824 74.3074 170.892 75.2748L162.759 78.5703C162.804 78.9016 162.848 79.2394 162.891 79.5843ZM173.56 84.7811C171.067 84.2463 170.332 83.5429 170.13 81.6123C170.89 80.1893 171.492 79.553 173.56 79.3308C175.866 80.0052 176.479 80.8051 176.735 82.7531C176.233 84.0847 175.755 84.6876 173.56 84.7811Z" fill="black"/>
<path d="M51.753 44.0942C47.7576 38.3259 47.6647 34.8186 48.9587 28.3772C50.301 29.6848 51.1717 30.106 52.8962 30.4052C52.71 34.963 52.9443 37.5172 55.4365 42.0662C55.9992 42.2086 56.2419 42.1682 56.5796 41.9394C56.1971 38.0342 55.458 35.645 58.2308 32.9402C56.8288 32.2392 56.4009 32.5451 55.6905 33.1937C55.8892 32.138 56.2756 31.7289 57.5957 31.4192C62.2301 31.4959 63.7392 31.6565 66.4867 31.9262C66.839 34.7869 66.8109 36.6288 65.4706 40.2917H62.2952C63.2509 41.4773 64.0381 42.0516 66.4867 42.6999C59.0871 44.1566 55.3821 45.7538 50.1019 50.9387C52.7676 50.925 54.2465 50.9652 56.8336 51.1922C44.7846 59.3114 42.4086 66.0644 44.1322 81.1053C46.5161 78.2263 48.0956 76.8844 51.499 75.148C46.6273 87.1518 48.6951 92.983 58.9929 102.146C58.3089 98.8662 58.9934 97.4355 60.6441 95.0478C61.8951 102.12 63.4525 105.751 70.2971 110.638C69.6358 106.709 69.6953 104.565 71.6943 101.005C73.5151 107.293 75.2998 110.526 80.3313 115.581C82.6266 118.43 83.3438 120.18 83.6336 123.567C86.221 122.5 86.3133 120.619 86.1739 116.976C88.887 120.1 90.5147 121.648 93.7948 123.693C95.1488 121.879 95.1911 120.1 95.192 116.849C97.0419 120.071 98.1376 121.86 101.289 124.707C104.818 122.455 105.725 120.681 107.004 117.356C107.978 119.914 108.309 121.4 108.274 124.2C112.533 122.437 114.074 120.987 116.53 118.243C116.362 121.624 116.686 123.411 118.69 126.228C118.858 121.41 120.728 118.351 126.819 112.539C129.33 110.283 129.897 108.226 130.502 104.174C132.333 107.698 132.655 109.895 131.645 114.314C137.92 110.728 139.973 107.461 141.425 99.7376C142.695 102.543 143.144 104.104 142.822 106.836C148.501 103.563 150.127 100.749 152.348 95.3013C153.265 89.7027 152.749 86.7158 150.316 81.6123C153.549 83.4752 155.442 84.7605 157.175 87.8231C159.478 82.5953 158.656 79.1296 156.921 72.3595C154.321 65.041 151.67 61.9424 145.617 57.5297C148.061 57.2665 149.426 57.3451 151.84 58.1635C148.264 53.0933 145.173 50.7381 136.345 48.0235C138.612 47.4466 139.576 47.0434 140.028 45.9955C134.935 45.3974 132.528 43.9066 128.216 39.6579C127.68 37.5469 127.594 36.3365 128.216 34.0809C130.371 28.9398 132.76 27.827 137.615 26.7294C144.849 26.3282 147.629 27.0824 151.332 29.3912C149.694 29.7985 149.115 30.0774 148.665 30.6587C153.584 34.9901 154.486 37.9006 153.492 43.714C153.268 46.795 152.877 48.4498 150.951 51.0655C155.384 54.8157 156.975 57.1946 159.334 61.5857L155.016 60.8252C160.2 67.4994 161.807 71.574 162.759 78.5703M51.753 44.0942L51.6586 44.1644M51.753 44.0942C51.7214 44.1178 51.6899 44.1411 51.6586 44.1644M120.976 84.0206C117.254 79.5502 117.297 76.8123 116.911 71.9793C116.631 69.708 116.336 68.5076 115.26 66.6558C116.294 67.3386 116.877 67.5682 117.928 67.6698C119.581 67.4728 120.121 67.212 120.849 66.6558C118.187 66.7354 117.094 66.4951 116.276 65.2615C118.643 65.6103 119.591 65.5569 120.976 65.2615C122.605 64.3059 123.413 63.7595 124.278 62.7265C125.069 63.302 125.276 63.3085 125.675 63.3603C125.05 62.0632 124.556 61.408 123.008 60.5717C121.895 59.6643 119.977 59.6536 117.546 59.3042C118.318 58.6589 119.271 58.565 121.992 58.924C117.17 55.8481 114.621 56.8616 110.307 62.7265C111.325 61.6648 111.876 61.2169 112.72 61.459C110.979 62.6201 110.655 63.5963 110.688 65.6418C113.896 66.7272 114.696 68.0373 115.641 70.7118C115.653 74.0777 115.654 75.9649 115.641 79.3308C117.949 87.0105 118.95 92.0958 118.055 95.8083C105.662 105.537 93.8388 102.646 84.9038 94.0338C83.2636 88.4521 84.5492 85.1804 87.063 79.3308C86.8675 74.9772 86.8463 72.4162 87.5711 68.1768C89.1149 65.2231 90.3752 64.7951 92.6517 64.1208C92.4617 62.8004 91.9558 61.8825 90.3654 59.938C90.9357 59.6299 91.5117 60.174 92.6517 61.459C91.4894 58.4489 90.5164 56.9345 86.428 55.5017C83.6882 54.9798 82.4835 55.1004 81.0934 56.2622C83.3212 56.1958 84.291 56.5228 85.7929 57.403C84.1253 57.2074 83.2715 57.0872 80.5853 57.0227C78.7544 57.9602 77.8935 58.6116 77.4099 60.5717C78.053 59.8415 78.3061 59.7849 78.6801 59.938C80.657 62.3625 82.3349 62.8386 86.809 63.6137C85.6202 64.0628 84.6322 64.6595 82.4905 64.6278C84.3023 65.2975 85.4436 65.3654 87.5711 65.2615C86.8238 66.1203 86.348 68.554 85.4119 75.9085C82.6508 81.2967 80.2554 83.566 75.5047 87.1893C75.8189 85.3502 78.5636 81.7455 81.9825 76.7958C77.8634 80.5987 75.5285 82.7086 69.281 84.6543C70.3865 82.1958 71.5856 81.1187 73.9806 79.3308C69.8748 80.1621 67.6295 80.9582 63.8194 83.5136C63.7428 82.1047 64.4978 81.2628 66.6137 79.7111C58.564 80.7359 56.9462 83.9573 56.5796 92.0058C58.1126 88.7566 59.0001 86.9703 62.1682 85.7951C61.3973 88.2199 61.4922 89.6397 62.4223 92.2593C63.5019 90.1966 64.3329 89.1784 66.3597 87.6963C64.1265 92.7076 64.4788 96.0665 66.1057 102.399C67.1677 96.7841 68.205 94.0742 71.9483 91.1186V97.8363C72.5471 95.9781 73.0863 95.0765 74.8697 94.0338C74.8261 102.143 75.433 106.399 81.6014 111.652C81.1247 108.325 81.3223 106.522 82.4905 103.413C84.0148 109.612 86.0569 112.206 90.8735 115.962C90.0256 111.365 90.356 109.174 93.1597 106.329C93.0086 109.561 93.5494 111.187 95.446 113.807C95.7104 111.116 96.0701 109.746 97.3512 107.723C96.8877 112.712 98.0633 115.178 101.543 119.257C104.934 116.167 105.505 113.611 105.607 108.483C106.743 110.324 107.07 111.632 107.258 114.314C108.685 112.957 109.208 111.264 109.799 107.089C111.9 110.888 112.357 113.149 112.212 117.356C116.701 113.993 118.121 111.23 120.214 105.948C121.229 108.834 121.324 110.604 121.357 113.807C128.242 108.416 128.835 104.473 127.708 96.8223C129.141 98.1696 129.783 99.1483 130.756 101.132C130.47 97.8755 130.472 96.3236 130.756 94.0338C133.533 98.3498 134.671 100.937 136.345 105.695C138.14 100.827 138.105 97.7959 135.837 91.7523C138.055 93.0135 138.811 94.2359 139.774 96.8223C140.676 94.5356 140.94 93.1636 140.79 90.4848C142.8 92.8568 143.758 94.2503 145.236 96.8223C145.587 88.9259 143.572 85.9737 135.201 83.8938L138.885 87.8231C136.112 85.905 128.671 82.6056 128.47 82.7531C128.268 82.9005 131.967 86.3119 133.296 88.4568C127.684 85.2808 125.184 83.1872 120.976 79.3308C124.771 84.492 126.62 87.223 126.946 90.3581M120.976 84.0206C123.307 86.4955 124.614 87.8831 126.946 90.3581M120.976 84.0206L126.946 90.3581M86.809 54.4877C86.929 54.4947 87.0467 54.5021 87.1623 54.5099M92.6517 59.5578C92.6687 59.4721 92.6853 59.3876 92.7014 59.3042M86.682 54.361C86.8474 54.4103 87.0074 54.4599 87.1623 54.5099M92.7014 59.3042C93.2491 56.472 93.2189 54.9192 87.1623 54.5099M92.7014 59.3042C91.5035 56.8857 90.5749 55.6109 87.1623 54.5099M110.053 60.952C110.641 56.9373 111.695 55.7991 116.276 56.2622C112.417 57.2077 111.604 58.495 110.071 60.9236M110.053 60.952L110.071 60.9236M110.053 60.952C110.059 60.9425 110.065 60.9331 110.071 60.9236M68.773 28.3772C68.7361 28.8356 68.715 29.2538 68.7157 29.6447M68.773 28.3772C70.2989 28.21 71.7789 28.0587 73.2185 27.9232M68.773 28.3772C69.4595 28.302 70.1368 28.23 70.8052 28.1612M68.7493 30.4052C68.8695 31.7071 68.0604 33.5291 69.154 34.9682C67.1777 37.1549 68.1879 38.0394 67.8839 41.0522C72.8551 40.4733 77.2676 40.0802 81.2643 39.842M68.7493 30.4052C62.9116 30.4299 59.6349 30.1427 53.7853 29.1377C52.333 28.9418 51.8452 28.6102 51.753 27.4899L47.6886 26.9829C44.4115 26.368 40.9568 24.9549 40.9568 22.9269C40.9568 20.8989 44.0555 18.9285 45.7834 16.7161C45.4072 15.588 45.5331 15.0792 45.7834 14.1811C52.2495 9.14174 58.5049 6.36555 70.6782 4.16786C83.8705 2.40532 91.268 1.90914 104.464 2.0131C119.321 4.15286 127.559 5.42723 139.901 9.61812C149.564 16.2693 149.812 19.6998 144.092 25.4619L143.076 25.0817C146.404 22.2891 147.128 20.3983 145.998 16.3359C144.203 12.9435 142.385 11.494 137.869 9.61812C125.293 6.10936 117.878 4.64158 103.829 3.15386C90.1348 3.13954 82.528 3.2304 70.4242 5.43536C61.9124 7.14218 57.1363 7.93236 48.7047 13.0404C47.2015 13.4868 46.6425 14.0146 46.9265 16.2091C46.5226 17.7806 46.1885 18.7303 42.862 22.1664C41.9217 23.936 45.4023 26.0957 47.9426 26.0957C50.4829 26.0957 50.7274 26.76 52.2611 26.7294C52.2563 27.3285 52.4614 27.6362 53.2772 28.1237C59.3072 29.3588 62.6876 29.7859 68.7157 29.6447M68.7493 30.4052C68.7268 30.1615 68.7163 29.9093 68.7157 29.6447M70.8052 28.1612C69.9717 25.7585 68.4778 24.6941 65.8516 23.6874C54.6437 21.815 52.3261 19.6508 48.9587 15.5754C55.2739 20.9401 59.8399 22.1797 68.3919 23.6874C70.7737 24.9902 71.7166 25.9981 73.2185 27.9232M70.8052 28.1612C71.6225 28.0771 72.4266 27.9978 73.2185 27.9232M73.2185 27.9232C77.5587 27.5147 81.5311 27.2492 85.2848 27.1216M85.2848 27.1216C83.7703 24.983 83.2411 23.6659 82.7445 21.1524C82.1996 17.9166 81.8554 16.1072 80.9664 12.9136C79.8514 10.8944 78.9621 9.51962 76.5208 7.20987M85.2848 27.1216C86.099 27.094 86.903 27.0728 87.6981 27.0581M76.5208 7.20987C78.6041 9.09083 79.7722 10.1454 81.8555 12.0264M76.5208 7.20987L81.8555 12.0264M81.8555 12.0264C83.3156 15.6157 83.7718 17.6119 84.1417 21.1524C84.8455 23.5562 85.7751 24.8278 87.6981 27.0581M87.6981 27.0581C91.2314 26.9926 94.5919 27.0543 97.9132 27.2386M106.242 27.9556C107 28.043 107.762 28.1365 108.528 28.236M106.242 27.9556C103.441 27.6327 100.691 27.3928 97.9132 27.2386M106.242 27.9556C106.276 27.8078 106.308 27.6644 106.339 27.5247M108.528 28.236C109.939 28.4189 111.366 28.6223 112.822 28.8457M108.528 28.236C108.534 28.0914 108.539 27.9502 108.543 27.8117M122.754 30.5746C123.525 27.5771 123.864 27.4177 124.532 26.0957C130.507 20.6834 132.958 17.959 137.869 12.9136L125.802 26.0957C125.152 28.2887 124.946 29.432 125.283 31.014M122.754 30.5746C123.588 30.7335 124.434 30.8975 125.294 31.0666M122.754 30.5746C119.25 29.9065 115.971 29.3291 112.822 28.8457M125.294 31.0666C125.36 31.0795 125.354 31.0752 125.292 31.0576M125.294 31.0666C125.294 31.0636 125.293 31.0606 125.292 31.0576M110.307 80.2181C110.176 79.0078 108.88 77.1559 106.242 75.9085C101.743 73.4462 94.9069 74.8782 92.7014 79.0773C94.9624 77.8846 96.231 77.8905 98.4943 78.3168C99.9858 79.44 100.283 80.1385 100.019 81.4855C99.1479 83.5862 98.0027 83.8242 95.446 83.5136C96.6742 82.6019 96.9062 82.0758 96.3351 81.1053C95.5512 80.793 95.1382 80.7598 94.4299 80.8518C93.0901 82.3195 93.1869 83.3758 93.9218 85.4148C95.692 87.1055 96.8585 87.7578 99.5104 87.9498C100.9 87.2559 101.278 86.6675 101.543 85.4148C101.92 86.6664 102.196 87.2905 103.067 87.9498C106.325 88.1698 107.59 87.4191 109.418 85.4148C109.748 83.7337 109.471 82.9721 108.655 81.7391C107.826 81.2323 107.354 81.1542 106.496 81.4855C106.343 82.6336 106.585 83.1831 107.512 84.0206C105.088 84.4522 104.021 83.9461 103.067 81.7391C102.546 79.3926 103.463 78.8388 106.242 78.5703C108.291 78.7822 109.088 79.2306 110.307 80.2181ZM110.307 80.2181L112.72 80.5983M112.72 80.5983C112.277 77.5571 111.623 75.7513 107.766 73.5003C103.538 71.9981 100.66 71.7234 95.192 72.9933C92.3429 73.5805 91.513 74.9566 90.3654 77.3028C88.9398 81.7754 89.4831 83.8477 93.1597 87.9498C96.5536 90.2863 98.8563 90.5045 103.067 90.6116C106.566 90.5326 108.205 89.6808 110.942 87.6963C112.69 85.9106 112.999 84.2797 112.72 80.5983ZM51.6586 44.1644C49.695 45.6235 48.5653 46.463 46.5455 48.277C44.2997 50.3516 43.7015 51.4198 42.481 53.347C45.2082 52.9532 45.8496 53.1932 46.5455 53.854C41.6989 59.8913 39.9435 63.5903 38.4165 70.7118C38.3241 73.2291 38.3433 75.358 38.5132 77.3028M81.2643 39.842C77.5319 39.8492 73.5341 39.9143 69.154 40.0382C69.1901 38.0531 69.329 36.9798 70.8052 35.4752C70.0595 33.1262 69.7014 31.8216 69.7891 29.6447L70.4242 28.8842C83.3239 27.7781 91.9126 27.3027 97.9132 27.2386M81.2643 39.842C93.3621 39.8187 102.673 40.4039 113.187 41.5703M81.2643 39.842C94.8265 39.0339 103.603 40.0106 113.187 41.5703M97.9132 27.2386C101.541 27.1999 104.222 27.3114 106.339 27.5247M113.187 41.5703C117.801 42.3211 122.603 43.2072 128.216 44.0942V43.4605C122.739 42.7179 117.845 42.087 113.187 41.5703ZM112.822 28.8457C115.125 29.5654 117.283 30.3993 121.499 31.0666C129.765 32.3746 127.981 31.7284 125.283 31.014M112.822 28.8457C111.56 28.4513 110.255 28.0913 108.543 27.8117M125.283 31.014C125.286 31.0285 125.289 31.043 125.292 31.0576M125.283 31.014C123.522 30.5478 121.372 30.0526 121.372 30.0526C120.84 29.9462 124.804 30.9183 125.292 31.0576M106.339 27.5247C106.735 25.7314 106.911 24.5461 106.877 22.2932C108.362 20.8127 108.952 19.8396 109.799 17.9836L113.863 7.20987C112.34 11.7308 111.253 14.279 110.688 18.7441C110.025 20.2602 109.721 21.1592 108.528 22.2932C108.587 24.6925 108.601 26.0261 108.543 27.8117M106.339 27.5247C107.149 27.6063 107.877 27.7029 108.543 27.8117M38.5132 77.3028L22.5397 66.1488C19.4688 65.9345 19.2994 66.7324 19.2374 68.4303L39.5044 82.7531M38.5132 77.3028C38.682 79.2343 38.9996 80.9844 39.5044 82.7531M39.5044 82.7531C40.0312 84.5991 40.7621 86.4655 41.7407 88.5799M46.1139 91.7523C48.462 100.466 52.732 104.956 63.0573 109.878C62.3918 109.083 62.3135 108.682 63.0573 108.103C67.0516 112.879 69.595 115.269 75.6317 118.116V115.581C78.6917 119.079 80.0586 121.276 80.5853 126.482L85.7929 126.609C86.993 125.438 87.6278 124.738 88.7142 123.44L92.7014 126.666M46.1139 91.7523C45.6968 90.2043 45.3403 88.523 45.0213 86.6823C43.8945 87.1919 43.2553 87.6819 42.3296 89.0071M46.1139 91.7523L42.3296 89.0071M92.7014 126.666L93.4138 127.242H97.3512C97.0834 126.354 97.1949 126.18 97.4782 125.975C97.9441 126.59 98.2785 126.923 99.0024 127.496C100.789 127.783 101.79 127.794 103.575 127.749C104.183 127.358 104.539 127.015 105.226 125.975C105.297 126.5 105.309 126.935 105.226 128.256H108.91C110.827 126.383 112.05 125.855 114.244 124.961C114.678 125.939 115.09 126.642 115.576 127.242M92.7014 126.666L85.5389 132.186L84.8454 131.672M92.7014 126.666L84.8454 131.672M42.3296 89.0071C42.2551 89.1139 42.1786 89.226 42.1 89.3441C41.9767 89.0856 41.857 88.831 41.7407 88.5799M42.3296 89.0071L41.7407 88.5799M41.7407 88.5799L17.4592 70.9653C15.0821 70.6721 14.5975 71.3539 14.6649 73.5003L44.1322 95.0478C44.087 96.0254 43.7172 96.4425 42.1 96.8223L12.2516 75.655C10.2125 75.4163 9.63575 75.8878 10.0923 78.3168L39.5044 99.1038C38.8314 100.672 38.2049 101.321 35.6222 101.132L8.44115 81.4855C6.50699 81.569 5.46158 81.6571 6.28191 84.6543L35.6222 104.174C38.0985 105.654 39.5732 106.338 42.481 107.089C45.6187 107.119 47.2893 106.869 50.1019 105.948L84.8454 131.672M115.576 127.242C116.13 127.925 116.781 128.475 117.674 129.144H121.611C121.856 124.119 123.51 122.079 126.819 118.623C127.216 119.337 127.359 119.795 127.2 120.905C127.742 120.672 128.257 120.444 128.748 120.218M115.576 127.242L107.996 131.84M84.8454 131.672L54.8014 150.818C53.3405 157.051 54.4152 159.324 61.6602 159.944L96.5891 138.759M96.5891 138.759L131.645 164C139.104 162.987 140.76 160.962 139.647 155.001L107.996 131.84M96.5891 138.759L107.996 131.84M107.766 131.672L107.996 131.84M128.47 119.891L128.748 120.218M162.759 78.5703C162.804 78.9016 162.848 79.2394 162.891 79.5843C162.584 86.6144 162.211 90.4705 159.715 96.5688C158.847 94.9439 158.177 94.2478 156.54 93.5268C155.899 99.2831 155.64 102.578 151.459 105.948C147.617 109.726 145.285 111.641 140.028 113.807L139.647 112.539C135.733 116.301 133.169 118.186 128.748 120.218M162.759 78.5703L170.892 75.2748C173.824 74.3074 175.54 74.3774 178.767 75.9085L199.725 96.8223C201.347 99.9519 201.501 101.624 199.725 104.174L143.584 137.636L128.748 120.218M63.5654 63.6137C59.8698 65.6646 58.1416 67.0316 58.2308 71.4723C60.1168 69.6753 61.4264 69.069 64.2005 68.6838C61.4498 71.4185 61.1064 72.9426 61.2791 75.655C65.9822 72.9839 68.9656 71.9312 74.9967 70.9653C77.3077 69.5399 77.9981 68.465 79.1882 66.529C75.1045 69.0182 72.4418 69.9651 66.4867 70.2048C68.1804 68.6938 69.2643 67.8302 71.3133 66.2755C67.2092 66.1794 65.102 66.4739 61.7872 67.7965C61.3899 66.5042 62.0823 65.4937 63.5654 63.6137ZM131.518 39.1509C129.711 38.6083 129.181 37.8569 129.359 35.4752C129.632 31.9146 130.93 30.7462 133.55 28.8842C133.151 30.2629 133.164 30.9815 133.55 32.1797C137.496 27.9038 139.869 28.452 144.092 29.2644C143.342 30.1685 142.919 30.5256 141.806 30.7854C146.115 31.9346 149.1 31.5976 149.173 40.0382C149.677 44 148.999 45.8819 146.125 48.6572C146.781 44.7231 147.046 42.5355 144.601 39.1509C145.648 38.8693 146.12 39.0665 146.76 40.0382C145.745 37.9754 144.981 37.1006 142.695 36.8694C144.181 36.3264 145.047 36.5528 146.633 37.6299C145.736 35.4768 144.918 34.4492 140.663 34.2077C137.604 34.1151 135.858 33.938 133.804 37.8834C132.881 37.2215 132.608 36.7981 132.407 35.9822C131.539 37.1971 131.313 37.8895 131.518 39.1509ZM123.262 69.064C125.797 73.25 128.327 74.725 133.55 76.7958C137.509 77.9028 139.144 78.8497 141.044 81.1053C141.832 78.1876 141.047 76.4241 138.123 73.12C140.808 74.3092 142.165 75.0963 144.219 76.7958C144.659 73.1621 142.929 71.4122 138.885 68.4303C140.229 70.1603 140.93 71.1219 140.79 72.613C138.561 72.1153 136.399 71.489 131.772 70.078C132.994 72.6041 133.964 73.4416 135.837 74.641C130.721 73.9235 127.96 72.7602 123.262 69.064ZM84.5228 42.6999C90.0021 44.9555 92.8854 46.3327 96.3351 49.798L95.573 46.8827C97.1026 47.9635 97.921 48.7647 99.2564 50.812C99.4994 49.5375 99.4721 48.6987 99.0024 46.8827C100.359 48.1312 100.839 48.9448 101.289 50.5585C102.32 48.3071 103.064 47.691 104.464 46.8827C104.548 47.8452 104.269 48.7731 103.448 50.812C104.994 49.2792 105.889 48.5276 107.639 47.77L106.877 50.5585C111.079 47.1365 113.705 46.1351 118.69 45.3617L110.942 46.249C111.187 45.3042 111.861 44.6551 113.228 43.4605L107.639 45.8687C107.381 44.5622 107.873 43.7668 109.037 42.3197C107.236 42.0901 106.045 42.422 103.448 44.221C103.426 44.7748 103.285 45.0798 102.813 45.6152C102.51 45.2163 102.341 44.9928 102.305 44.728C102.115 45.1967 101.979 45.4531 101.543 45.8687C100.44 43.7494 99.2896 43.1932 97.3512 42.0662C95.7355 42.0456 95.1697 42.1051 94.6839 42.3197C95.4998 43.5018 95.8128 44.1088 95.827 44.9815C93.9927 44.1065 92.8219 43.3701 90.3654 42.0662C91.5948 43.3524 92.1417 44.0302 92.2706 44.9815C89.2227 44.3798 87.5328 43.796 84.5228 42.6999ZM70.9322 29.6447C71.4838 30.2376 71.9019 30.6463 72.7104 31.4192C73.7924 30.0844 74.7127 30.0613 76.5208 30.4052C96.4988 28.4636 107.149 31.443 126.437 34.5879V34.0809C105.216 30.5175 93.5203 27.7026 70.9322 29.6447ZM95.446 93.6536C96.0811 93.2733 94.8048 92.8378 94.1758 92.8931C92.195 93.6947 92.2481 94.6825 93.1597 96.8223L93.9218 95.8083C101.359 97.2992 105.163 97.0567 110.942 93.6536L112.085 95.3013C112.48 93.6952 112.268 92.7855 109.799 91.1186C109.23 91.39 108.924 91.5595 108.655 92.2593L109.799 92.8931C107.059 95.3887 97.1292 96.3734 95.192 94.7943C95.0346 94.666 94.8109 94.0338 95.446 93.6536ZM114.244 63.994C114.531 63.1634 114.944 62.83 115.895 62.3463C115.791 63.3409 116.049 63.7087 116.911 64.1208C115.869 64.3849 115.285 64.3733 114.244 63.994ZM117.546 62.2195C117.379 61.6902 117.402 61.4521 117.801 61.2055C119.854 60.9247 120.866 60.9905 122.373 61.5857C121.912 62.9968 121.397 63.6241 119.706 64.2475C120.329 62.2366 119.885 61.7687 117.546 62.2195ZM80.5853 58.6705C79.9751 59.002 81.8336 61.1152 83.2526 61.8393C83.3089 60.8359 83.0153 60.2744 83.2526 59.6845C84.078 60.0099 84.5489 60.0879 85.4119 59.938C85.6155 59.7533 85.6356 59.6114 85.5389 59.3042C84.039 58.7228 83.2165 58.5332 80.5853 58.6705ZM86.1739 62.3463C85.5389 62.3463 87.4441 61.2055 87.063 60.445C86.682 59.6845 89.2223 61.459 89.0953 62.0928C88.1366 62.4283 86.1739 62.3463 86.1739 62.3463ZM170.13 81.6123C170.332 83.5429 171.067 84.2463 173.56 84.7811C175.755 84.6876 176.233 84.0847 176.735 82.7531C176.479 80.8051 175.866 80.0052 173.56 79.3308C171.492 79.553 170.89 80.1893 170.13 81.6123Z" stroke="black" stroke-width="0.5"/>
</g>
<defs>
<filter id="filter0_d_98_286" x="0.75" y="0.75" width="205.5" height="172.511" filterUnits="userSpaceOnUse" color-interpolation-filters="sRGB">
<feFlood flood-opacity="0" result="BackgroundImageFix"/>
<feColorMatrix in="SourceAlpha" type="matrix" values="0 0 0 0 0 0 0 0 0 0 0 0 0 0 0 0 0 0 127 0" result="hardAlpha"/>
<feOffset dy="4"/>
<feGaussianBlur stdDeviation="2.5"/>
<feComposite in2="hardAlpha" operator="out"/>
<feColorMatrix type="matrix" values="0 0 0 0 0.737255 0 0 0 0 0.51451 0 0 0 0 0.180392 0 0 0 0.43 0"/>
<feBlend mode="normal" in2="BackgroundImageFix" result="effect1_dropShadow_98_286"/>
<feBlend mode="normal" in="SourceGraphic" in2="effect1_dropShadow_98_286" result="shape"/>
</filter>
</defs>
</svg>
