<svg width="901" height="746" fill="none" xmlns="http://www.w3.org/2000/svg"><g opacity=".4" filter="url(#filter0_d_136_897)" shape-rendering="crispEdges"><path d="M401.27 351.227c10.054-19.026 41.219-25.514 61.732-14.357 12.024 5.651 17.934 14.042 18.529 19.525l11.002 1.723c-2.019-13.779-5.001-21.961-22.583-32.16-19.276-6.806-32.399-8.051-57.326-2.297-12.989 2.66-16.772 8.895-22.004 19.526-6.499 20.265-4.023 29.654 12.739 48.24 15.473 10.586 25.971 11.575 45.166 12.06 15.953-.358 23.424-4.217 35.902-13.209 7.968-8.09 9.379-15.48 8.106-32.16l-11.002-1.723c-5.557-4.474-9.187-6.505-18.529-7.465-12.67 1.216-16.853 3.725-14.477 14.357 4.349 9.999 9.214 12.293 20.267 10.337-4.226-3.795-5.329-6.284-4.632-11.486 3.909-1.501 6.061-1.147 9.844 1.149 3.716 5.587 4.98 9.037 3.474 16.654-8.332 9.081-14.098 12.483-28.953 11.486-3.969-2.987-5.228-5.815-6.948-11.486-1.206 5.676-2.929 8.342-9.265 11.486-12.091-.87-17.408-3.825-25.479-11.486-3.35-9.238-3.792-14.024 2.316-20.674 3.23-.417 5.113-.267 8.686 1.148 2.604 4.398 1.546 6.781-4.053 10.912 11.656 1.407 16.877.329 20.846-9.189 1.205-6.103-.149-9.268-6.949-14.357-10.318-1.931-16.102-1.958-26.409 3.446z" fill="#fff" fill-opacity=".01"/><path fill-rule="evenodd" clip-rule="evenodd" d="M595.026 373.05c38.163 9.423 47.349 22.8 45.746 58.577-6.736-11.653-11.102-17.967-20.267-28.714.685 12.137-.52 18.353-4.633 28.714-4.39-11.719-7.835-17.257-17.951-22.971 10.342 27.382 10.503 41.114 2.317 63.171-7.628-21.556-12.819-33.279-25.479-52.834-1.295 10.375-1.302 17.406 0 32.16-4.434-8.987-7.361-13.422-13.897-19.526 5.141 34.662 2.436 52.53-28.953 76.955-.148-14.51-.581-22.533-5.211-35.606-9.542 23.929-16.017 36.45-36.481 51.686.662-19.06-1.423-29.304-11.002-46.518-2.692 18.915-5.077 26.588-11.581 32.735-.859-12.151-2.347-18.076-7.528-26.417-.464 23.232-3.07 34.814-18.529 48.814-15.863-18.484-21.223-29.657-19.109-52.26-5.841 9.165-7.481 15.372-8.686 27.566-8.646-11.872-11.112-19.236-10.423-33.883-12.782 12.892-14.289 22.818-10.423 43.646-21.958-17.017-31.268-28.77-38.218-56.855-5.325 14.085-6.226 22.256-4.053 37.329-28.122-23.802-30.889-43.086-30.69-79.826-8.13 4.724-10.589 8.809-13.318 17.228v-30.437c-17.066 13.392-21.795 25.67-26.637 51.112-7.417-28.693-9.023-43.912 1.158-66.618-9.24 6.715-13.028 11.329-17.95 20.675-4.241-11.869-4.673-18.303-1.159-29.289-14.443 5.325-18.489 13.418-25.478 28.14 1.671-36.467 9.047-51.062 45.745-55.706-9.646 7.031-13.088 10.846-12.739 17.229 17.37-11.578 27.607-15.185 46.325-18.952-10.919 8.101-16.386 12.981-21.425 24.12 28.482-8.815 39.126-18.375 57.905-35.605-15.586 22.426-28.099 38.758-29.532 47.091 21.659-16.416 32.579-26.698 45.167-51.111 4.268-33.323 6.436-44.35 9.844-48.241-9.7.471-14.903.163-23.163-2.871 9.764.143 14.268-2.56 19.688-4.594-20.397-3.512-28.047-5.67-37.059-16.655-1.705-.694-2.859-.437-5.791 2.872 2.205-8.882 6.129-11.833 14.477-16.08 12.246.292 16.138.836 23.741 1.722-6.848-3.988-11.269-5.469-21.425-5.168 6.337-5.264 11.83-5.811 24.32-3.446 18.639 6.492 23.075 13.353 28.374 26.992-5.197-5.822-7.823-8.288-10.423-6.892 7.25 8.81 9.557 12.969 10.423 18.952-10.379 3.055-16.124 4.994-23.162 18.377-3.305 19.208-3.208 30.812-2.317 50.537-11.46 26.504-17.321 41.328-9.844 66.618 40.735 39.022 94.637 52.118 151.134 8.04 4.084-16.821-.484-39.862-11.002-74.658.058-15.25.055-23.801 0-39.051-4.311-12.118-7.958-18.054-22.583-22.972-.149-9.267 1.328-13.69 9.264-18.951-3.849-1.097-6.361.932-11.002 5.743 19.671-26.573 31.289-31.166 53.273-17.229-12.406-1.627-16.75-1.201-20.266 1.723 11.081 1.582 19.826 1.631 24.899 5.743 7.055 3.789 9.31 6.757 12.16 12.634-1.821-.235-2.765-.264-6.37-2.871-3.943 4.68-7.629 7.155-15.055 11.485-6.314 1.339-10.634 1.581-21.425 0 3.729 5.589 8.71 6.678 20.846 6.317-3.32 2.521-5.781 3.702-13.318 4.595-4.788-.46-7.449-1.501-12.16-4.595 4.904 8.391 6.25 13.83 7.527 24.121 1.757 21.898 1.562 34.302 18.53 54.557l27.216 28.714c-1.486-14.204-9.916-26.578-27.216-49.963 19.183 17.473 30.583 26.959 56.168 41.349-6.061-9.718-22.923-25.175-22.004-25.843.919-.668 34.841 14.281 47.483 22.972l-16.793-17.803zm-88.016-97.629c-4.335 2.192-6.222 3.702-7.528 7.465 4.744 1.719 7.406 1.772 12.16.575-3.934-1.867-5.106-3.534-4.632-8.04zm8.686-5.169c-1.816 1.117-1.923 2.196-1.158 4.594 10.663-2.042 12.687.078 9.843 9.189 7.712-2.825 10.058-5.667 12.161-12.06-6.873-2.697-11.487-2.995-20.846-1.723zm-157.503 2.872c-6.47-3.281-14.942-12.856-12.16-14.358 11.995-.622 15.745.237 22.583 2.872.441 1.392.349 2.034-.579 2.871-3.934.68-6.082.326-9.844-1.148-1.082 2.672.256 5.216 0 9.763zm17.371-6.318c1.737 3.446-6.948 8.615-4.053 8.615 0 0 8.948.371 13.318-1.149.579-2.871-11.002-10.911-9.265-7.466z" fill="#fff" fill-opacity=".01"/><path d="M540.595 305.858c11.557 18.966 23.089 25.649 46.903 35.032 18.048 5.015 25.502 9.306 34.165 19.525 3.592-13.219.015-21.209-13.319-36.18 12.242 5.388 18.427 8.954 27.795 16.655 2.006-16.464-5.885-24.393-24.32-37.903 6.127 7.838 9.325 12.195 8.686 18.951-10.163-2.255-20.018-5.093-41.113-11.486 5.572 11.446 9.991 15.24 18.529 20.675-23.319-3.251-35.908-8.522-57.326-25.269z" fill="#fff" fill-opacity=".01"/><path fill-rule="evenodd" clip-rule="evenodd" d="M214.587 192.723c-18.215-26.135-18.639-42.026-12.739-71.212 6.119 5.925 10.089 7.833 17.95 9.189-.848 20.651.22 32.224 11.582 52.834 2.565.646 3.671.463 5.211-.574-1.744-17.694-5.113-28.519 7.528-40.774-6.392-3.176-8.342-1.791-11.581 1.148.906-4.783 2.667-6.636 8.686-8.04 21.128.348 28.008 1.075 40.533 2.297 1.606 12.962 1.478 21.307-4.632 37.903h-14.476c4.356 5.372 7.945 7.974 19.108 10.912-33.734 6.6-50.625 13.836-74.698 37.329 12.153-.063 18.895.12 30.69 1.148-54.931 36.787-65.763 67.384-57.905 135.532 10.868-13.044 18.069-19.124 33.585-26.991-22.21 54.387-12.783 80.808 34.164 122.323-3.118-14.859.002-21.342 7.528-32.16 5.703 32.044 12.803 48.495 44.008 70.638-3.015-17.804-2.744-27.515 6.37-43.646 8.301 28.491 16.437 43.136 39.375 66.043 10.465 12.906 13.734 20.837 15.056 36.18 11.795-4.833 12.216-13.358 11.581-29.863 12.369 14.155 19.789 21.172 34.743 30.437 6.173-8.22 6.366-16.279 6.37-31.011 8.434 14.598 13.429 22.706 27.794 35.606 16.089-10.207 20.227-18.243 26.058-33.309 4.44 11.59 5.948 18.323 5.791 31.011 19.413-7.991 26.438-14.558 37.638-26.991-.767 15.32.709 23.417 9.844 36.18.767-21.83 9.292-35.69 37.06-62.023 11.45-10.224 14.035-19.544 16.792-37.903 8.347 15.965 9.814 25.923 5.212 45.943 28.607-16.246 37.967-31.05 44.587-66.043 5.79 12.712 7.837 19.784 6.369 32.16 25.889-14.826 33.304-27.578 43.43-52.26 4.176-25.367 1.826-38.9-9.265-62.024 14.74 8.441 23.368 14.265 31.269 28.141 10.5-23.687 6.754-39.389-1.158-70.064-11.854-33.159-23.941-47.198-51.536-67.191 11.144-1.193 17.364-.837 28.373 2.871-16.302-22.972-30.397-33.643-70.644-45.943 10.335-2.614 14.73-4.44 16.792-9.189-23.218-2.709-34.192-9.464-53.852-28.714-2.442-9.565-2.835-15.049 0-25.269 9.825-23.294 20.719-28.336 42.85-33.308 32.982-1.818 45.657 1.599 62.538 12.06-7.468 1.845-10.107 3.109-12.16 5.743 22.427 19.624 26.537 32.812 22.004 59.151-1.018 13.96-2.8 21.458-11.581 33.309 20.208 16.992 27.462 27.77 38.218 47.666l-19.688-3.446c23.636 30.24 30.961 48.701 35.303 80.401.206 1.5.405 3.031.598 4.594-1.399 31.852-3.098 49.324-14.476 76.954-3.959-7.362-7.012-10.516-14.477-13.783-2.92 26.081-4.102 41.009-23.162 56.281-17.517 17.117-28.15 25.794-52.115 35.606l-1.737-5.743c-17.843 17.045-29.535 25.583-49.686 34.791a299.584 299.584 0 01-7.061 3.112c.724-5.031.077-7.105-1.737-10.337-15.085 15.657-22.626 24.901-23.742 47.666h-17.95c-4.069-3.032-7.037-5.52-9.561-8.615-2.218-2.718-4.094-5.904-6.074-10.337-10.004 4.049-15.578 6.444-24.32 14.932h-16.793c.38-5.989.323-7.958 0-10.338-3.131 4.715-4.754 6.267-7.528 8.04-8.136.204-12.699.154-20.845-1.148-3.301-2.594-4.825-4.103-6.949-6.892-1.292.931-1.8 1.718-.579 5.743h-17.951l-3.247-2.611-18.178-14.617c-4.953 5.883-7.847 9.051-13.318 14.357l-23.741-.574c-2.402-23.59-8.633-33.541-22.584-49.389v11.486c-27.521-12.901-39.116-23.732-57.326-45.369-3.391 2.624-3.034 4.438 0 8.04-47.073-22.297-66.54-42.643-77.245-82.123-1.901-7.014-3.527-14.632-4.981-22.972-5.137 2.309-8.051 4.529-12.271 10.533-.34.484-.688.992-1.047 1.527a339.89 339.89 0 01-1.638-3.462c-4.461-9.58-7.793-18.037-10.195-26.401-2.302-8.014-3.75-15.943-4.519-24.694-.775-8.812-.862-18.458-.441-29.863 6.961-32.267 14.965-49.026 37.06-76.381-3.173-2.993-6.097-4.081-18.53-2.297 5.564-8.732 8.291-13.571 18.53-22.971 9.208-8.219 14.358-12.023 23.311-18.634l.43-.318zm353.803-39.051c-.813 10.791 1.605 14.195 9.844 16.654-.934-5.716.096-8.853 4.053-14.357.916 3.696 2.16 5.615 6.37 8.614 9.362-17.876 17.323-17.074 31.268-16.654 19.398 1.094 23.128 5.75 27.216 15.505-7.228-4.88-11.175-5.906-17.951-3.445 10.42 1.047 13.904 5.011 18.53 14.357-2.918-4.403-5.068-5.296-9.844-4.02 11.149 15.335 9.94 25.246 6.949 43.071 13.103-12.574 16.197-21.101 13.897-39.051-.332-38.244-13.943-36.717-33.585-41.923 5.071-1.177 7.004-2.796 10.423-6.892-19.256-3.681-30.075-6.165-48.062 13.209-1.76-5.429-1.821-8.684 0-14.931-11.947 8.436-17.863 13.73-19.108 29.863z" fill="#fff" fill-opacity=".01"/><path d="M480.373 269.103c2.685-18.19 7.489-23.346 28.374-21.248-17.595 4.283-21.3 10.116-28.292 21.12l-.082.128zm-104.356-29.188c27.612 1.855 27.749 8.89 25.253 21.723-5.462-10.959-9.695-16.734-25.253-21.723zm-12.034-53.509c24.981 10.22 38.125 16.459 53.852 32.16l-3.474-13.209c6.973 4.897 10.704 8.527 16.793 17.803 1.107-5.774.983-9.575-1.158-17.803 6.186 5.657 8.37 9.343 10.422 16.655 4.704-10.201 8.093-12.992 14.477-16.655.383 4.361-.891 8.566-4.633 17.803 7.049-6.944 11.13-10.35 19.109-13.783l-3.474 12.635c19.154-15.505 31.129-20.042 53.852-23.546l-35.322 4.02c1.119-4.281 4.189-7.221 10.423-12.634l-25.479 10.911c-1.177-5.919 1.064-9.523 6.37-16.08-8.209-1.04-13.637.464-25.479 8.614-.101 2.51-.742 3.892-2.895 6.318-1.379-1.808-2.151-2.82-2.316-4.02-.865 2.124-1.487 3.285-3.474 5.168-5.026-9.602-10.272-12.122-19.109-17.228-7.366-.094-9.946.176-12.16 1.148 3.719 5.356 5.146 8.106 5.211 12.06-8.362-3.964-13.7-7.301-24.899-13.208 5.604 5.827 8.098 8.898 8.686 13.208-13.896-2.726-21.6-5.371-35.323-10.337zm-8.107-97.629c2.264 11.388 4.677 17.356 11.582 27.046a699.07 699.07 0 0111.002-.288c-8.767-10.105-13.006-15.867-16.214-26.758-1.687-16.042-3.766-25.086-10.423-41.349l-24.32-21.823C338.632 36.07 342.687 42.3 347.77 51.448c4.053 14.47 5.622 22.668 8.106 37.329zm110.021 5.168c.153 10.208-.647 15.579-2.455 23.704-.14.633-.287 1.282-.44 1.952 3.455.396 6.927.82 10.423 1.271.024-.656.046-1.295.067-1.923.264-8.09.2-14.132-.067-25.004 5.436-5.137 6.821-9.21 9.844-16.08 2.577-20.23 7.532-31.776 14.476-52.26l-18.53 48.815c-3.862 8.409-6.548 12.818-13.318 19.525zm80.489 17.229c-3.047 5.99-4.591 6.712-8.107 20.294 3.8.719 7.658 1.463 11.581 2.229l-.009-.041-.043-.198c-1.538-7.167-.595-12.348 2.368-22.284l55.01-59.726c-22.388 22.86-33.56 35.204-60.8 59.726zm-267.524-10.911c11.973 4.561 18.783 9.384 22.583 20.27 3.726-.381 7.392-.741 11.002-1.078-6.847-8.723-11.146-13.289-22.004-19.192-38.988-6.832-59.805-12.448-88.595-36.755 15.351 18.465 25.917 28.271 77.014 36.755z" fill="#fff" fill-opacity=".01"/><path d="M223.852 124.957c26.668 4.554 41.606 5.855 68.22 5.743a38.467 38.467 0 01-.153-3.446c-27.481.64-42.893-1.295-70.383-6.891-3.72-2.209-4.655-3.603-4.633-6.317-6.992.138-8.107-2.872-19.688-2.872s-27.449-9.785-23.162-17.803c15.165-15.568 16.689-19.871 18.53-26.991-1.295-9.943 1.254-12.335 8.107-14.357 38.439-23.144 60.213-26.725 99.018-34.458C354.889 7.575 389.569 7.163 452 7.228c64.05 6.74 97.854 13.39 155.186 29.289 20.588 8.5 28.879 15.066 37.06 30.437 5.152 18.406 1.852 26.973-13.318 39.626l4.632 1.723c26.076-26.108 24.944-41.65-19.109-71.786-56.265-18.989-93.823-24.763-161.556-34.458-60.161-.47-93.885 1.777-154.029 9.763-55.497 9.958-84.016 22.536-113.495 45.37-1.141 4.068-1.715 6.373 0 11.485-7.877 10.023-22.004 18.951-22.004 28.14s15.75 15.591 30.69 18.377l18.53 2.297c.42 5.076 2.644 6.579 9.265 7.466zm44.587 156.207c-16.848 9.292-24.727 15.485-24.32 35.605 8.598-8.141 14.568-10.888 27.215-12.634-12.54 12.391-14.105 19.296-13.318 31.586 21.441-12.103 35.042-16.872 62.538-21.249 10.536-6.458 13.683-11.328 19.109-20.1-18.617 11.278-30.757 15.569-57.906 16.655 7.722-6.846 12.663-10.759 22.004-17.803-18.71-.436-28.316.898-43.429 6.891-1.811-5.855 1.346-10.434 8.107-18.951z" fill="#fff" fill-opacity=".01"/><path d="M302.024 127.254c2.515 2.687 4.421 4.539 8.107 8.04 4.933-6.047 9.128-6.152 17.372-4.594 91.078-8.797 139.631 4.702 227.568 18.952v-2.298c-96.749-16.145-150.068-28.899-253.047-20.1z" fill="#fff" fill-opacity=".01"/><path d="M288.127 178.94c22.664-2.623 42.78-4.404 61.001-5.483-17.016.033-35.242.328-55.21.889.164-8.994.797-13.857 7.527-20.674-3.399-10.643-5.032-16.554-4.632-26.418l2.895-3.445c58.809-5.012 97.965-7.166 125.322-7.456-15.142-.835-30.462-1.115-46.57-.818a699.07 699.07 0 00-11.002.288c-17.114.577-35.224 1.78-55.011 3.632-3.61.337-7.276.697-11.002 1.078-3.047.311-6.135.638-9.265.978-.168 2.078-.264 3.972-.261 5.743.003 1.199.051 2.342.153 3.446.548 5.899-3.14 14.154 1.846 20.674-9.011 9.908-4.405 13.916-5.791 27.566zm206.536 2.348c-47.931-5.285-90.381-7.937-145.535-7.831 61.83-3.661 101.84.764 145.535 7.831zm68.515 11.435v-2.871c-24.968-3.365-47.28-6.223-68.515-8.564 21.036 3.402 42.926 7.416 68.515 11.435zm-24.899-61.255c-15.977-3.027-30.922-5.643-45.281-7.834 10.499 3.261 20.336 7.039 39.56 10.063 37.683 5.926 29.55 2.998 17.25-.239l.043.198c.282.08.309.099.009.041-3.923-.766-7.781-1.51-11.581-2.229zm-75.277-11.867c.153-.67.3-1.319.44-1.952-9.649-.967-21.874-1.472-38.412-1.296 12.663.698 25.201 1.785 37.972 3.248zm10.49-.652c-.021.628-.043 1.267-.067 1.923 6.428.829 12.938 1.75 19.573 2.762-5.753-1.787-11.704-3.418-19.506-4.685zm-59.71 298.321c2.895-1.723-2.923-3.696-5.791-3.446-9.03 3.632-8.788 8.108-4.632 17.803l3.474-4.594c33.904 6.755 51.248 5.656 77.594-9.763l5.211 7.466c1.8-7.277.833-11.399-10.423-18.952-2.591 1.23-3.988 1.998-5.211 5.169l5.211 2.871c-12.49 11.308-57.759 15.769-66.591 8.614-.718-.581-1.737-3.445 1.158-5.168zm-30.69 134.958c-4.953 5.883-7.847 9.051-13.318 14.357l-23.741-.574c-2.402-23.59-8.633-33.541-22.584-49.389v11.486c-27.521-12.901-39.116-23.732-57.326-45.369-3.391 2.624-3.034 4.438 0 8.04-47.073-22.297-66.54-42.643-77.245-82.123l-17.252-12.439c-.34.484-.688.992-1.047 1.527a339.89 339.89 0 01-1.638-3.462l-110.699-79.81c-10.837-1.328-13.046 1.761-12.74 11.486l134.342 97.629c-.206 4.429-1.892 6.319-9.265 8.04L34.501 335.721c-9.296-1.082-11.926 1.054-9.844 12.06l134.089 94.183c-3.068 7.104-5.925 10.048-17.699 9.189L17.129 362.138c-8.818.378-13.584.777-9.844 14.357l133.762 88.441c11.289 6.704 18.012 9.803 31.269 13.208 14.305.138 21.921-.995 34.743-5.168l158.395 116.551 3.162 2.327 32.654-25.009-18.178-14.617zM154.227 343.187l-72.823-50.538c-14-.971-14.772 2.645-15.055 10.338l92.397 64.894c-2.302-8.014-3.75-15.943-4.519-24.694z" fill="#fff" fill-opacity=".01"/><path d="M499.482 559.119c-10.004 4.049-15.578 6.444-24.32 14.932h-16.793c.38-5.989.323-7.958 0-10.338-3.131 4.715-4.754 6.267-7.528 8.04-8.136.204-12.699.154-20.845-1.148-3.301-2.594-4.825-4.103-6.949-6.892-1.292.931-1.8 1.718-.579 5.743h-17.951l-3.247-2.611-32.654 25.009-3.162-2.327-136.97 86.747c-6.66 28.239-1.76 38.539 31.269 41.349l159.24-95.988 52.003-31.347 34.56-20.832c-2.218-2.718-4.094-5.904-6.074-10.337z" fill="#fff" fill-opacity=".01"/><path d="M470.996 590.288l-52.003 31.347L578.813 736c34.003-4.588 41.556-13.765 36.48-40.774L470.996 590.288z" fill="#fff" fill-opacity=".01"/><path fill-rule="evenodd" clip-rule="evenodd" d="M721.26 353.524c-1.399 31.852-3.098 49.324-14.476 76.954-3.959-7.362-7.012-10.516-14.477-13.783-2.92 26.081-4.102 41.009-23.162 56.281-17.517 17.117-28.15 25.794-52.115 35.606l-1.737-5.743c-17.843 17.045-29.535 25.583-49.686 34.791l67.637 78.918 255.942-151.612c8.099-11.555 7.397-19.129 0-33.309l-95.544-94.757c-14.714-6.938-22.537-7.255-35.901-2.872l-37.079 14.932c.206 1.5.405 3.031.598 4.594zm48.641 23.546c-11.366-2.423-14.718-5.61-15.635-14.358 3.464-6.447 6.208-9.33 15.635-10.337 10.512 3.056 13.31 6.68 14.476 15.506-2.288 6.034-4.467 8.765-14.476 9.189z" fill="#fff" fill-opacity=".01"/><path d="M214.587 192.723c-18.215-26.135-18.639-42.026-12.739-71.212 6.119 5.925 10.089 7.833 17.95 9.189-.848 20.651.22 32.224 11.582 52.834 2.565.646 3.671.463 5.211-.574-1.744-17.694-5.113-28.519 7.528-40.774-6.392-3.176-8.342-1.791-11.581 1.148.906-4.783 2.667-6.636 8.686-8.04 21.128.348 28.007 1.075 40.533 2.297 1.606 12.962 1.478 21.307-4.632 37.903h-14.476c4.356 5.372 7.945 7.974 19.108 10.912-33.734 6.6-50.625 13.836-74.698 37.329 12.153-.063 18.895.12 30.69 1.148-54.931 36.787-65.763 67.384-57.905 135.532 10.868-13.044 18.069-19.124 33.585-26.991-22.21 54.387-12.783 80.808 34.164 122.323-3.118-14.859.002-21.342 7.528-32.16 5.703 32.044 12.803 48.495 44.008 70.638-3.015-17.804-2.744-27.515 6.37-43.646 8.301 28.491 16.437 43.136 39.375 66.043 10.465 12.906 13.734 20.837 15.056 36.18 11.795-4.833 12.216-13.358 11.581-29.863 12.369 14.155 19.789 21.172 34.743 30.437 6.173-8.22 6.366-16.279 6.37-31.011 8.434 14.598 13.429 22.706 27.795 35.606 16.088-10.207 20.226-18.243 26.057-33.309 4.44 11.59 5.948 18.323 5.791 31.011 19.413-7.991 26.438-14.558 37.638-26.991-.767 15.32.709 23.417 9.844 36.18.767-21.83 9.292-35.691 37.06-62.023 11.45-10.224 14.036-19.544 16.792-37.903 8.347 15.965 9.814 25.923 5.212 45.943 28.607-16.246 37.967-31.05 44.587-66.043 5.79 12.712 7.837 19.784 6.369 32.16 25.889-14.826 33.304-27.578 43.43-52.26 4.176-25.367 1.826-38.9-9.265-62.024 14.74 8.441 23.368 14.265 31.269 28.141 10.5-23.687 6.754-39.389-1.158-70.064-11.854-33.159-23.941-47.198-51.536-67.191 11.144-1.193 17.364-.837 28.373 2.871-16.302-22.972-30.397-33.643-70.644-45.943 10.335-2.614 14.73-4.44 16.792-9.189-23.218-2.709-34.192-9.464-53.852-28.714-2.442-9.565-2.835-15.049 0-25.269 9.825-23.294 20.719-28.336 42.85-33.308 32.982-1.818 45.657 1.599 62.538 12.06-7.468 1.845-10.107 3.109-12.16 5.743 22.427 19.624 26.537 32.812 22.004 59.151-1.018 13.96-2.8 21.458-11.581 33.309 20.208 16.992 27.462 27.77 38.218 47.666l-19.688-3.446c23.636 30.24 30.961 48.701 35.303 80.401M214.587 192.723l-.43.318m.43-.318l-.43.318m316.015 180.583c-16.968-20.255-16.773-32.659-18.53-54.557-1.277-10.291-2.623-15.73-7.527-24.121 4.711 3.094 7.372 4.135 12.16 4.595 7.537-.893 9.998-2.074 13.318-4.595-12.136.361-17.117-.728-20.846-6.317 10.791 1.581 15.111 1.339 21.425 0 7.426-4.33 11.112-6.805 15.055-11.485 3.605 2.607 4.549 2.636 6.37 2.871-2.85-5.877-5.105-8.845-12.16-12.634-5.073-4.112-13.818-4.161-24.9-5.743 3.517-2.924 7.861-3.35 20.267-1.723-21.984-13.937-33.602-9.344-53.273 17.229 4.641-4.811 7.153-6.84 11.002-5.743-7.936 5.261-9.413 9.684-9.264 18.951 14.625 4.918 18.272 10.854 22.583 22.972.055 15.25.058 23.801 0 39.051 10.518 34.796 15.086 57.837 11.002 74.658-56.497 44.078-110.399 30.982-151.134-8.04-7.477-25.29-1.616-40.114 9.844-66.618-.891-19.725-.988-31.329 2.317-50.537 7.038-13.383 12.783-15.322 23.162-18.377-.866-5.983-3.173-10.142-10.423-18.952 2.6-1.396 5.226 1.07 10.423 6.892-5.299-13.639-9.735-20.5-28.374-26.992-12.49-2.365-17.983-1.818-24.32 3.446 10.156-.301 14.577 1.18 21.425 5.168-7.603-.886-11.495-1.43-23.741-1.722-8.348 4.247-12.272 7.198-14.477 16.08 2.932-3.309 4.086-3.566 5.791-2.872 9.012 10.985 16.662 13.143 37.059 16.655-5.42 2.034-9.924 4.737-19.688 4.594 8.26 3.034 13.463 3.342 23.163 2.871-3.408 3.891-5.576 14.918-9.844 48.241-12.588 24.412-23.508 34.695-45.167 51.111 1.433-8.333 13.946-24.665 29.532-47.091-18.779 17.23-29.423 26.79-57.905 35.605 5.039-11.139 10.506-16.019 21.425-24.12-18.718 3.767-28.955 7.374-46.325 18.952-.349-6.383 3.093-10.198 12.739-17.229-36.698 4.644-44.074 19.239-45.745 55.706 6.989-14.722 11.035-22.815 25.478-28.14-3.514 10.986-3.082 17.42 1.159 29.289 4.922-9.346 8.71-13.96 17.95-20.675-10.181 22.706-8.575 37.925-1.158 66.618 4.842-25.442 9.571-37.72 26.637-51.112v30.437c2.729-8.419 5.188-12.504 13.318-17.228-.199 36.74 2.568 56.024 30.69 79.826-2.173-15.073-1.272-23.244 4.053-37.329 6.95 28.085 16.26 39.838 38.218 56.855-3.866-20.828-2.359-30.754 10.423-43.646-.689 14.647 1.777 22.011 10.423 33.883 1.205-12.194 2.845-18.401 8.686-27.566-2.114 22.603 3.246 33.776 19.109 52.26 15.459-14 18.065-25.582 18.529-48.814 5.181 8.341 6.669 14.266 7.528 26.417 6.504-6.147 8.889-13.82 11.581-32.735 9.579 17.214 11.664 27.458 11.002 46.518 20.464-15.236 26.939-27.757 36.481-51.686 4.63 13.073 5.063 21.096 5.211 35.606 31.389-24.425 34.094-42.293 28.953-76.955 6.536 6.104 9.463 10.539 13.897 19.526-1.302-14.754-1.295-21.785 0-32.16 12.66 19.555 17.851 31.278 25.479 52.834 8.186-22.057 8.025-35.789-2.317-63.171 10.116 5.714 13.561 11.252 17.951 22.971 4.113-10.361 5.318-16.577 4.633-28.714 9.165 10.747 13.531 17.06 20.267 28.714 1.603-35.777-7.583-49.154-45.746-58.577l16.793 17.803c-12.642-8.691-46.564-23.64-47.483-22.972-.919.668 15.943 16.125 22.004 25.843-25.585-14.39-36.985-23.876-56.168-41.349 17.3 23.385 25.73 35.759 27.216 49.963m-27.216-28.714l27.216 28.714m-27.216-28.714l27.216 28.714M374.406 239.815c.547.031 1.084.065 1.611.1m25.026 22.871c.077-.388.153-.77.226-1.148m-27.442-22.398c.754.224 1.484.449 2.19.675m25.252 21.723c2.497-12.833 2.36-19.868-25.252-21.723m25.252 21.723c-5.461-10.959-9.694-16.734-25.252-21.723m104.356 29.188c2.685-18.19 7.489-23.346 28.374-21.248-17.595 4.283-21.3 10.116-28.292 21.12m-.082.128l.082-.128m-.082.128l.082-.128M292.18 121.511c-.168 2.078-.264 3.972-.261 5.743m.261-5.743c6.957-.757 13.704-1.442 20.267-2.056m-20.267 2.056c3.13-.34 6.218-.667 9.265-.978m-9.373 10.167c.548 5.899-3.14 14.154 1.846 20.674-9.011 9.908-4.405 13.916-5.791 27.566 22.664-2.623 42.78-4.404 61.001-5.483M292.072 130.7c-26.614.112-41.552-1.189-68.22-5.743-6.621-.887-8.845-2.39-9.265-7.466l-18.53-2.297c-14.94-2.786-30.69-9.188-30.69-18.377 0-9.189 14.127-18.116 22.004-28.14-1.715-5.112-1.141-7.417 0-11.486 29.479-22.833 57.998-35.411 113.495-45.369C361.01 3.836 394.734 1.588 454.895 2.06c67.733 9.695 105.291 15.47 161.556 34.458 44.053 30.135 45.185 45.678 19.109 71.786l-4.632-1.723c15.17-12.653 18.47-21.22 13.318-39.626-8.181-15.37-16.472-21.938-37.06-30.437C549.854 20.619 516.05 13.969 452 7.228c-62.431-.065-97.111.347-152.292 10.337-38.805 7.733-60.579 11.314-99.018 34.458-6.853 2.022-9.402 4.414-8.107 14.357-1.841 7.12-3.365 11.423-18.53 26.991-4.287 8.018 11.581 17.803 23.162 17.803s12.696 3.01 19.688 2.872c-.022 2.714.913 4.108 4.633 6.317 27.49 5.596 42.901 7.531 70.383 6.891m.153 3.446a38.467 38.467 0 01-.153-3.446m9.526-6.721c-3.8-10.886-10.61-15.709-22.583-20.27-51.097-8.484-61.663-18.29-77.014-36.755 28.79 24.307 49.607 29.923 88.595 36.755 10.858 5.903 15.157 10.469 22.004 19.192m-11.002 1.078c3.726-.381 7.392-.741 11.002-1.078m0 0c19.787-1.852 37.897-3.055 55.011-3.632m0 0c-6.905-9.69-9.318-15.658-11.582-27.046-2.484-14.661-4.053-22.86-8.106-37.329-5.083-9.148-9.138-15.378-20.267-25.843m39.955 90.218a699.07 699.07 0 0111.002-.288m-50.957-89.93l24.32 21.823m-24.32-21.823l24.32 21.823m0 0c6.657 16.263 8.736 25.307 10.423 41.349 3.208 10.891 7.447 16.653 16.214 26.758m0 0c16.108-.297 31.428-.017 46.57.818m37.972 3.248c3.455.396 6.927.82 10.423 1.271m-10.423-1.271c-12.771-1.463-25.309-2.55-37.972-3.248m37.972 3.248c.153-.67.3-1.319.44-1.952m9.983 3.223c6.428.829 12.938 1.75 19.573 2.762m-19.573-2.762c.024-.656.046-1.295.067-1.923m64.787 12.519c3.516-13.582 5.06-14.304 8.107-20.294 27.24-24.522 38.412-36.866 60.8-59.726l-55.01 59.726c-2.963 9.936-3.906 15.117-2.368 22.284m-11.529-1.99c3.8.719 7.658 1.463 11.581 2.229m-11.581-2.229c-15.977-3.027-30.922-5.643-45.281-7.834m56.862 10.063c.3.058.273.039-.009-.041m.009.041l-.009-.041m-68.32 222.739c-.595-5.483-6.505-13.874-18.529-19.525-20.513-11.157-51.678-4.669-61.733 14.357 10.308-5.404 16.092-5.377 26.41-3.446 6.8 5.089 8.154 8.254 6.949 14.357-3.969 9.518-9.19 10.596-20.846 9.189 5.599-4.131 6.657-6.514 4.053-10.912-3.573-1.415-5.456-1.565-8.686-1.148-6.108 6.65-5.666 11.436-2.316 20.674 8.071 7.661 13.388 10.616 25.479 11.486 6.336-3.144 8.059-5.81 9.265-11.486 1.72 5.671 2.979 8.499 6.948 11.486 14.855.997 20.621-2.405 28.953-11.486 1.506-7.617.242-11.067-3.474-16.654-3.783-2.296-5.935-2.65-9.844-1.149-.697 5.202.406 7.691 4.632 11.486-11.053 1.956-15.918-.338-20.267-10.337-2.376-10.632 1.807-13.141 14.477-14.357 9.342.96 12.972 2.991 18.529 7.465zm0 0l11.002 1.723m0 0c-2.019-13.779-5.001-21.961-22.583-32.16-19.276-6.806-32.399-8.051-57.326-2.297-12.989 2.66-16.772 8.895-22.004 19.526-6.499 20.265-4.023 29.654 12.739 48.24 15.473 10.586 25.971 11.575 45.166 12.06 15.953-.358 23.424-4.217 35.902-13.209 7.968-8.091 9.379-15.48 8.106-32.16zM214.157 193.041c-8.953 6.611-14.103 10.415-23.311 18.634-10.239 9.4-12.966 14.239-18.53 22.971 12.433-1.784 15.357-.696 18.53 2.297-22.095 27.355-30.099 44.114-37.06 76.381-.421 11.405-.334 21.051.441 29.863m194.901-169.73c-17.016.033-35.242.328-55.21.889.164-8.994.797-13.857 7.527-20.674-3.399-10.643-5.032-16.554-4.632-26.418l2.895-3.445c58.809-5.012 97.965-7.166 125.322-7.456m-75.902 57.104c55.154-.106 97.604 2.546 145.535 7.831m-145.535-7.831c61.83-3.661 101.84.764 145.535 7.831m-69.633-64.935c16.538-.176 28.763.329 38.412 1.296m31.221 63.639c21.036 3.402 42.926 7.416 68.515 11.435v-2.871c-24.968-3.365-47.28-6.223-68.515-8.564zm-1.665-57.654c10.499 3.261 20.336 7.039 39.561 10.063 37.682 5.926 29.549 2.998 17.249-.239m-56.81-9.824c-5.753-1.787-11.704-3.418-19.506-4.685m76.316 14.509l.043.198m-.043-.198c-8.027-2.112-17.829-4.356-17.829-4.356-2.426-.482 15.647 3.923 17.872 4.554m-86.409-16.007c1.808-8.125 2.608-13.496 2.455-23.704 6.77-6.707 9.456-11.116 13.318-19.525l18.53-48.815c-6.944 20.484-11.899 32.03-14.476 52.26-3.023 6.87-4.408 10.943-9.844 16.08.267 10.872.331 16.914.067 25.004m-10.05-1.3c3.696.37 7.013.807 10.05 1.3M154.227 343.187l-72.823-50.538c-14-.97-14.772 2.645-15.055 10.338l92.397 64.894m-4.519-24.694c.769 8.751 2.217 16.68 4.519 24.694m0 0c2.402 8.364 5.734 16.821 10.195 26.401m19.937 14.374c10.705 39.48 30.172 59.826 77.245 82.123-3.034-3.602-3.391-5.416 0-8.04 18.21 21.637 29.805 32.468 57.326 45.369v-11.486c13.951 15.848 20.182 25.799 22.584 49.389l23.741.574c5.471-5.306 8.365-8.474 13.318-14.357l18.177 14.617M188.878 408.656c-1.901-7.014-3.527-14.632-4.981-22.972-5.137 2.309-8.051 4.529-12.271 10.533m17.252 12.439l-17.252-12.439m229.643 170.628l3.248 2.611h17.951c-1.221-4.025-.713-4.812.579-5.743 2.124 2.789 3.648 4.298 6.949 6.892 8.146 1.302 12.709 1.352 20.845 1.148 2.774-1.773 4.397-3.325 7.528-8.04.323 2.38.38 4.349 0 10.338h16.793c8.742-8.488 14.316-10.883 24.32-14.932 1.98 4.433 3.856 7.619 6.074 10.337m-104.287-2.611l-32.653 25.009-3.162-2.327m35.815-22.682l-35.815 22.682m-193.828-193.31c-.34.484-.688.992-1.047 1.527a339.89 339.89 0 01-1.638-3.462m2.685 1.935l-2.685-1.935m0 0l-110.699-79.81c-10.837-1.328-13.046 1.761-12.74 11.486l134.342 97.629c-.206 4.429-1.892 6.319-9.265 8.04L34.501 335.721c-9.296-1.082-11.926 1.054-9.844 12.06l134.089 94.183c-3.068 7.104-5.925 10.048-17.699 9.189L17.129 362.138c-8.818.378-13.584.777-9.844 14.357l133.762 88.441c11.289 6.704 18.012 9.803 31.269 13.208 14.305.138 21.921-.995 34.743-5.168l158.395 116.551m140.102-20.071c2.524 3.095 5.492 5.583 9.561 8.615h17.95c1.116-22.765 8.656-32.009 23.742-47.666 1.814 3.232 2.461 5.306 1.737 10.337a299.584 299.584 0 007.061-3.112m-60.051 31.826l-34.56 20.832m-105.542-.761l-136.97 86.747c-6.66 28.239-1.76 38.539 31.269 41.349l159.24-95.988m0 0L578.813 736c34.003-4.588 41.556-13.765 36.48-40.774L470.996 590.288m-52.003 31.347l52.003-31.347m-1.046-.761l1.046.761m93.34-54.14l1.271 1.482m155.055-188.7c.206 1.5.405 3.031.598 4.594-1.399 31.852-3.098 49.324-14.476 76.954-3.959-7.362-7.012-10.516-14.477-13.782-2.92 26.08-4.102 41.008-23.162 56.28-17.517 17.117-28.15 25.794-52.115 35.606l-1.737-5.743c-17.843 17.045-29.535 25.583-49.686 34.791m155.055-188.7l37.079-14.932c13.364-4.383 21.187-4.066 35.901 2.872l95.544 94.757c7.397 14.18 8.099 21.754 0 33.309L633.244 616.548l-67.637-78.918M268.439 281.164c-16.848 9.292-24.727 15.485-24.32 35.605 8.598-8.141 14.568-10.888 27.215-12.634-12.54 12.391-14.105 19.296-13.318 31.586 21.441-12.103 35.042-16.872 62.538-21.249 10.536-6.458 13.683-11.328 19.109-20.1-18.617 11.278-30.757 15.569-57.906 16.655 7.722-6.846 12.663-10.759 22.004-17.803-18.71-.436-28.316.898-43.429 6.891-1.811-5.855 1.346-10.434 8.107-18.951zm309.795-110.838c-8.239-2.459-10.657-5.863-9.844-16.654 1.245-16.133 7.161-21.427 19.108-29.863-1.821 6.247-1.76 9.502 0 14.931 17.987-19.374 28.806-16.89 48.062-13.209-3.419 4.096-5.352 5.715-10.423 6.892 19.642 5.206 33.253 3.679 33.585 41.923 2.3 17.95-.794 26.477-13.897 39.051 2.991-17.825 4.2-27.736-6.949-43.071 4.776-1.276 6.926-.383 9.844 4.02-4.626-9.346-8.11-13.31-18.53-14.357 6.776-2.461 10.723-1.435 17.951 3.445-4.088-9.755-7.818-14.411-27.216-15.505-13.945-.42-21.906-1.222-31.268 16.654-4.21-2.999-5.454-4.918-6.37-8.614-3.957 5.504-4.987 8.641-4.053 14.357zm-37.639 135.532c11.557 18.966 23.089 25.649 46.903 35.032 18.048 5.015 25.502 9.306 34.165 19.525 3.592-13.219.015-21.21-13.319-36.18 12.242 5.388 18.427 8.954 27.795 16.655 2.006-16.464-5.885-24.393-24.32-37.903 6.127 7.838 9.325 12.195 8.686 18.951-10.163-2.255-20.018-5.093-41.113-11.486 5.572 11.446 9.991 15.24 18.529 20.675-23.319-3.251-35.908-8.522-57.326-25.269zM363.983 186.406c24.981 10.22 38.125 16.459 53.852 32.16l-3.474-13.209c6.973 4.897 10.704 8.527 16.793 17.803 1.107-5.774.983-9.575-1.158-17.803 6.186 5.657 8.37 9.343 10.423 16.655 4.703-10.201 8.092-12.992 14.476-16.655.383 4.361-.891 8.566-4.633 17.803 7.049-6.944 11.13-10.35 19.109-13.783l-3.474 12.635c19.154-15.505 31.129-20.042 53.852-23.546l-35.322 4.02c1.119-4.281 4.189-7.221 10.423-12.634l-25.479 10.911c-1.177-5.919 1.064-9.523 6.37-16.08-8.209-1.04-13.637.464-25.479 8.614-.101 2.51-.742 3.892-2.895 6.318-1.379-1.808-2.151-2.82-2.316-4.02-.865 2.124-1.487 3.285-3.474 5.168-5.026-9.602-10.272-12.122-19.109-17.229-7.366-.093-9.946.177-12.16 1.149 3.719 5.356 5.146 8.106 5.211 12.06-8.362-3.964-13.7-7.301-24.899-13.209 5.604 5.828 8.098 8.899 8.686 13.209-13.896-2.726-21.6-5.371-35.323-10.337zm-61.959-59.152c2.515 2.687 4.421 4.539 8.107 8.04 4.933-6.047 9.128-6.152 17.372-4.594 91.078-8.797 139.631 4.702 227.568 18.952v-2.298c-96.749-16.145-150.068-28.899-253.047-20.1zM413.782 417.27c2.895-1.723-2.923-3.696-5.791-3.446-9.03 3.632-8.788 8.108-4.632 17.803l3.474-4.594c33.904 6.755 51.248 5.656 77.594-9.763l5.211 7.466c1.8-7.277.833-11.399-10.423-18.952-2.591 1.23-3.988 1.998-5.211 5.169l5.211 2.871c-12.49 11.307-57.759 15.769-66.591 8.614-.718-.581-1.737-3.445 1.158-5.168zm85.7-134.384c1.306-3.763 3.193-5.273 7.528-7.465-.473 4.506.698 6.173 4.632 8.04-4.754 1.197-7.416 1.144-12.16-.575zm15.055-8.04c-.764-2.398-.657-3.477 1.159-4.594 9.359-1.272 13.973-.974 20.846 1.723-2.103 6.393-4.449 9.235-12.161 12.06 2.844-9.111.82-11.231-9.844-9.189zm-168.504-16.08c-2.782 1.502 5.69 11.077 12.16 14.358.256-4.547-1.082-7.091 0-9.763 3.762 1.474 5.91 1.828 9.844 1.148.928-.837 1.02-1.479.579-2.871-6.838-2.635-10.588-3.494-22.583-2.872zm25.478 16.655c-2.895 0 5.79-5.169 4.053-8.615-1.737-3.445 9.844 4.595 9.265 7.466-4.37 1.52-13.318 1.149-13.318 1.149zm382.755 87.291c.917 8.748 4.269 11.935 15.635 14.358 10.009-.424 12.188-3.155 14.476-9.189-1.166-8.826-3.964-12.45-14.476-15.506-9.427 1.007-12.171 3.89-15.635 10.337z" stroke="#fff" stroke-width=".5"/></g><defs><filter id="filter0_d_136_897" x=".75" y=".75" width="899.5" height="744.511" filterUnits="userSpaceOnUse" color-interpolation-filters="sRGB"><feFlood flood-opacity="0" result="BackgroundImageFix"/><feColorMatrix in="SourceAlpha" values="0 0 0 0 0 0 0 0 0 0 0 0 0 0 0 0 0 0 127 0" result="hardAlpha"/><feOffset dy="4"/><feGaussianBlur stdDeviation="2.5"/><feComposite in2="hardAlpha" operator="out"/><feColorMatrix values="0 0 0 0 1 0 0 0 0 1 0 0 0 0 1 0 0 0 1 0"/><feBlend in2="BackgroundImageFix" result="effect1_dropShadow_136_897"/><feBlend in="SourceGraphic" in2="effect1_dropShadow_136_897" result="shape"/></filter></defs></svg>